SplineFontDB: 3.2
FontName: GotoMono-BoldItalic
FullName: Goto Mono Bold Italic
FamilyName: Goto Mono
Weight: Bold
Copyright: Copyright 2015 Google LLC. All Rights Reserved.
Version: 2.6
ItalicAngle: -12
UnderlinePosition: -125
UnderlineWidth: 50
Ascent: 800
Descent: 200
InvalidEm: 0
sfntRevision: 0x00020189
LayerCount: 2
Layer: 0 0 "Back" 1
Layer: 1 0 "Fore" 0
XUID: [1021 328 1927437058 7213121]
StyleMap: 0x0021
FSType: 0
OS2Version: 3
OS2_WeightWidthSlopeOnly: 0
OS2_UseTypoMetrics: 0
CreationTime: 1604030168
ModificationTime: 1610461252
PfmFamily: 49
TTFWeight: 700
TTFWidth: 5
LineGap: 0
VLineGap: 0
Panose: 2 11 8 9 4 5 4 2 2 4
OS2TypoAscent: 1069
OS2TypoAOffset: 0
OS2TypoDescent: -293
OS2TypoDOffset: 0
OS2TypoLinegap: 0
OS2WinAscent: 1069
OS2WinAOffset: 0
OS2WinDescent: 293
OS2WinDOffset: 0
HheadAscent: 1069
HheadAOffset: 0
HheadDescent: -293
HheadDOffset: 0
OS2SubXSize: 650
OS2SubYSize: 600
OS2SubXOff: 0
OS2SubYOff: 75
OS2SupXSize: 650
OS2SupYSize: 600
OS2SupXOff: 0
OS2SupYOff: 350
OS2StrikeYSize: 50
OS2StrikeYPos: 328
OS2CapHeight: 714
OS2XHeight: 546
OS2Vendor: 'GOOG'
OS2CodePages: 0000019f.dfd70000
OS2UnicodeRanges: e00002ff.0200fcff.08000039.00100000
Lookup: 1 0 0 "'aalt' Access All Alternates lookup 0" { "'aalt' Access All Alternates lookup 0 subtable"  } ['aalt' ('DFLT' <'dflt' > 'cyrl' <'MKD ' 'SRB ' 'dflt' > 'grek' <'dflt' > 'latn' <'APPH' 'CAT ' 'IPPH' 'MAH ' 'MOL ' 'NAV ' 'ROM ' 'dflt' > ) ]
Lookup: 3 0 0 "'aalt' Access All Alternates lookup 1" { "'aalt' Access All Alternates lookup 1 subtable"  } ['aalt' ('DFLT' <'dflt' > 'cyrl' <'MKD ' 'SRB ' 'dflt' > 'grek' <'dflt' > 'latn' <'APPH' 'CAT ' 'IPPH' 'MAH ' 'MOL ' 'NAV ' 'ROM ' 'dflt' > ) ]
Lookup: 4 0 0 "'ccmp' Glyph Composition/Decomposition lookup 2" { "'ccmp' Glyph Composition/Decomposition lookup 2 subtable"  } ['ccmp' ('DFLT' <'dflt' > 'cyrl' <'MKD ' 'SRB ' 'dflt' > 'grek' <'dflt' > 'latn' <'APPH' 'CAT ' 'IPPH' 'MAH ' 'MOL ' 'NAV ' 'ROM ' 'dflt' > ) ]

StartChar: .notdef
Encoding: 1114112 -1 0
Width: 563
Flags: HW
LayerCount: 2
Fore
SplineSet
76 0 m 1
 203 714 l 1
 614 714 l 1
 487 0 l 1
 76 0 l 1
136 51 m 1
 445 51 l 1
 554 663 l 1
 245 663 l 1
 136 51 l 1
EndSplineSet
EndChar

StartChar: exclam
Encoding: 33 33 4
Width: 563
Flags: HW
LayerCount: 2
Fore
SplineSet
265 233 m 1
 329 714 l 1
 489 714 l 1
 383 233 l 1
 265 233 l 1
280 -10 m 0
 226 -10 201 20 210 74 c 0
 220 130 255 159 310 159 c 0
 363 159 388 129 378 74 c 0
 369 21 332 -10 280 -10 c 0
EndSplineSet
Substitution2: "'smcp' Lowercase to Small Capitals lookup 35 subtable" exclam.sc
Substitution2: "'c2sc' Capitals to Small Capitals lookup 34 subtable" exclam.sc
Substitution2: "'aalt' Access All Alternates lookup 0 subtable" exclam.sc
EndChar

StartChar: quotedbl
Encoding: 34 34 5
Width: 563
Flags: HW
LayerCount: 2
Fore
SplineSet
413 456 m 1
 440 714 l 1
 578 714 l 1
 513 456 l 1
 413 456 l 1
212 456 m 1
 239 714 l 1
 377 714 l 1
 312 456 l 1
 212 456 l 1
EndSplineSet
EndChar

StartChar: numbersign
Encoding: 35 35 6
Width: 563
Flags: HW
LayerCount: 2
Fore
SplineSet
89 0 m 1
 155 201 l 1
 51 201 l 1
 68 297 l 1
 186 297 l 1
 226 421 l 1
 116 421 l 1
 134 518 l 1
 258 518 l 1
 324 714 l 1
 421 714 l 1
 355 518 l 1
 440 518 l 1
 505 714 l 1
 601 714 l 1
 536 518 l 1
 640 518 l 1
 622 421 l 1
 503 421 l 1
 463 297 l 1
 574 297 l 1
 557 201 l 1
 433 201 l 1
 366 0 l 1
 268 0 l 1
 335 201 l 1
 251 201 l 1
 185 0 l 1
 89 0 l 1
283 297 m 1
 367 297 l 1
 407 421 l 1
 323 421 l 1
 283 297 l 1
EndSplineSet
EndChar

StartChar: dollar
Encoding: 36 36 7
Width: 563
Flags: HW
LayerCount: 2
Fore
SplineSet
261 38 m 1
 194 40 134 54 90 77 c 1
 112 196 l 1
 153 168 220 143 279 140 c 1
 310 316 l 1
 190 365 145 416 162 508 c 0
 181 615 266 676 376 688 c 1
 388 759 l 1
 451 759 l 1
 439 689 l 1
 496 686 551 672 597 647 c 1
 545 545 l 1
 507 565 462 577 420 581 c 1
 391 413 l 1
 494 371 554 327 536 227 c 0
 518 130 445 58 325 40 c 1
 307 -58 l 1
 244 -58 l 1
 261 38 l 1
357 580 m 1
 313 574 287 550 280 511 c 0
 274 477 290 458 332 439 c 1
 357 580 l 1
343 147 m 1
 388 156 412 180 419 218 c 0
 425 253 409 272 369 291 c 1
 343 147 l 1
EndSplineSet
EndChar

StartChar: percent
Encoding: 37 37 8
Width: 563
Flags: HW
LayerCount: 2
Fore
SplineSet
208 383 m 0
 122 383 79 444 98 550 c 0
 117 660 182 722 268 722 c 0
 359 722 400 661 380 550 c 0
 361 444 299 383 208 383 c 0
54 62 m 1
 526 652 l 1
 629 652 l 1
 158 62 l 1
 54 62 l 1
225 464 m 0
 255 464 276 494 286 550 c 0
 297 611 286 641 256 641 c 0
 222 641 203 613 192 550 c 0
 182 492 191 464 225 464 c 0
419 -9 m 0
 333 -9 290 52 309 158 c 0
 328 268 393 330 479 330 c 0
 570 330 611 269 591 158 c 0
 572 52 510 -9 419 -9 c 0
435 72 m 0
 465 72 487 102 497 158 c 0
 508 219 497 249 467 249 c 0
 433 249 414 221 403 158 c 0
 393 100 401 72 435 72 c 0
EndSplineSet
EndChar

StartChar: ampersand
Encoding: 38 38 9
Width: 563
Flags: HW
LayerCount: 2
Fore
SplineSet
205 -10 m 0
 83 -10 39 68 58 175 c 0
 74 264 128 327 211 390 c 1
 192 431 171 485 183 557 c 0
 201 660 272 723 370 723 c 0
 474 723 517 661 500 567 c 0
 487 493 432 433 356 372 c 1
 419 248 l 1
 444 292 464 338 477 375 c 1
 594 375 l 1
 570 294 529 209 474 140 c 1
 545 0 l 1
 398 0 l 1
 376 45 l 1
 326 11 269 -10 205 -10 c 0
299 565 m 0
 291 524 302 488 312 461 c 1
 349 490 381 524 389 569 c 0
 396 608 382 628 356 628 c 0
 328 628 307 607 299 565 c 0
185 186 m 0
 177 141 194 104 241 104 c 0
 273 104 304 118 331 140 c 1
 257 296 l 1
 218 264 193 232 185 186 c 0
EndSplineSet
Substitution2: "'smcp' Lowercase to Small Capitals lookup 35 subtable" ampersand.sc
Substitution2: "'c2sc' Capitals to Small Capitals lookup 34 subtable" ampersand.sc
Substitution2: "'aalt' Access All Alternates lookup 0 subtable" ampersand.sc
EndChar

StartChar: quotesingle
Encoding: 39 39 10
Width: 563
Flags: HW
LayerCount: 2
Fore
SplineSet
312 456 m 1
 339 714 l 1
 477 714 l 1
 412 456 l 1
 312 456 l 1
EndSplineSet
EndChar

StartChar: parenleft
Encoding: 40 40 11
Width: 563
Flags: HW
LayerCount: 2
Fore
SplineSet
292 -167 m 1
 222 -52 198 97 229 270 c 0
 260 444 339 598 448 714 c 1
 564 714 l 1
 453 586 382 435 353 271 c 0
 325 110 344 -38 407 -167 c 1
 292 -167 l 1
EndSplineSet
Substitution2: "'smcp' Lowercase to Small Capitals lookup 35 subtable" parenleft.sc
Substitution2: "'c2sc' Capitals to Small Capitals lookup 34 subtable" parenleft.sc
Substitution2: "'sups' Superscript lookup 23 subtable" uni207D
Substitution2: "'subs' Subscript lookup 22 subtable" uni208D
AlternateSubs2: "'aalt' Access All Alternates lookup 1 subtable" uni208D uni207D parenleft.sc
EndChar

StartChar: parenright
Encoding: 41 41 12
Width: 563
Flags: HW
LayerCount: 2
Fore
SplineSet
373 714 m 1
 442 598 466 450 435 277 c 0
 404 102 326 -51 217 -167 c 1
 101 -167 l 1
 212 -39 283 112 312 276 c 0
 340 436 321 585 258 714 c 1
 373 714 l 1
EndSplineSet
Substitution2: "'smcp' Lowercase to Small Capitals lookup 35 subtable" parenright.sc
Substitution2: "'c2sc' Capitals to Small Capitals lookup 34 subtable" parenright.sc
Substitution2: "'sups' Superscript lookup 23 subtable" uni207E
Substitution2: "'subs' Subscript lookup 22 subtable" uni208E
AlternateSubs2: "'aalt' Access All Alternates lookup 1 subtable" uni208E uni207E parenright.sc
EndChar

StartChar: asterisk
Encoding: 42 42 13
Width: 563
Flags: HW
LayerCount: 2
Fore
SplineSet
414 339 m 1
 365 477 l 1
 269 339 l 1
 185 399 l 1
 303 521 l 1
 163 538 l 1
 206 645 l 1
 345 602 l 1
 359 758 l 1
 476 758 l 1
 432 602 l 1
 586 646 l 1
 591 537 l 1
 446 521 l 1
 521 400 l 1
 414 339 l 1
EndSplineSet
EndChar

StartChar: plus
Encoding: 43 43 14
Width: 563
Flags: HW
LayerCount: 2
Fore
SplineSet
251 116 m 1
 283 301 l 1
 116 301 l 1
 135 405 l 1
 302 405 l 1
 335 592 l 1
 440 592 l 1
 407 405 l 1
 573 405 l 1
 554 301 l 1
 388 301 l 1
 356 116 l 1
 251 116 l 1
EndSplineSet
Substitution2: "'sups' Superscript lookup 23 subtable" uni207A
Substitution2: "'subs' Subscript lookup 22 subtable" uni208A
AlternateSubs2: "'aalt' Access All Alternates lookup 1 subtable" uni208A uni207A
EndChar

StartChar: comma
Encoding: 44 44 15
Width: 563
Flags: HW
LayerCount: 2
Fore
SplineSet
157 -148 m 1
 192 -65 233 59 256 134 c 1
 387 134 l 1
 393 123 l 1
 362 45 314 -65 261 -148 c 1
 157 -148 l 1
EndSplineSet
EndChar

StartChar: hyphen
Encoding: 45 45 16
Width: 563
Flags: HW
LayerCount: 2
Fore
SplineSet
178 205 m 1
 199 330 l 1
 481 330 l 1
 460 205 l 1
 178 205 l 1
EndSplineSet
EndChar

StartChar: period
Encoding: 46 46 17
Width: 563
Flags: HW
LayerCount: 2
Fore
SplineSet
280 -10 m 0
 226 -10 201 20 210 74 c 0
 220 130 255 159 310 159 c 0
 363 159 388 129 378 74 c 0
 369 21 332 -10 280 -10 c 0
EndSplineSet
EndChar

StartChar: slash
Encoding: 47 47 18
Width: 563
Flags: HW
LayerCount: 2
Fore
SplineSet
84 -5 m 1
 487 719 l 1
 606 719 l 1
 204 -5 l 1
 84 -5 l 1
EndSplineSet
Substitution2: "'frac' Diagonal Fractions lookup 26 subtable" fraction
Substitution2: "'aalt' Access All Alternates lookup 0 subtable" fraction
EndChar

StartChar: zero
Encoding: 48 48 19
Width: 563
Flags: HW
LayerCount: 2
Fore
SplineSet
285 -10 m 0
 129 -10 77 111 121 360 c 0
 164 602 258 724 413 724 c 0
 570 724 621 596 578 354 c 0
 540 139 456 -10 285 -10 c 0
254 354 m 0
 251 333 248 314 246 296 c 1
 449 563 l 1
 440 591 422 606 393 606 c 0
 323 606 283 520 254 354 c 0
303 105 m 0
 374 105 412 186 441 353 c 0
 445 378 448 402 451 425 c 1
 244 155 l 1
 253 122 271 105 303 105 c 0
EndSplineSet
Substitution2: "'zero' Slashed Zero lookup 37 subtable" zero.slash
Substitution2: "'onum' Oldstyle Figures lookup 33 subtable" zero.osf
Substitution2: "'frac' Diagonal Fractions lookup 27 subtable" zero.numr
Substitution2: "'dnom' Denominators lookup 25 subtable" zero.dnom
Substitution2: "'numr' Numerators lookup 24 subtable" zero.numr
Substitution2: "'sups' Superscript lookup 23 subtable" uni2070
Substitution2: "'subs' Subscript lookup 22 subtable" uni2080
AlternateSubs2: "'aalt' Access All Alternates lookup 1 subtable" uni2070 zero.osf zero.dnom zero.numr uni2080
EndChar

StartChar: one
Encoding: 49 49 20
Width: 563
Flags: HW
LayerCount: 2
Fore
SplineSet
99 0 m 1
 117 100 l 1
 255 113 l 1
 308 416 l 2
 319 476 329 520 341 567 c 1
 318 551 294 540 273 530 c 2
 195 491 l 1
 154 602 l 1
 380 714 l 1
 501 714 l 1
 394 114 l 1
 524 100 l 1
 506 0 l 1
 99 0 l 1
EndSplineSet
Substitution2: "'onum' Oldstyle Figures lookup 33 subtable" one.osf
Substitution2: "'frac' Diagonal Fractions lookup 27 subtable" one.numr
Substitution2: "'dnom' Denominators lookup 25 subtable" one.dnom
Substitution2: "'numr' Numerators lookup 24 subtable" one.numr
Substitution2: "'sups' Superscript lookup 23 subtable" uni00B9
Substitution2: "'subs' Subscript lookup 22 subtable" uni2081
AlternateSubs2: "'aalt' Access All Alternates lookup 1 subtable" uni00B9 one.osf one.dnom one.numr uni2081
EndChar

StartChar: two
Encoding: 50 50 21
Width: 563
Flags: HW
LayerCount: 2
Fore
SplineSet
59 0 m 1
 77 100 l 1
 270 281 l 2
 372 379 435 439 447 511 c 0
 458 570 432 604 378 604 c 0
 331 604 286 582 227 534 c 1
 169 626 l 1
 251 693 316 724 412 724 c 0
 546 724 614 645 593 526 c 0
 573 412 484 328 367 227 c 2
 255 127 l 1
 253 119 l 1
 536 119 l 1
 515 0 l 1
 59 0 l 1
EndSplineSet
Substitution2: "'onum' Oldstyle Figures lookup 33 subtable" two.osf
Substitution2: "'frac' Diagonal Fractions lookup 27 subtable" two.numr
Substitution2: "'dnom' Denominators lookup 25 subtable" two.dnom
Substitution2: "'numr' Numerators lookup 24 subtable" two.numr
Substitution2: "'sups' Superscript lookup 23 subtable" uni00B2
Substitution2: "'subs' Subscript lookup 22 subtable" uni2082
AlternateSubs2: "'aalt' Access All Alternates lookup 1 subtable" uni00B2 two.osf two.dnom two.numr uni2082
EndChar

StartChar: three
Encoding: 51 51 22
Width: 563
Flags: HW
LayerCount: 2
Fore
SplineSet
251 -10 m 0
 188 -10 126 3 73 27 c 1
 95 152 l 1
 145 124 208 107 261 107 c 0
 342 107 387 145 399 211 c 0
 412 282 373 311 266 311 c 2
 219 311 l 1
 239 423 l 1
 287 423 l 2
 382 423 433 460 445 524 c 0
 453 572 435 606 374 606 c 0
 333 606 287 590 226 556 c 1
 183 655 l 1
 251 699 329 724 407 724 c 0
 523 724 604 669 583 552 c 0
 568 465 507 400 420 376 c 1
 419 373 l 1
 519 356 556 298 539 204 c 0
 514 61 398 -10 251 -10 c 0
EndSplineSet
Substitution2: "'onum' Oldstyle Figures lookup 33 subtable" three.osf
Substitution2: "'frac' Diagonal Fractions lookup 27 subtable" three.numr
Substitution2: "'dnom' Denominators lookup 25 subtable" three.dnom
Substitution2: "'numr' Numerators lookup 24 subtable" three.numr
Substitution2: "'sups' Superscript lookup 23 subtable" uni00B3
Substitution2: "'subs' Subscript lookup 22 subtable" uni2083
AlternateSubs2: "'aalt' Access All Alternates lookup 1 subtable" uni00B3 three.osf three.dnom three.numr uni2083
EndChar

StartChar: four
Encoding: 52 52 23
Width: 563
Flags: HW
LayerCount: 2
Fore
SplineSet
309 0 m 1
 335 148 l 1
 62 148 l 1
 80 251 l 1
 437 715 l 1
 569 715 l 1
 488 260 l 1
 573 260 l 1
 553 148 l 1
 468 148 l 1
 442 0 l 1
 309 0 l 1
204 260 m 1
 355 260 l 1
 381 404 l 2
 387 437 405 518 411 540 c 1
 407 540 l 1
 390 513 373 488 353 462 c 2
 204 260 l 1
EndSplineSet
Substitution2: "'onum' Oldstyle Figures lookup 33 subtable" four.osf
Substitution2: "'frac' Diagonal Fractions lookup 27 subtable" four.numr
Substitution2: "'dnom' Denominators lookup 25 subtable" four.dnom
Substitution2: "'numr' Numerators lookup 24 subtable" four.numr
Substitution2: "'sups' Superscript lookup 23 subtable" uni2074
Substitution2: "'subs' Subscript lookup 22 subtable" uni2084
AlternateSubs2: "'aalt' Access All Alternates lookup 1 subtable" uni2074 four.osf four.dnom four.numr uni2084
EndChar

StartChar: five
Encoding: 53 53 24
Width: 563
Flags: HW
LayerCount: 2
Fore
SplineSet
236 -10 m 0
 177 -10 120 2 78 27 c 1
 100 152 l 1
 147 125 204 110 256 110 c 0
 331 110 377 151 390 225 c 0
 404 307 361 341 296 341 c 0
 262 341 225 335 196 324 c 1
 147 355 l 1
 236 714 l 1
 582 714 l 1
 560 594 l 1
 336 594 l 1
 299 446 l 1
 330 452 356 454 375 454 c 0
 491 454 559 371 535 233 c 0
 507 75 389 -10 236 -10 c 0
EndSplineSet
Substitution2: "'onum' Oldstyle Figures lookup 33 subtable" five.osf
Substitution2: "'frac' Diagonal Fractions lookup 27 subtable" five.numr
Substitution2: "'dnom' Denominators lookup 25 subtable" five.dnom
Substitution2: "'numr' Numerators lookup 24 subtable" five.numr
Substitution2: "'sups' Superscript lookup 23 subtable" uni2075
Substitution2: "'subs' Subscript lookup 22 subtable" uni2085
AlternateSubs2: "'aalt' Access All Alternates lookup 1 subtable" uni2075 five.osf five.dnom five.numr uni2085
EndChar

StartChar: six
Encoding: 54 54 25
Width: 563
Flags: HW
LayerCount: 2
Fore
SplineSet
289 -11 m 0
 145 -11 75 105 113 318 c 0
 158 570 280 723 508 723 c 0
 537 723 568 720 592 715 c 1
 571 598 l 1
 544 605 517 609 487 609 c 0
 364 609 292 534 256 382 c 1
 261 382 l 1
 298 436 349 464 413 464 c 0
 530 464 575 374 551 237 c 0
 524 87 428 -11 289 -11 c 0
307 110 m 0
 359 110 398 151 413 235 c 0
 426 309 407 351 353 351 c 0
 301 351 253 306 241 238 c 0
 228 168 249 110 307 110 c 0
EndSplineSet
Substitution2: "'onum' Oldstyle Figures lookup 33 subtable" six.osf
Substitution2: "'frac' Diagonal Fractions lookup 27 subtable" six.numr
Substitution2: "'dnom' Denominators lookup 25 subtable" six.dnom
Substitution2: "'numr' Numerators lookup 24 subtable" six.numr
Substitution2: "'sups' Superscript lookup 23 subtable" uni2076
Substitution2: "'subs' Subscript lookup 22 subtable" uni2086
AlternateSubs2: "'aalt' Access All Alternates lookup 1 subtable" uni2076 six.osf six.dnom six.numr uni2086
EndChar

StartChar: seven
Encoding: 55 55 26
Width: 563
Flags: HW
LayerCount: 2
Fore
SplineSet
121 0 m 1
 472 594 l 1
 160 594 l 1
 182 713 l 1
 643 713 l 1
 626 621 l 1
 269 0 l 1
 121 0 l 1
EndSplineSet
Substitution2: "'onum' Oldstyle Figures lookup 33 subtable" seven.osf
Substitution2: "'frac' Diagonal Fractions lookup 27 subtable" seven.numr
Substitution2: "'dnom' Denominators lookup 25 subtable" seven.dnom
Substitution2: "'numr' Numerators lookup 24 subtable" seven.numr
Substitution2: "'sups' Superscript lookup 23 subtable" uni2077
Substitution2: "'subs' Subscript lookup 22 subtable" uni2087
AlternateSubs2: "'aalt' Access All Alternates lookup 1 subtable" uni2077 seven.osf seven.dnom seven.numr uni2087
EndChar

StartChar: eight
Encoding: 56 56 27
Width: 563
Flags: HW
LayerCount: 2
Fore
SplineSet
283 -10 m 0
 148 -10 68 54 91 181 c 0
 105 263 154 325 247 373 c 1
 184 424 165 482 178 553 c 0
 197 663 298 723 414 723 c 0
 532 723 608 664 588 552 c 0
 575 477 531 421 444 376 c 1
 527 320 556 261 543 185 c 0
 521 61 411 -10 283 -10 c 0
363 439 m 1
 422 470 445 500 453 541 c 0
 460 584 436 611 393 611 c 0
 351 611 316 584 309 541 c 0
 301 495 323 466 363 439 c 1
301 102 m 0
 364 102 402 136 411 187 c 0
 419 234 395 268 333 311 c 1
 268 277 234 238 225 188 c 0
 216 135 244 102 301 102 c 0
EndSplineSet
Substitution2: "'onum' Oldstyle Figures lookup 33 subtable" eight.osf
Substitution2: "'frac' Diagonal Fractions lookup 27 subtable" eight.numr
Substitution2: "'dnom' Denominators lookup 25 subtable" eight.dnom
Substitution2: "'numr' Numerators lookup 24 subtable" eight.numr
Substitution2: "'sups' Superscript lookup 23 subtable" uni2078
Substitution2: "'subs' Subscript lookup 22 subtable" uni2088
AlternateSubs2: "'aalt' Access All Alternates lookup 1 subtable" uni2078 eight.osf eight.dnom eight.numr uni2088
EndChar

StartChar: nine
Encoding: 57 57 28
Width: 563
Flags: HW
LayerCount: 2
Fore
SplineSet
185 -10 m 0
 156 -10 124 -7 101 -2 c 1
 121 115 l 1
 146 107 174 104 205 104 c 0
 338 104 404 191 437 331 c 1
 432 331 l 1
 395 278 345 250 281 250 c 0
 164 250 118 339 142 476 c 0
 169 627 267 725 407 725 c 0
 550 725 619 609 582 402 c 0
 536 141 412 -10 185 -10 c 0
341 363 m 0
 396 363 442 411 453 474 c 0
 464 537 448 604 387 604 c 0
 334 604 297 562 282 478 c 0
 269 404 287 363 341 363 c 0
EndSplineSet
Substitution2: "'onum' Oldstyle Figures lookup 33 subtable" nine.osf
Substitution2: "'frac' Diagonal Fractions lookup 27 subtable" nine.numr
Substitution2: "'dnom' Denominators lookup 25 subtable" nine.dnom
Substitution2: "'numr' Numerators lookup 24 subtable" nine.numr
Substitution2: "'sups' Superscript lookup 23 subtable" uni2079
Substitution2: "'subs' Subscript lookup 22 subtable" uni2089
AlternateSubs2: "'aalt' Access All Alternates lookup 1 subtable" uni2079 nine.osf nine.dnom nine.numr uni2089
EndChar

StartChar: colon
Encoding: 58 58 29
Width: 563
Flags: HW
LayerCount: 2
Fore
SplineSet
351 384 m 0
 297 384 272 415 281 469 c 0
 291 525 326 554 381 554 c 0
 434 554 458 523 449 469 c 0
 440 416 403 384 351 384 c 0
280 -10 m 0
 226 -10 201 20 210 74 c 0
 220 130 255 159 310 159 c 0
 363 159 388 129 378 74 c 0
 369 21 332 -10 280 -10 c 0
EndSplineSet
EndChar

StartChar: semicolon
Encoding: 59 59 30
Width: 563
Flags: HW
LayerCount: 2
Fore
SplineSet
368 384 m 0
 315 384 290 415 299 469 c 0
 309 525 343 554 398 554 c 0
 452 554 476 523 467 469 c 0
 458 416 420 384 368 384 c 0
157 -148 m 1
 192 -64 232 58 256 134 c 1
 387 134 l 1
 393 123 l 1
 362 45 313 -65 261 -148 c 1
 157 -148 l 1
EndSplineSet
EndChar

StartChar: less
Encoding: 60 60 31
Width: 563
Flags: HW
LayerCount: 2
Fore
SplineSet
509 114 m 1
 125 321 l 1
 137 390 l 1
 597 605 l 1
 576 489 l 1
 280 357 l 1
 530 229 l 1
 509 114 l 1
EndSplineSet
EndChar

StartChar: equal
Encoding: 61 61 32
Width: 563
Flags: HW
LayerCount: 2
Fore
SplineSet
132 389 m 1
 153 509 l 1
 591 509 l 1
 570 389 l 1
 132 389 l 1
94 176 m 1
 116 296 l 1
 554 296 l 1
 532 176 l 1
 94 176 l 1
EndSplineSet
Substitution2: "'sups' Superscript lookup 23 subtable" uni207C
Substitution2: "'subs' Subscript lookup 22 subtable" uni208C
AlternateSubs2: "'aalt' Access All Alternates lookup 1 subtable" uni208C uni207C
EndChar

StartChar: greater
Encoding: 62 62 33
Width: 563
Flags: HW
LayerCount: 2
Fore
SplineSet
91 114 m 1
 112 229 l 1
 408 357 l 1
 158 489 l 1
 179 605 l 1
 561 390 l 1
 549 321 l 1
 91 114 l 1
EndSplineSet
EndChar

StartChar: question
Encoding: 63 63 34
Width: 563
Flags: HW
LayerCount: 2
Fore
SplineSet
244 269 m 2
 257 338 287 377 353 424 c 0
 409 464 438 493 446 540 c 0
 454 585 429 608 380 608 c 0
 337 608 290 592 228 562 c 1
 198 664 l 1
 274 704 341 724 412 724 c 0
 530 724 601 662 581 549 c 0
 566 463 525 423 444 364 c 0
 388 323 369 305 361 260 c 2
 357 233 l 1
 238 233 l 1
 244 269 l 2
255 -10 m 0
 202 -10 176 20 185 74 c 0
 195 130 230 159 285 159 c 0
 338 159 364 129 354 74 c 0
 345 21 307 -10 255 -10 c 0
EndSplineSet
Substitution2: "'smcp' Lowercase to Small Capitals lookup 35 subtable" question.sc
Substitution2: "'c2sc' Capitals to Small Capitals lookup 34 subtable" question.sc
Substitution2: "'aalt' Access All Alternates lookup 0 subtable" question.sc
EndChar

StartChar: at
Encoding: 64 64 35
Width: 563
Flags: HW
LayerCount: 2
Fore
SplineSet
279 -89 m 0
 92 -89 9 52 50 282 c 0
 94 529 240 714 434 714 c 0
 590 714 666 575 628 365 c 0
 603 222 534 108 448 108 c 0
 405 108 386 133 379 165 c 1
 377 165 l 1
 354 135 322 108 279 108 c 0
 204 108 177 183 198 299 c 0
 221 429 298 520 398 520 c 0
 440 520 479 506 510 493 c 1
 464 296 l 2
 461 286 460 277 457 265 c 0
 448 211 452 193 467 193 c 0
 490 193 516 266 534 363 c 0
 566 540 520 636 420 636 c 0
 288 636 181 493 145 289 c 0
 112 99 161 -10 291 -10 c 0
 346 -10 407 6 463 31 c 1
 449 -49 l 1
 397 -75 342 -89 279 -89 c 0
307 193 m 0
 338 193 358 242 378 326 c 2
 401 429 l 1
 396 432 387 435 379 435 c 0
 333 435 302 372 289 297 c 0
 276 226 282 193 307 193 c 0
EndSplineSet
EndChar

StartChar: A
Encoding: 65 65 36
Width: 563
GlyphClass: 2
Flags: HW
AnchorPoint: "Anchor-2" 670 714 basechar 0
AnchorPoint: "Anchor-1" 409 714 basechar 0
AnchorPoint: "Anchor-0" 282 0 basechar 0
LayerCount: 2
Fore
SplineSet
10 0 m 1
 316 717 l 1
 500 717 l 1
 553 0 l 1
 414 0 l 1
 406 176 l 1
 218 176 l 1
 148 0 l 1
 10 0 l 1
338 473 m 2
 267 295 l 1
 402 295 l 1
 394 472 l 2
 391 515 391 563 390 606 c 1
 375 563 355 513 338 473 c 2
EndSplineSet
Substitution2: "'c2sc' Capitals to Small Capitals lookup 34 subtable" a.sc
Substitution2: "Single Substitution lookup 32 subtable" ordfeminine
AlternateSubs2: "'aalt' Access All Alternates lookup 1 subtable" ordfeminine a.sc
EndChar

StartChar: B
Encoding: 66 66 37
Width: 563
GlyphClass: 2
Flags: HW
AnchorPoint: "Anchor-2" 670 714 basechar 0
AnchorPoint: "Anchor-1" 409 714 basechar 0
AnchorPoint: "Anchor-0" 282 0 basechar 0
LayerCount: 2
Fore
SplineSet
71 0 m 1
 198 714 l 1
 406 714 l 2
 558 714 629 660 607 538 c 0
 592 452 543 394 477 379 c 1
 475 374 l 1
 546 357 581 305 563 208 c 0
 540 77 443 0 305 0 c 2
 71 0 l 1
355 431 m 2
 420 431 452 459 462 515 c 0
 472 571 447 598 380 598 c 2
 308 598 l 1
 279 431 l 1
 355 431 l 2
310 119 m 2
 376 119 409 155 420 216 c 0
 431 278 409 309 339 309 c 2
 257 309 l 1
 223 119 l 1
 310 119 l 2
EndSplineSet
Substitution2: "'c2sc' Capitals to Small Capitals lookup 34 subtable" b.sc
Substitution2: "'aalt' Access All Alternates lookup 0 subtable" b.sc
EndChar

StartChar: C
Encoding: 67 67 38
Width: 563
GlyphClass: 2
Flags: HW
AnchorPoint: "Anchor-2" 670 714 basechar 0
AnchorPoint: "Anchor-1" 464 714 basechar 0
AnchorPoint: "Anchor-0" 322 0 basechar 0
LayerCount: 2
Fore
SplineSet
334 -12 m 0
 139 -12 68 126 107 347 c 0
 147 575 286 725 490 725 c 0
 555 725 604 710 652 682 c 1
 587 567 l 1
 546 590 509 600 469 600 c 0
 343 600 275 498 249 351 c 0
 221 190 263 113 379 113 c 0
 426 113 469 124 530 151 c 1
 507 24 l 1
 452 0 392 -12 334 -12 c 0
EndSplineSet
Substitution2: "'c2sc' Capitals to Small Capitals lookup 34 subtable" c.sc
Substitution2: "'aalt' Access All Alternates lookup 0 subtable" c.sc
EndChar

StartChar: D
Encoding: 68 68 39
Width: 563
GlyphClass: 2
Flags: HW
AnchorPoint: "Anchor-3" 350 357 basechar 0
AnchorPoint: "Anchor-2" 690 714 basechar 0
AnchorPoint: "Anchor-1" 398 714 basechar 0
AnchorPoint: "Anchor-0" 238 0 basechar 0
LayerCount: 2
Fore
SplineSet
41 0 m 1
 168 714 l 1
 376 714 l 2
 555 714 642 594 602 366 c 0
 560 130 425 0 238 0 c 2
 41 0 l 1
252 122 m 2
 365 122 430 200 459 363 c 0
 487 523 448 592 345 592 c 2
 284 592 l 1
 201 122 l 1
 252 122 l 2
EndSplineSet
Substitution2: "'c2sc' Capitals to Small Capitals lookup 34 subtable" d.sc
Substitution2: "'aalt' Access All Alternates lookup 0 subtable" d.sc
EndChar

StartChar: E
Encoding: 69 69 40
Width: 563
GlyphClass: 2
Flags: HW
AnchorPoint: "Anchor-2" 670 714 basechar 0
AnchorPoint: "Anchor-1" 414 714 basechar 0
AnchorPoint: "Anchor-0" 286 0 basechar 0
LayerCount: 2
Fore
SplineSet
71 0 m 1
 198 714 l 1
 628 714 l 1
 606 591 l 1
 311 591 l 1
 282 429 l 1
 561 429 l 1
 539 306 l 1
 260 306 l 1
 228 123 l 1
 523 123 l 1
 501 0 l 1
 71 0 l 1
EndSplineSet
Substitution2: "'c2sc' Capitals to Small Capitals lookup 34 subtable" e.sc
Substitution2: "'aalt' Access All Alternates lookup 0 subtable" e.sc
EndChar

StartChar: F
Encoding: 70 70 41
Width: 563
GlyphClass: 2
Flags: HW
AnchorPoint: "Anchor-2" 670 714 basechar 0
AnchorPoint: "Anchor-1" 419 714 basechar 0
AnchorPoint: "Anchor-0" 292 0 basechar 0
LayerCount: 2
Fore
SplineSet
71 0 m 1
 198 714 l 1
 628 714 l 1
 606 591 l 1
 311 591 l 1
 277 400 l 1
 556 400 l 1
 534 277 l 1
 255 277 l 1
 206 0 l 1
 71 0 l 1
EndSplineSet
Substitution2: "'c2sc' Capitals to Small Capitals lookup 34 subtable" f.sc
Substitution2: "'aalt' Access All Alternates lookup 0 subtable" f.sc
EndChar

StartChar: G
Encoding: 71 71 42
Width: 563
GlyphClass: 2
Flags: HW
AnchorPoint: "Anchor-2" 670 714 basechar 0
AnchorPoint: "Anchor-1" 437 714 basechar 0
AnchorPoint: "Anchor-0" 315 0 basechar 0
LayerCount: 2
Fore
SplineSet
324 -10 m 0
 116 -10 50 130 88 348 c 0
 131 586 264 724 461 724 c 0
 528 724 589 708 639 680 c 1
 574 565 l 1
 538 591 495 601 454 601 c 0
 331 601 257 511 229 353 c 0
 204 210 235 112 342 112 c 0
 369 112 395 117 419 122 c 1
 447 283 l 1
 353 283 l 1
 374 402 l 1
 593 402 l 1
 527 30 l 1
 455 1 396 -10 324 -10 c 0
EndSplineSet
Substitution2: "'c2sc' Capitals to Small Capitals lookup 34 subtable" g.sc
Substitution2: "'aalt' Access All Alternates lookup 0 subtable" g.sc
EndChar

StartChar: H
Encoding: 72 72 43
Width: 563
GlyphClass: 2
Flags: HW
AnchorPoint: "Anchor-3" 348 372 basechar 0
AnchorPoint: "Anchor-2" 690 714 basechar 0
AnchorPoint: "Anchor-1" 409 714 basechar 0
AnchorPoint: "Anchor-0" 282 0 basechar 0
LayerCount: 2
Fore
SplineSet
41 0 m 1
 168 714 l 1
 307 714 l 1
 257 434 l 1
 460 434 l 1
 510 714 l 1
 649 714 l 1
 522 0 l 1
 383 0 l 1
 438 309 l 1
 235 309 l 1
 180 0 l 1
 41 0 l 1
EndSplineSet
Substitution2: "'c2sc' Capitals to Small Capitals lookup 34 subtable" h.sc
Substitution2: "'aalt' Access All Alternates lookup 0 subtable" h.sc
EndChar

StartChar: I
Encoding: 73 73 44
Width: 563
GlyphClass: 2
Flags: HW
AnchorPoint: "Anchor-2" 670 714 basechar 0
AnchorPoint: "Anchor-1" 409 714 basechar 0
AnchorPoint: "Anchor-0" 282 0 basechar 0
LayerCount: 2
Fore
SplineSet
79 0 m 1
 97 100 l 1
 234 115 l 1
 321 600 l 1
 189 614 l 1
 206 714 l 1
 611 714 l 1
 594 614 l 1
 454 600 l 1
 367 115 l 1
 502 100 l 1
 484 0 l 1
 79 0 l 1
EndSplineSet
Substitution2: "'c2sc' Capitals to Small Capitals lookup 34 subtable" i.sc
Substitution2: "'aalt' Access All Alternates lookup 0 subtable" i.sc
EndChar

StartChar: J
Encoding: 74 74 45
Width: 563
GlyphClass: 2
Flags: HW
AnchorPoint: "Anchor-2" 670 714 basechar 0
AnchorPoint: "Anchor-1" 518 714 basechar 0
AnchorPoint: "Anchor-0" 282 0 basechar 0
LayerCount: 2
Fore
SplineSet
214 -10 m 0
 169 -10 118 -4 72 11 c 1
 93 133 l 1
 146 117 192 112 225 112 c 0
 312 112 351 153 368 248 c 2
 451 714 l 1
 588 714 l 1
 504 240 l 2
 476 78 386 -10 214 -10 c 0
EndSplineSet
Substitution2: "'c2sc' Capitals to Small Capitals lookup 34 subtable" j.sc
Substitution2: "'aalt' Access All Alternates lookup 0 subtable" j.sc
EndChar

StartChar: K
Encoding: 75 75 46
Width: 563
GlyphClass: 2
Flags: HW
AnchorPoint: "Anchor-2" 670 714 basechar 0
AnchorPoint: "Anchor-1" 409 714 basechar 0
AnchorPoint: "Anchor-0" 289 0 basechar 0
LayerCount: 2
Fore
SplineSet
41 0 m 1
 168 714 l 1
 305 714 l 1
 244 374 l 1
 269 412 290 441 320 477 c 2
 512 714 l 1
 666 714 l 1
 402 394 l 1
 536 0 l 1
 380 0 l 1
 285 291 l 1
 221 238 l 1
 178 0 l 1
 41 0 l 1
EndSplineSet
Substitution2: "'c2sc' Capitals to Small Capitals lookup 34 subtable" k.sc
Substitution2: "'aalt' Access All Alternates lookup 0 subtable" k.sc
EndChar

StartChar: L
Encoding: 76 76 47
Width: 563
GlyphClass: 2
Flags: HW
AnchorPoint: "Anchor-3" 346 357 basechar 0
AnchorPoint: "Anchor-2" 550 714 basechar 0
AnchorPoint: "Anchor-1" 276 714 basechar 0
AnchorPoint: "Anchor-0" 308 0 basechar 0
LayerCount: 2
Fore
SplineSet
81 0 m 1
 208 714 l 1
 347 714 l 1
 242 124 l 1
 523 124 l 1
 501 0 l 1
 81 0 l 1
EndSplineSet
Substitution2: "'c2sc' Capitals to Small Capitals lookup 34 subtable" l.sc
Substitution2: "'aalt' Access All Alternates lookup 0 subtable" l.sc
EndChar

StartChar: M
Encoding: 77 77 48
Width: 563
GlyphClass: 2
Flags: HW
AnchorPoint: "Anchor-2" 690 714 basechar 0
AnchorPoint: "Anchor-1" 410 714 basechar 0
AnchorPoint: "Anchor-0" 282 0 basechar 0
LayerCount: 2
Fore
SplineSet
33 0 m 1
 160 714 l 1
 355 714 l 1
 333 310 l 1
 338 310 l 1
 467 714 l 1
 657 714 l 1
 530 0 l 1
 404 0 l 1
 435 173 l 2
 458 304 521 552 530 590 c 1
 523 590 l 1
 381 172 l 1
 244 172 l 1
 244 590 l 1
 238 590 l 1
 234 547 212 306 187 165 c 2
 158 0 l 1
 33 0 l 1
EndSplineSet
Substitution2: "'c2sc' Capitals to Small Capitals lookup 34 subtable" m.sc
Substitution2: "'aalt' Access All Alternates lookup 0 subtable" m.sc
EndChar

StartChar: N
Encoding: 78 78 49
Width: 563
GlyphClass: 2
Flags: HW
AnchorPoint: "Anchor-2" 690 714 basechar 0
AnchorPoint: "Anchor-1" 414 714 basechar 0
AnchorPoint: "Anchor-0" 282 0 basechar 0
LayerCount: 2
Fore
SplineSet
41 0 m 1
 168 714 l 1
 365 714 l 1
 425 137 l 1
 430 137 l 1
 439 221 453 332 462 382 c 2
 521 714 l 1
 649 714 l 1
 522 0 l 1
 327 0 l 1
 266 581 l 1
 261 581 l 1
 252 494 239 399 232 355 c 2
 169 0 l 1
 41 0 l 1
EndSplineSet
Substitution2: "'c2sc' Capitals to Small Capitals lookup 34 subtable" n.sc
Substitution2: "'aalt' Access All Alternates lookup 0 subtable" n.sc
EndChar

StartChar: O
Encoding: 79 79 50
Width: 563
GlyphClass: 2
Flags: HW
AnchorPoint: "Anchor-3" 346 357 basechar 0
AnchorPoint: "Anchor-2" 690 714 basechar 0
AnchorPoint: "Anchor-1" 409 714 basechar 0
AnchorPoint: "Anchor-0" 282 0 basechar 0
LayerCount: 2
Fore
SplineSet
280 -9 m 0
 104 -9 49 131 89 358 c 0
 131 593 238 726 411 726 c 0
 586 726 641 587 600 358 c 0
 560 130 455 -9 280 -9 c 0
302 113 m 0
 381 113 429 196 458 359 c 0
 486 521 469 604 389 604 c 0
 309 604 259 518 231 358 c 0
 203 198 221 113 302 113 c 0
EndSplineSet
Substitution2: "'c2sc' Capitals to Small Capitals lookup 34 subtable" o.sc
Substitution2: "Single Substitution lookup 32 subtable" ordmasculine
AlternateSubs2: "'aalt' Access All Alternates lookup 1 subtable" ordmasculine o.sc
EndChar

StartChar: P
Encoding: 80 80 51
Width: 563
GlyphClass: 2
Flags: HW
AnchorPoint: "Anchor-2" 690 714 basechar 0
AnchorPoint: "Anchor-1" 409 714 basechar 0
AnchorPoint: "Anchor-0" 282 0 basechar 0
LayerCount: 2
Fore
SplineSet
71 0 m 1
 198 714 l 1
 420 714 l 2
 577 714 639 635 614 492 c 0
 589 349 498 254 330 254 c 2
 251 254 l 1
 206 0 l 1
 71 0 l 1
337 376 m 2
 413 376 461 412 474 488 c 0
 486 560 458 593 390 593 c 2
 311 593 l 1
 273 376 l 1
 337 376 l 2
EndSplineSet
Substitution2: "'c2sc' Capitals to Small Capitals lookup 34 subtable" p.sc
Substitution2: "'aalt' Access All Alternates lookup 0 subtable" p.sc
EndChar

StartChar: Q
Encoding: 81 81 52
Width: 563
GlyphClass: 2
Flags: HW
AnchorPoint: "Anchor-3" 346 357 basechar 0
AnchorPoint: "Anchor-2" 690 714 basechar 0
AnchorPoint: "Anchor-1" 409 714 basechar 0
AnchorPoint: "Anchor-0" 243 -220 basechar 0
LayerCount: 2
Fore
SplineSet
280 -9 m 0
 104 -9 49 131 89 358 c 0
 131 593 238 726 411 726 c 0
 586 726 641 587 600 358 c 0
 572 203 516 90 428 32 c 1
 493 -180 l 1
 343 -180 l 1
 299 -9 l 1
 292 -9 286 -9 280 -9 c 0
302 113 m 0
 381 113 429 196 458 359 c 0
 486 521 469 604 389 604 c 0
 309 604 259 518 231 358 c 0
 203 198 221 113 302 113 c 0
EndSplineSet
Substitution2: "'c2sc' Capitals to Small Capitals lookup 34 subtable" q.sc
Substitution2: "'aalt' Access All Alternates lookup 0 subtable" q.sc
EndChar

StartChar: R
Encoding: 82 82 53
Width: 563
GlyphClass: 2
Flags: HW
AnchorPoint: "Anchor-2" 670 714 basechar 0
AnchorPoint: "Anchor-1" 409 714 basechar 0
AnchorPoint: "Anchor-0" 303 0 basechar 0
LayerCount: 2
Fore
SplineSet
71 0 m 1
 198 714 l 1
 385 714 l 2
 549 714 621 638 597 503 c 0
 580 408 527 342 445 304 c 1
 550 0 l 1
 401 0 l 1
 318 271 l 1
 259 271 l 1
 210 0 l 1
 71 0 l 1
324 392 m 2
 398 392 442 426 455 495 c 0
 468 565 433 594 359 594 c 2
 315 594 l 1
 279 392 l 1
 324 392 l 2
EndSplineSet
Substitution2: "'c2sc' Capitals to Small Capitals lookup 34 subtable" r.sc
Substitution2: "'aalt' Access All Alternates lookup 0 subtable" r.sc
EndChar

StartChar: S
Encoding: 83 83 54
Width: 563
GlyphClass: 2
Flags: HW
AnchorPoint: "Anchor-2" 670 714 basechar 0
AnchorPoint: "Anchor-1" 421 714 basechar 0
AnchorPoint: "Anchor-0" 282 0 basechar 0
LayerCount: 2
Fore
SplineSet
253 -10 m 0
 186 -10 122 4 68 32 c 1
 91 165 l 1
 154 130 212 110 276 110 c 0
 346 110 393 134 403 192 c 0
 414 253 368 270 288 317 c 0
 210 363 143 414 164 530 c 0
 187 655 288 724 431 724 c 0
 488 724 557 713 620 679 c 1
 555 565 l 1
 500 593 454 604 414 604 c 0
 350 604 314 577 306 528 c 0
 295 469 334 453 413 409 c 0
 513 353 567 310 548 201 c 0
 524 66 411 -10 253 -10 c 0
EndSplineSet
Substitution2: "'c2sc' Capitals to Small Capitals lookup 34 subtable" s.sc
Substitution2: "'aalt' Access All Alternates lookup 0 subtable" s.sc
EndChar

StartChar: T
Encoding: 84 84 55
Width: 563
GlyphClass: 2
Flags: HW
AnchorPoint: "Anchor-3" 346 357 basechar 0
AnchorPoint: "Anchor-2" 670 714 basechar 0
AnchorPoint: "Anchor-1" 409 714 basechar 0
AnchorPoint: "Anchor-0" 282 0 basechar 0
LayerCount: 2
Fore
SplineSet
212 0 m 1
 317 591 l 1
 133 591 l 1
 155 714 l 1
 662 714 l 1
 640 591 l 1
 456 591 l 1
 351 0 l 1
 212 0 l 1
EndSplineSet
Substitution2: "'c2sc' Capitals to Small Capitals lookup 34 subtable" t.sc
Substitution2: "'aalt' Access All Alternates lookup 0 subtable" t.sc
EndChar

StartChar: U
Encoding: 85 85 56
Width: 563
GlyphClass: 2
Flags: HW
AnchorPoint: "Anchor-2" 670 714 basechar 0
AnchorPoint: "Anchor-1" 409 714 basechar 0
AnchorPoint: "Anchor-0" 282 0 basechar 0
LayerCount: 2
Fore
SplineSet
277 -10 m 0
 122 -10 54 77 82 231 c 2
 168 714 l 1
 307 714 l 1
 225 255 l 2
 207 152 233 112 301 112 c 0
 373 112 410 153 428 256 c 2
 510 714 l 1
 649 714 l 1
 563 229 l 2
 537 82 439 -10 277 -10 c 0
EndSplineSet
Substitution2: "'c2sc' Capitals to Small Capitals lookup 34 subtable" u.sc
Substitution2: "'aalt' Access All Alternates lookup 0 subtable" u.sc
EndChar

StartChar: V
Encoding: 86 86 57
Width: 563
GlyphClass: 2
Flags: HW
AnchorPoint: "Anchor-2" 670 714 basechar 0
AnchorPoint: "Anchor-1" 409 714 basechar 0
AnchorPoint: "Anchor-0" 282 0 basechar 0
LayerCount: 2
Fore
SplineSet
204 0 m 1
 137 714 l 1
 280 714 l 1
 303 291 l 2
 305 254 306 173 304 130 c 1
 310 130 l 1
 323 174 352 252 367 291 c 2
 537 714 l 1
 680 714 l 1
 359 0 l 1
 204 0 l 1
EndSplineSet
Substitution2: "'c2sc' Capitals to Small Capitals lookup 34 subtable" v.sc
Substitution2: "'aalt' Access All Alternates lookup 0 subtable" v.sc
EndChar

StartChar: W
Encoding: 87 87 58
Width: 563
GlyphClass: 2
Flags: HW
AnchorPoint: "Anchor-2" 670 714 basechar 0
AnchorPoint: "Anchor-1" 409 714 basechar 0
AnchorPoint: "Anchor-0" 282 0 basechar 0
LayerCount: 2
Fore
SplineSet
54 0 m 1
 137 714 l 1
 259 714 l 1
 236 472 218 359 206 294 c 0
 195 231 185 171 174 121 c 1
 181 121 l 1
 201 189 229 283 241 320 c 2
 315 546 l 1
 444 546 l 1
 436 319 l 2
 434 262 433 184 429 120 c 1
 436 120 l 1
 446 186 458 271 466 316 c 0
 480 396 502 487 556 714 c 1
 680 714 l 1
 511 0 l 1
 333 0 l 1
 344 245 l 2
 346 287 352 347 356 400 c 1
 350 400 l 1
 337 348 319 286 305 245 c 2
 230 0 l 1
 54 0 l 1
EndSplineSet
Substitution2: "'c2sc' Capitals to Small Capitals lookup 34 subtable" w.sc
Substitution2: "'aalt' Access All Alternates lookup 0 subtable" w.sc
EndChar

StartChar: X
Encoding: 88 88 59
Width: 563
GlyphClass: 2
Flags: HW
AnchorPoint: "Anchor-2" 670 714 basechar 0
AnchorPoint: "Anchor-1" 409 714 basechar 0
AnchorPoint: "Anchor-0" 282 0 basechar 0
LayerCount: 2
Fore
SplineSet
16 0 m 1
 273 367 l 1
 156 714 l 1
 302 714 l 1
 367 479 l 1
 512 714 l 1
 660 714 l 1
 418 367 l 1
 547 0 l 1
 398 0 l 1
 325 255 l 1
 162 0 l 1
 16 0 l 1
EndSplineSet
Substitution2: "'c2sc' Capitals to Small Capitals lookup 34 subtable" x.sc
Substitution2: "'aalt' Access All Alternates lookup 0 subtable" x.sc
EndChar

StartChar: Y
Encoding: 89 89 60
Width: 563
GlyphClass: 2
Flags: HW
AnchorPoint: "Anchor-2" 670 714 basechar 0
AnchorPoint: "Anchor-1" 409 714 basechar 0
AnchorPoint: "Anchor-0" 282 0 basechar 0
LayerCount: 2
Fore
SplineSet
213 0 m 1
 262 277 l 1
 143 714 l 1
 294 714 l 1
 357 412 l 1
 523 714 l 1
 674 714 l 1
 400 277 l 1
 351 0 l 1
 213 0 l 1
EndSplineSet
Substitution2: "'c2sc' Capitals to Small Capitals lookup 34 subtable" y.sc
Substitution2: "'aalt' Access All Alternates lookup 0 subtable" y.sc
EndChar

StartChar: Z
Encoding: 90 90 61
Width: 563
GlyphClass: 2
Flags: HW
AnchorPoint: "Anchor-2" 670 714 basechar 0
AnchorPoint: "Anchor-1" 419 714 basechar 0
AnchorPoint: "Anchor-0" 296 0 basechar 0
LayerCount: 2
Fore
SplineSet
71 0 m 1
 89 98 l 1
 447 592 l 1
 195 592 l 1
 217 714 l 1
 624 714 l 1
 606 616 l 1
 247 123 l 1
 525 123 l 1
 503 0 l 1
 71 0 l 1
EndSplineSet
Substitution2: "'c2sc' Capitals to Small Capitals lookup 34 subtable" z.sc
Substitution2: "'aalt' Access All Alternates lookup 0 subtable" z.sc
EndChar

StartChar: bracketleft
Encoding: 91 91 62
Width: 563
Flags: HW
LayerCount: 2
Fore
SplineSet
181 -163 m 1
 339 723 l 1
 574 723 l 1
 555 623 l 1
 441 623 l 1
 320 -62 l 1
 434 -62 l 1
 416 -163 l 1
 181 -163 l 1
EndSplineSet
Substitution2: "'smcp' Lowercase to Small Capitals lookup 35 subtable" bracketleft.sc
Substitution2: "'c2sc' Capitals to Small Capitals lookup 34 subtable" bracketleft.sc
Substitution2: "'aalt' Access All Alternates lookup 0 subtable" bracketleft.sc
EndChar

StartChar: backslash
Encoding: 92 92 63
Width: 563
Flags: HW
LayerCount: 2
Fore
SplineSet
477 -5 m 1
 357 -5 l 1
 213 719 l 1
 332 719 l 1
 477 -5 l 1
EndSplineSet
EndChar

StartChar: bracketright
Encoding: 93 93 64
Width: 563
Flags: HW
LayerCount: 2
Fore
SplineSet
483 725 m 1
 326 -161 l 1
 91 -161 l 1
 108 -61 l 1
 222 -61 l 1
 344 625 l 1
 230 625 l 1
 248 725 l 1
 483 725 l 1
EndSplineSet
Substitution2: "'smcp' Lowercase to Small Capitals lookup 35 subtable" bracketright.sc
Substitution2: "'c2sc' Capitals to Small Capitals lookup 34 subtable" bracketright.sc
Substitution2: "'aalt' Access All Alternates lookup 0 subtable" bracketright.sc
EndChar

StartChar: asciicircum
Encoding: 94 94 65
Width: 563
Flags: HW
LayerCount: 2
Fore
SplineSet
78 273 m 1
 370 715 l 1
 438 715 l 1
 581 273 l 1
 464 273 l 1
 377 553 l 1
 194 273 l 1
 78 273 l 1
EndSplineSet
EndChar

StartChar: underscore
Encoding: 95 95 66
Width: 563
Flags: HW
LayerCount: 2
Fore
SplineSet
-33 -188 m 1
 -12 -68 l 1
 551 -68 l 1
 530 -188 l 1
 -33 -188 l 1
EndSplineSet
EndChar

StartChar: grave
Encoding: 96 96 67
Width: 563
Flags: HW
LayerCount: 2
Fore
SplineSet
388 606 m 1
 353 638 285 720 262 757 c 1
 263 766 l 1
 415 766 l 1
 430 723 463 652 482 619 c 1
 480 606 l 1
 388 606 l 1
EndSplineSet
EndChar

StartChar: a
Encoding: 97 97 68
Width: 563
GlyphClass: 2
Flags: HW
AnchorPoint: "Anchor-2" 640 546 basechar 0
AnchorPoint: "Anchor-1" 389 546 basechar 0
AnchorPoint: "Anchor-0" 288 0 basechar 0
LayerCount: 2
Fore
SplineSet
211 -10 m 0
 105 -10 60 55 78 158 c 0
 99 277 181 332 322 336 c 2
 431 339 l 1
 435 362 l 2
 444 414 416 440 348 440 c 0
 307 440 259 431 199 407 c 1
 169 508 l 1
 238 541 303 556 376 556 c 0
 524 556 590 493 568 364 c 2
 504 0 l 1
 401 0 l 1
 389 70 l 1
 386 70 l 1
 328 11 272 -10 211 -10 c 0
280 105 m 0
 340 105 396 144 408 208 c 2
 416 253 l 1
 344 251 l 2
 271 249 227 223 218 170 c 0
 210 125 238 105 280 105 c 0
EndSplineSet
Substitution2: "'smcp' Lowercase to Small Capitals lookup 35 subtable" a.sc
Substitution2: "Single Substitution lookup 32 subtable" ordfeminine
AlternateSubs2: "'aalt' Access All Alternates lookup 1 subtable" ordfeminine a.sc
EndChar

StartChar: b
Encoding: 98 98 69
Width: 563
GlyphClass: 2
Flags: HW
AnchorPoint: "Anchor-2" 678 760 basechar 0
AnchorPoint: "Anchor-1" 417 760 basechar 0
AnchorPoint: "Anchor-0" 282 0 basechar 0
LayerCount: 2
Fore
SplineSet
336 -10 m 0
 276 -10 227 14 199 60 c 1
 189 60 l 1
 156 0 l 1
 51 0 l 1
 186 760 l 1
 323 760 l 1
 292 583 l 2
 288 560 278 523 266 475 c 1
 272 475 l 1
 314 528 376 556 440 556 c 0
 570 556 603 432 575 275 c 0
 547 113 466 -10 336 -10 c 0
305 109 m 0
 369 109 414 167 433 276 c 0
 452 385 428 437 364 437 c 0
 304 437 257 391 236 275 c 0
 216 161 244 109 305 109 c 0
EndSplineSet
Substitution2: "'smcp' Lowercase to Small Capitals lookup 35 subtable" b.sc
Substitution2: "'aalt' Access All Alternates lookup 0 subtable" b.sc
EndChar

StartChar: c
Encoding: 99 99 70
Width: 563
GlyphClass: 2
Flags: HW
AnchorPoint: "Anchor-2" 640 546 basechar 0
AnchorPoint: "Anchor-1" 407 546 basechar 0
AnchorPoint: "Anchor-0" 317 0 basechar 0
LayerCount: 2
Fore
SplineSet
319 -10 m 0
 146 -10 80 83 113 266 c 0
 147 458 254 556 426 556 c 0
 481 556 538 546 589 521 c 1
 527 409 l 1
 482 430 447 436 416 436 c 0
 329 436 274 380 255 272 c 0
 235 159 276 111 359 111 c 0
 397 111 446 121 508 154 c 1
 485 27 l 1
 423 -2 370 -10 319 -10 c 0
EndSplineSet
Substitution2: "'smcp' Lowercase to Small Capitals lookup 35 subtable" c.sc
Substitution2: "'aalt' Access All Alternates lookup 0 subtable" c.sc
EndChar

StartChar: d
Encoding: 100 100 71
Width: 563
GlyphClass: 2
Flags: HW
AnchorPoint: "Anchor-3" 330 273 basechar 0
AnchorPoint: "Anchor-2" 678 760 basechar 0
AnchorPoint: "Anchor-1" 417 760 basechar 0
AnchorPoint: "Anchor-0" 282 0 basechar 0
LayerCount: 2
Fore
SplineSet
221 -10 m 0
 89 -10 57 112 85 272 c 0
 114 437 195 556 331 556 c 0
 397 556 441 528 466 476 c 1
 470 476 l 1
 470 514 472 551 479 589 c 2
 510 760 l 1
 647 760 l 1
 512 0 l 1
 409 0 l 1
 392 71 l 1
 386 71 l 1
 342 18 284 -10 221 -10 c 0
302 109 m 0
 373 109 415 160 432 254 c 2
 436 271 l 2
 454 368 444 437 364 437 c 0
 290 437 246 379 227 269 c 0
 207 157 232 109 302 109 c 0
EndSplineSet
Substitution2: "'smcp' Lowercase to Small Capitals lookup 35 subtable" d.sc
Substitution2: "'aalt' Access All Alternates lookup 0 subtable" d.sc
EndChar

StartChar: e
Encoding: 101 101 72
Width: 563
GlyphClass: 2
Flags: HW
AnchorPoint: "Anchor-2" 640 546 basechar 0
AnchorPoint: "Anchor-1" 388 546 basechar 0
AnchorPoint: "Anchor-0" 292 0 basechar 0
LayerCount: 2
Fore
SplineSet
322 -10 m 0
 142 -10 60 92 93 275 c 0
 124 449 232 556 389 556 c 0
 533 556 601 467 573 306 c 2
 560 232 l 1
 225 232 l 1
 215 151 270 108 357 108 c 0
 414 108 471 124 525 145 c 1
 504 29 l 1
 453 4 390 -10 322 -10 c 0
446 330 m 1
 458 404 425 444 369 444 c 0
 313 444 263 406 244 330 c 1
 446 330 l 1
EndSplineSet
Substitution2: "'smcp' Lowercase to Small Capitals lookup 35 subtable" e.sc
Substitution2: "'aalt' Access All Alternates lookup 0 subtable" e.sc
EndChar

StartChar: f
Encoding: 102 102 73
Width: 563
GlyphClass: 2
Flags: HW
AnchorPoint: "Anchor-2" 692 765 basechar 0
AnchorPoint: "Anchor-1" 501 762 basechar 0
AnchorPoint: "Anchor-0" 282 0 basechar 0
LayerCount: 2
Fore
SplineSet
195 0 m 1
 271 428 l 1
 134 428 l 1
 149 513 l 1
 292 546 l 1
 298 581 l 2
 321 708 391 765 524 765 c 0
 576 765 625 757 672 742 c 1
 614 629 l 1
 583 640 551 643 531 643 c 0
 473 643 443 617 435 569 c 2
 431 546 l 1
 597 546 l 1
 576 428 l 1
 410 428 l 1
 334 0 l 1
 195 0 l 1
EndSplineSet
Substitution2: "'smcp' Lowercase to Small Capitals lookup 35 subtable" f.sc
Substitution2: "'aalt' Access All Alternates lookup 0 subtable" f.sc
EndChar

StartChar: g
Encoding: 103 103 74
Width: 563
GlyphClass: 2
Flags: HW
AnchorPoint: "Anchor-2" 640 546 basechar 0
AnchorPoint: "Anchor-1" 379 546 basechar 0
AnchorPoint: "Anchor-0" 239 -245 basechar 0
LayerCount: 2
Fore
SplineSet
201 -245 m 0
 146 -245 89 -237 32 -213 c 1
 56 -81 l 1
 116 -109 172 -123 227 -123 c 0
 311 -122 354 -86 368 -8 c 2
 371 4 l 2
 375 26 381 50 385 68 c 1
 381 68 l 1
 337 13 287 -10 228 -10 c 0
 106 -10 52 95 84 273 c 0
 116 452 209 557 328 557 c 0
 389 557 430 529 456 476 c 1
 460 476 l 1
 496 546 l 1
 609 546 l 1
 512 -1 l 2
 484 -158 386 -245 201 -245 c 0
301 109 m 0
 365 109 407 158 424 252 c 2
 428 271 l 2
 449 388 426 437 358 437 c 0
 290 437 246 380 227 273 c 0
 208 167 231 109 301 109 c 0
EndSplineSet
Substitution2: "'smcp' Lowercase to Small Capitals lookup 35 subtable" g.sc
Substitution2: "'aalt' Access All Alternates lookup 0 subtable" g.sc
EndChar

StartChar: h
Encoding: 104 104 75
Width: 563
GlyphClass: 2
Flags: HW
AnchorPoint: "Anchor-3" 330 273 basechar 0
AnchorPoint: "Anchor-2" 678 760 basechar 0
AnchorPoint: "Anchor-1" 258 760 basechar 0
AnchorPoint: "Anchor-0" 282 0 basechar 0
LayerCount: 2
Fore
SplineSet
51 0 m 1
 186 760 l 1
 325 760 l 1
 297 601 l 2
 289 559 280 518 269 476 c 1
 278 476 l 1
 317 528 369 556 441 556 c 0
 555 556 604 486 581 356 c 2
 517 0 l 1
 378 0 l 1
 435 320 l 2
 450 404 429 437 372 437 c 0
 297 437 258 380 236 258 c 2
 190 0 l 1
 51 0 l 1
EndSplineSet
Substitution2: "'smcp' Lowercase to Small Capitals lookup 35 subtable" h.sc
Substitution2: "'subs' Subscript lookup 22 subtable" uni2095
AlternateSubs2: "'aalt' Access All Alternates lookup 1 subtable" h.sc uni2095
EndChar

StartChar: i
Encoding: 105 105 76
Width: 563
GlyphClass: 2
Flags: HW
AnchorPoint: "Anchor-3" 343 291 basechar 0
AnchorPoint: "Anchor-2" 617 774 basechar 0
AnchorPoint: "Anchor-1" 433 774 basechar 0
AnchorPoint: "Anchor-0" 296 0 basechar 0
LayerCount: 2
Fore
SplineSet
402 611 m 0
 349 611 323 639 332 693 c 0
 341 746 376 774 433 774 c 0
 489 774 511 746 502 693 c 0
 493 641 461 611 402 611 c 0
58 0 m 1
 75 92 l 1
 245 115 l 1
 302 431 l 1
 161 446 l 1
 179 546 l 1
 461 546 l 1
 384 115 l 1
 529 92 l 1
 512 0 l 1
 58 0 l 1
EndSplineSet
Substitution2: "'smcp' Lowercase to Small Capitals lookup 35 subtable" i.sc
Substitution2: "Single Substitution lookup 5 subtable" dotlessi
Substitution2: "Single Substitution lookup 4 subtable" dotlessi
AlternateSubs2: "'aalt' Access All Alternates lookup 1 subtable" dotlessi i.sc
EndChar

StartChar: j
Encoding: 106 106 77
Width: 563
GlyphClass: 2
Flags: HW
AnchorPoint: "Anchor-2" 621 774 basechar 0
AnchorPoint: "Anchor-1" 459 774 basechar 0
AnchorPoint: "Anchor-0" 151 -245 basechar 0
LayerCount: 2
Fore
SplineSet
433 611 m 0
 379 611 354 639 363 693 c 0
 372 746 406 774 463 774 c 0
 520 774 541 746 532 693 c 0
 523 641 491 611 433 611 c 0
141 -245 m 0
 96 -245 46 -238 -1 -223 c 1
 20 -104 l 1
 61 -117 108 -123 139 -123 c 0
 212 -123 250 -91 265 -4 c 2
 343 431 l 1
 192 446 l 1
 210 546 l 1
 502 546 l 1
 400 -28 l 2
 373 -177 293 -245 141 -245 c 0
EndSplineSet
Substitution2: "'smcp' Lowercase to Small Capitals lookup 35 subtable" j.sc
Substitution2: "Single Substitution lookup 5 subtable" uni0237
Substitution2: "Single Substitution lookup 4 subtable" uni0237
AlternateSubs2: "'aalt' Access All Alternates lookup 1 subtable" uni0237 j.sc
EndChar

StartChar: k
Encoding: 107 107 78
Width: 563
GlyphClass: 2
Flags: HW
AnchorPoint: "Anchor-2" 600 860 basechar 0
AnchorPoint: "Anchor-1" 453 760 basechar 0
AnchorPoint: "Anchor-0" 300 0 basechar 0
LayerCount: 2
Fore
SplineSet
55 0 m 1
 190 760 l 1
 329 760 l 1
 268 415 l 2
 260 373 252 339 239 297 c 1
 242 297 l 1
 265 324 291 352 319 382 c 2
 475 546 l 1
 636 546 l 1
 416 322 l 1
 550 0 l 1
 397 0 l 1
 306 228 l 1
 223 165 l 1
 194 0 l 1
 55 0 l 1
EndSplineSet
Substitution2: "'smcp' Lowercase to Small Capitals lookup 35 subtable" k.sc
Substitution2: "'subs' Subscript lookup 22 subtable" uni2096
AlternateSubs2: "'aalt' Access All Alternates lookup 1 subtable" k.sc uni2096
EndChar

StartChar: l
Encoding: 108 108 79
Width: 563
GlyphClass: 2
Flags: HW
AnchorPoint: "Anchor-3" 360 374 basechar 0
AnchorPoint: "Anchor-2" 607 760 basechar 0
AnchorPoint: "Anchor-1" 417 760 basechar 0
AnchorPoint: "Anchor-0" 294 0 basechar 0
LayerCount: 2
Fore
SplineSet
58 0 m 1
 75 92 l 1
 242 115 l 1
 336 645 l 1
 209 668 l 1
 225 760 l 1
 496 760 l 1
 381 115 l 1
 529 92 l 1
 512 0 l 1
 58 0 l 1
EndSplineSet
Substitution2: "'smcp' Lowercase to Small Capitals lookup 35 subtable" l.sc
Substitution2: "'subs' Subscript lookup 22 subtable" uni2097
AlternateSubs2: "'aalt' Access All Alternates lookup 1 subtable" l.sc uni2097
EndChar

StartChar: m
Encoding: 109 109 80
Width: 563
GlyphClass: 2
Flags: HW
AnchorPoint: "Anchor-2" 640 546 basechar 0
AnchorPoint: "Anchor-1" 409 546 basechar 0
AnchorPoint: "Anchor-0" 291 0 basechar 0
LayerCount: 2
Fore
SplineSet
25 0 m 1
 122 546 l 1
 218 546 l 1
 221 480 l 1
 229 480 l 1
 256 532 289 556 340 556 c 0
 396 556 414 523 415 473 c 1
 420 473 l 1
 450 524 483 556 540 556 c 0
 619 556 628 499 606 378 c 2
 539 0 l 1
 419 0 l 1
 487 383 l 2
 494 421 492 441 465 441 c 0
 431 441 418 417 407 356 c 2
 343 0 l 1
 221 0 l 1
 289 383 l 2
 297 423 294 441 267 441 c 0
 232 441 219 415 208 353 c 2
 145 0 l 1
 25 0 l 1
EndSplineSet
Substitution2: "'smcp' Lowercase to Small Capitals lookup 35 subtable" m.sc
Substitution2: "'subs' Subscript lookup 22 subtable" uni2098
AlternateSubs2: "'aalt' Access All Alternates lookup 1 subtable" m.sc uni2098
EndChar

StartChar: n
Encoding: 110 110 81
Width: 563
GlyphClass: 2
Flags: HW
AnchorPoint: "Anchor-2" 640 546 basechar 0
AnchorPoint: "Anchor-1" 385 546 basechar 0
AnchorPoint: "Anchor-0" 286 0 basechar 0
LayerCount: 2
Fore
SplineSet
51 0 m 1
 148 546 l 1
 256 546 l 1
 266 479 l 1
 273 479 l 1
 312 529 368 556 441 556 c 0
 556 556 604 490 581 362 c 2
 517 0 l 1
 378 0 l 1
 436 325 l 2
 450 403 428 439 371 439 c 0
 297 439 257 378 238 268 c 2
 190 0 l 1
 51 0 l 1
EndSplineSet
Substitution2: "'smcp' Lowercase to Small Capitals lookup 35 subtable" n.sc
Substitution2: "'sups' Superscript lookup 23 subtable" uni207F
Substitution2: "'subs' Subscript lookup 22 subtable" uni2099
AlternateSubs2: "'aalt' Access All Alternates lookup 1 subtable" uni207F n.sc uni2099
EndChar

StartChar: o
Encoding: 111 111 82
Width: 563
GlyphClass: 2
Flags: HW
AnchorPoint: "Anchor-3" 330 273 basechar 0
AnchorPoint: "Anchor-2" 640 546 basechar 0
AnchorPoint: "Anchor-1" 379 546 basechar 0
AnchorPoint: "Anchor-0" 282 0 basechar 0
LayerCount: 2
Fore
SplineSet
282 -10 m 0
 120 -10 55 108 84 273 c 0
 113 439 223 556 382 556 c 0
 532 556 609 453 576 271 c 0
 547 107 445 -10 282 -10 c 0
303 107 m 0
 374 107 416 165 435 272 c 0
 454 379 434 439 362 439 c 0
 288 439 244 376 226 273 c 0
 208 168 230 107 303 107 c 0
EndSplineSet
Substitution2: "'smcp' Lowercase to Small Capitals lookup 35 subtable" o.sc
Substitution2: "Single Substitution lookup 32 subtable" ordmasculine
AlternateSubs2: "'aalt' Access All Alternates lookup 1 subtable" ordmasculine o.sc
EndChar

StartChar: p
Encoding: 112 112 83
Width: 563
GlyphClass: 2
Flags: HW
AnchorPoint: "Anchor-2" 640 546 basechar 0
AnchorPoint: "Anchor-1" 411 546 basechar 0
AnchorPoint: "Anchor-0" 271 -240 basechar 0
LayerCount: 2
Fore
SplineSet
8 -240 m 1
 148 546 l 1
 254 546 l 1
 265 475 l 1
 272 475 l 1
 315 528 376 556 439 556 c 0
 571 556 604 432 576 277 c 0
 544 97 452 -10 333 -10 c 0
 276 -10 227 15 199 60 c 1
 192 60 l 1
 191 21 187 -2 185 -18 c 2
 145 -240 l 1
 8 -240 l 1
308 109 m 0
 373 109 411 162 431 277 c 0
 450 386 432 437 367 437 c 0
 302 437 257 387 240 291 c 2
 236 275 l 2
 216 163 242 109 308 109 c 0
EndSplineSet
Substitution2: "'smcp' Lowercase to Small Capitals lookup 35 subtable" p.sc
Substitution2: "'subs' Subscript lookup 22 subtable" uni209A
AlternateSubs2: "'aalt' Access All Alternates lookup 1 subtable" p.sc uni209A
EndChar

StartChar: q
Encoding: 113 113 84
Width: 563
GlyphClass: 2
Flags: HW
AnchorPoint: "Anchor-2" 640 546 basechar 0
AnchorPoint: "Anchor-1" 359 546 basechar 0
AnchorPoint: "Anchor-0" 219 -240 basechar 0
LayerCount: 2
Fore
SplineSet
373 -10 m 2
 376 9 384 39 394 71 c 1
 388 71 l 1
 350 21 286 -10 221 -10 c 0
 89 -10 57 113 85 272 c 0
 113 431 189 556 326 556 c 0
 388 556 437 530 466 476 c 1
 470 476 l 1
 500 546 l 1
 609 546 l 1
 469 -240 l 1
 332 -240 l 1
 373 -10 l 2
302 109 m 0
 377 109 414 168 429 254 c 2
 432 274 l 2
 452 387 425 437 361 437 c 0
 292 437 248 379 229 269 c 0
 210 163 230 109 302 109 c 0
EndSplineSet
Substitution2: "'smcp' Lowercase to Small Capitals lookup 35 subtable" q.sc
Substitution2: "'aalt' Access All Alternates lookup 0 subtable" q.sc
EndChar

StartChar: r
Encoding: 114 114 85
Width: 563
GlyphClass: 2
Flags: HW
AnchorPoint: "Anchor-2" 640 546 basechar 0
AnchorPoint: "Anchor-1" 405 546 basechar 0
AnchorPoint: "Anchor-0" 238 0 basechar 0
LayerCount: 2
Fore
SplineSet
36 0 m 1
 53 92 l 1
 186 115 l 1
 243 431 l 1
 135 446 l 1
 153 546 l 1
 367 546 l 1
 372 453 l 1
 379 453 l 1
 421 514 472 556 553 556 c 0
 580 556 615 552 646 538 c 1
 587 407 l 1
 569 415 541 421 512 421 c 0
 424 421 369 356 352 264 c 2
 325 115 l 1
 457 92 l 1
 440 0 l 1
 36 0 l 1
EndSplineSet
Substitution2: "'smcp' Lowercase to Small Capitals lookup 35 subtable" r.sc
Substitution2: "'aalt' Access All Alternates lookup 0 subtable" r.sc
EndChar

StartChar: s
Encoding: 115 115 86
Width: 563
GlyphClass: 2
Flags: HW
AnchorPoint: "Anchor-2" 640 546 basechar 0
AnchorPoint: "Anchor-1" 384 546 basechar 0
AnchorPoint: "Anchor-0" 287 0 basechar 0
LayerCount: 2
Fore
SplineSet
251 -10 m 0
 189 -10 133 -2 79 22 c 1
 102 151 l 1
 151 127 219 107 286 107 c 0
 338 107 370 121 376 152 c 0
 383 189 339 201 262 236 c 0
 184 273 129 307 145 397 c 0
 164 505 261 556 388 556 c 0
 455 556 518 542 577 513 c 1
 514 406 l 1
 465 429 417 440 366 440 c 0
 322 440 293 429 288 401 c 0
 282 368 317 357 395 324 c 0
 475 290 537 253 519 153 c 0
 500 44 408 -10 251 -10 c 0
EndSplineSet
Substitution2: "'smcp' Lowercase to Small Capitals lookup 35 subtable" s.sc
Substitution2: "'subs' Subscript lookup 22 subtable" uni209B
AlternateSubs2: "'aalt' Access All Alternates lookup 1 subtable" s.sc uni209B
EndChar

StartChar: t
Encoding: 116 116 87
Width: 563
GlyphClass: 2
Flags: HW
AnchorPoint: "Anchor-3" 289 276 basechar 0
AnchorPoint: "Anchor-2" 591 860 basechar 0
AnchorPoint: "Anchor-1" 376 682 basechar 0
AnchorPoint: "Anchor-0" 345 0 basechar 0
LayerCount: 2
Fore
SplineSet
362 -10 m 0
 225 -10 173 51 197 186 c 2
 239 428 l 1
 121 428 l 1
 135 510 l 1
 272 546 l 1
 326 682 l 1
 425 682 l 1
 401 546 l 1
 601 546 l 1
 580 428 l 1
 378 428 l 1
 337 199 l 2
 324 126 358 110 412 110 c 0
 444 110 479 116 531 127 c 1
 511 13 l 1
 461 -3 408 -10 362 -10 c 0
EndSplineSet
Substitution2: "'smcp' Lowercase to Small Capitals lookup 35 subtable" t.sc
Substitution2: "'subs' Subscript lookup 22 subtable" uni209C
AlternateSubs2: "'aalt' Access All Alternates lookup 1 subtable" t.sc uni209C
EndChar

StartChar: u
Encoding: 117 117 88
Width: 563
GlyphClass: 2
Flags: HW
AnchorPoint: "Anchor-2" 640 546 basechar 0
AnchorPoint: "Anchor-1" 379 546 basechar 0
AnchorPoint: "Anchor-0" 282 0 basechar 0
LayerCount: 2
Fore
SplineSet
215 -10 m 0
 103 -10 56 60 79 190 c 2
 143 546 l 1
 282 546 l 1
 225 227 l 2
 212 152 223 109 288 109 c 0
 373 109 404 176 424 289 c 2
 470 546 l 1
 609 546 l 1
 512 0 l 1
 405 0 l 1
 395 70 l 1
 387 70 l 1
 348 19 287 -10 215 -10 c 0
EndSplineSet
Substitution2: "'smcp' Lowercase to Small Capitals lookup 35 subtable" u.sc
Substitution2: "'aalt' Access All Alternates lookup 0 subtable" u.sc
EndChar

StartChar: v
Encoding: 118 118 89
Width: 563
GlyphClass: 2
Flags: HW
AnchorPoint: "Anchor-2" 640 546 basechar 0
AnchorPoint: "Anchor-1" 379 546 basechar 0
AnchorPoint: "Anchor-0" 282 0 basechar 0
LayerCount: 2
Fore
SplineSet
202 0 m 1
 113 546 l 1
 262 546 l 1
 297 236 l 2
 300 196 304 155 303 120 c 1
 306 120 l 1
 317 155 331 189 352 235 c 2
 497 546 l 1
 644 546 l 1
 357 0 l 1
 202 0 l 1
EndSplineSet
Substitution2: "'smcp' Lowercase to Small Capitals lookup 35 subtable" v.sc
Substitution2: "'aalt' Access All Alternates lookup 0 subtable" v.sc
EndChar

StartChar: w
Encoding: 119 119 90
Width: 563
GlyphClass: 2
Flags: HW
AnchorPoint: "Anchor-2" 640 546 basechar 0
AnchorPoint: "Anchor-1" 380 546 basechar 0
AnchorPoint: "Anchor-0" 283 0 basechar 0
LayerCount: 2
Fore
SplineSet
76 0 m 1
 99 546 l 1
 223 546 l 1
 197 265 l 2
 194 221 188 186 184 132 c 1
 188 132 l 1
 203 186 216 221 233 268 c 2
 306 465 l 1
 425 465 l 1
 427 267 l 2
 426 227 425 182 424 132 c 1
 428 132 l 1
 442 182 451 225 462 265 c 2
 537 546 l 1
 659 546 l 1
 487 0 l 1
 334 0 l 1
 335 217 l 2
 336 256 337 279 338 312 c 1
 334 312 l 1
 323 278 316 255 303 217 c 2
 227 0 l 1
 76 0 l 1
EndSplineSet
Substitution2: "'smcp' Lowercase to Small Capitals lookup 35 subtable" w.sc
Substitution2: "'aalt' Access All Alternates lookup 0 subtable" w.sc
EndChar

StartChar: x
Encoding: 120 120 91
Width: 563
GlyphClass: 2
Flags: HW
AnchorPoint: "Anchor-2" 640 546 basechar 0
AnchorPoint: "Anchor-1" 379 546 basechar 0
AnchorPoint: "Anchor-0" 282 0 basechar 0
LayerCount: 2
Fore
SplineSet
16 0 m 1
 243 278 l 1
 122 546 l 1
 286 546 l 1
 348 369 l 1
 478 546 l 1
 641 546 l 1
 421 278 l 1
 547 0 l 1
 383 0 l 1
 316 184 l 1
 181 0 l 1
 16 0 l 1
EndSplineSet
Substitution2: "'smcp' Lowercase to Small Capitals lookup 35 subtable" x.sc
Substitution2: "'aalt' Access All Alternates lookup 0 subtable" x.sc
EndChar

StartChar: y
Encoding: 121 121 92
Width: 563
GlyphClass: 2
Flags: HW
AnchorPoint: "Anchor-2" 640 546 basechar 0
AnchorPoint: "Anchor-1" 379 546 basechar 0
AnchorPoint: "Anchor-0" 239 -245 basechar 0
LayerCount: 2
Fore
SplineSet
80 -245 m 0
 56 -245 32 -242 9 -237 c 1
 29 -120 l 1
 45 -124 64 -126 76 -126 c 0
 131 -126 173 -93 205 -31 c 2
 221 0 l 1
 113 546 l 1
 268 546 l 1
 309 233 l 2
 312 205 314 173 312 136 c 1
 315 136 l 1
 326 171 340 202 354 233 c 2
 492 546 l 1
 644 546 l 1
 348 -29 l 2
 277 -166 195 -245 80 -245 c 0
EndSplineSet
Substitution2: "'smcp' Lowercase to Small Capitals lookup 35 subtable" y.sc
Substitution2: "'aalt' Access All Alternates lookup 0 subtable" y.sc
EndChar

StartChar: z
Encoding: 122 122 93
Width: 563
GlyphClass: 2
Flags: HW
AnchorPoint: "Anchor-2" 640 546 basechar 0
AnchorPoint: "Anchor-1" 384 546 basechar 0
AnchorPoint: "Anchor-0" 287 0 basechar 0
LayerCount: 2
Fore
SplineSet
61 0 m 1
 76 87 l 1
 399 432 l 1
 150 432 l 1
 170 546 l 1
 589 546 l 1
 571 449 l 1
 256 114 l 1
 522 114 l 1
 502 0 l 1
 61 0 l 1
EndSplineSet
Substitution2: "'smcp' Lowercase to Small Capitals lookup 35 subtable" z.sc
Substitution2: "'aalt' Access All Alternates lookup 0 subtable" z.sc
EndChar

StartChar: braceleft
Encoding: 123 123 94
Width: 563
Flags: HW
LayerCount: 2
Fore
SplineSet
412 -163 m 1
 254 -163 209 -123 229 -8 c 2
 255 136 l 2
 266 196 237 225 162 225 c 1
 180 330 l 1
 253 330 294 357 305 419 c 2
 331 564 l 2
 350 673 405 718 569 719 c 1
 551 615 l 1
 495 613 460 601 450 545 c 2
 424 400 l 2
 411 329 374 292 305 281 c 1
 303 275 l 1
 370 264 393 225 381 158 c 2
 356 12 l 2
 347 -40 368 -57 430 -59 c 1
 412 -163 l 1
EndSplineSet
Substitution2: "'smcp' Lowercase to Small Capitals lookup 35 subtable" braceleft.sc
Substitution2: "'c2sc' Capitals to Small Capitals lookup 34 subtable" braceleft.sc
Substitution2: "'aalt' Access All Alternates lookup 0 subtable" braceleft.sc
EndChar

StartChar: bar
Encoding: 124 124 95
Width: 563
Flags: HW
LayerCount: 2
Fore
SplineSet
183 -240 m 1
 361 760 l 1
 471 760 l 1
 293 -240 l 1
 183 -240 l 1
EndSplineSet
EndChar

StartChar: braceright
Encoding: 125 125 96
Width: 563
Flags: HW
LayerCount: 2
Fore
SplineSet
250 719 m 1
 408 719 452 679 432 564 c 2
 406 420 l 2
 395 360 424 331 499 331 c 1
 481 226 l 1
 408 226 367 199 356 137 c 2
 330 -8 l 2
 311 -117 257 -162 93 -163 c 1
 111 -59 l 1
 167 -57 202 -45 212 11 c 2
 238 156 l 2
 251 227 286 264 356 275 c 1
 358 281 l 1
 291 292 269 331 281 398 c 2
 307 544 l 2
 316 596 294 613 232 615 c 1
 250 719 l 1
EndSplineSet
Substitution2: "'smcp' Lowercase to Small Capitals lookup 35 subtable" braceright.sc
Substitution2: "'c2sc' Capitals to Small Capitals lookup 34 subtable" braceright.sc
Substitution2: "'aalt' Access All Alternates lookup 0 subtable" braceright.sc
EndChar

StartChar: asciitilde
Encoding: 126 126 97
Width: 563
Flags: HW
LayerCount: 2
Fore
SplineSet
112 272 m 1
 130 369 174 460 268 460 c 0
 312 460 337 442 377 393 c 0
 406 354 417 343 438 343 c 0
 471 343 496 380 512 460 c 1
 582 460 l 1
 562 357 517 272 428 272 c 0
 390 272 362 286 321 337 c 0
 287 378 277 389 258 389 c 0
 221 389 195 354 181 272 c 1
 112 272 l 1
EndSplineSet
EndChar

StartChar: exclamdown
Encoding: 161 161 99
Width: 563
Flags: HW
LayerCount: 2
Fore
SplineSet
377 539 m 0
 431 539 456 509 447 455 c 0
 437 399 403 370 347 370 c 0
 294 370 269 400 279 455 c 0
 288 508 326 539 377 539 c 0
393 296 m 1
 328 -185 l 1
 168 -185 l 1
 275 296 l 1
 393 296 l 1
EndSplineSet
Substitution2: "'smcp' Lowercase to Small Capitals lookup 35 subtable" exclamdown.sc
Substitution2: "'c2sc' Capitals to Small Capitals lookup 34 subtable" exclamdown.sc
Substitution2: "'aalt' Access All Alternates lookup 0 subtable" exclamdown.sc
EndChar

StartChar: cent
Encoding: 162 162 100
Width: 563
Flags: HW
LayerCount: 2
Fore
SplineSet
300 86 m 1
 161 100 108 197 135 362 c 0
 167 530 260 627 400 643 c 1
 414 724 l 1
 490 724 l 1
 476 647 l 1
 527 644 579 630 607 612 c 1
 551 506 l 1
 520 525 473 535 439 535 c 0
 346 535 289 484 267 363 c 0
 246 245 284 194 377 194 c 0
 426 194 484 209 528 233 c 1
 508 120 l 1
 475 101 422 88 376 84 c 1
 359 -10 l 1
 283 -10 l 1
 300 86 l 1
EndSplineSet
EndChar

StartChar: sterling
Encoding: 163 163 101
Width: 563
Flags: HW
LayerCount: 2
Fore
SplineSet
93 113 m 1
 145 139 175 169 188 240 c 2
 201 314 l 1
 128 314 l 1
 146 414 l 1
 219 414 l 1
 238 521 l 2
 262 659 352 725 472 725 c 0
 530 725 579 710 621 684 c 1
 564 577 l 1
 527 597 500 607 462 607 c 0
 421 607 383 582 371 517 c 2
 353 414 l 1
 503 414 l 1
 485 314 l 1
 335 314 l 1
 322 241 l 2
 311 180 278 142 234 119 c 1
 525 119 l 1
 504 0 l 1
 73 0 l 1
 93 113 l 1
EndSplineSet
EndChar

StartChar: currency
Encoding: 164 164 102
Width: 563
Flags: HW
LayerCount: 2
Fore
SplineSet
420 196 m 1
 386 177 347 166 310 166 c 0
 270 166 237 176 210 196 c 1
 134 132 l 1
 82 196 l 1
 159 260 l 1
 144 292 139 326 146 365 c 0
 153 402 170 437 197 469 c 1
 141 535 l 1
 217 599 l 1
 271 534 l 1
 305 555 343 565 381 565 c 0
 418 565 451 555 479 533 c 1
 557 599 l 1
 611 537 l 1
 534 470 l 1
 549 440 553 404 546 365 c 0
 539 326 523 291 496 259 c 1
 548 195 l 1
 474 131 l 1
 420 196 l 1
327 260 m 0
 389 260 442 304 453 365 c 0
 464 426 430 471 365 471 c 0
 301 471 252 425 241 365 c 0
 230 303 268 260 327 260 c 0
EndSplineSet
EndChar

StartChar: yen
Encoding: 165 165 103
Width: 563
Flags: HW
LayerCount: 2
Fore
SplineSet
216 0 m 1
 236 113 l 1
 101 113 l 1
 116 197 l 1
 251 197 l 1
 264 266 l 1
 129 266 l 1
 144 352 l 1
 254 352 l 1
 156 714 l 1
 298 714 l 1
 358 426 l 1
 519 714 l 1
 661 714 l 1
 433 352 l 1
 545 352 l 1
 530 266 l 1
 395 266 l 1
 382 197 l 1
 517 197 l 1
 502 113 l 1
 367 113 l 1
 347 0 l 1
 216 0 l 1
EndSplineSet
EndChar

StartChar: brokenbar
Encoding: 166 166 104
Width: 563
Flags: HW
LayerCount: 2
Fore
SplineSet
290 363 m 1
 361 758 l 1
 471 758 l 1
 400 363 l 1
 290 363 l 1
185 -231 m 1
 255 165 l 1
 365 165 l 1
 295 -231 l 1
 185 -231 l 1
EndSplineSet
EndChar

StartChar: section
Encoding: 167 167 105
Width: 563
Flags: HW
LayerCount: 2
Fore
SplineSet
251 -8 m 0
 187 -8 137 5 98 30 c 1
 116 130 l 1
 155 104 214 82 266 82 c 0
 326 82 359 104 366 141 c 0
 373 178 354 195 287 229 c 0
 197 275 151 311 164 387 c 0
 175 446 213 485 266 511 c 1
 227 541 210 581 218 627 c 0
 233 712 321 765 435 765 c 0
 495 765 543 751 593 727 c 1
 539 640 l 1
 500 662 460 676 421 676 c 0
 372 676 344 659 338 627 c 0
 332 592 365 573 417 549 c 0
 507 506 554 467 540 386 c 0
 530 330 496 292 448 263 c 1
 483 232 495 193 487 147 c 0
 470 51 379 -8 251 -8 c 0
377 305 m 1
 400 320 420 341 425 370 c 0
 433 410 414 435 336 469 c 1
 307 459 285 436 280 407 c 0
 273 369 300 345 355 318 c 2
 377 305 l 1
EndSplineSet
EndChar

StartChar: dieresis
Encoding: 168 168 106
Width: 563
GlyphClass: 2
Flags: HW
AnchorPoint: "Anchor-1" 398 656 basechar 0
LayerCount: 2
Fore
SplineSet
498 612 m 0
 459 612 435 637 443 682 c 0
 451 729 484 752 523 752 c 0
 562 752 586 728 578 682 c 0
 570 637 537 612 498 612 c 0
285 612 m 0
 246 612 223 636 231 682 c 0
 239 729 271 752 310 752 c 0
 349 752 372 728 364 682 c 0
 356 637 324 612 285 612 c 0
EndSplineSet
EndChar

StartChar: copyright
Encoding: 169 169 107
Width: 563
Flags: HW
LayerCount: 2
Fore
SplineSet
296 91 m 0
 126 91 58 213 83 352 c 0
 109 499 231 612 391 612 c 0
 552 612 631 496 605 348 c 0
 577 195 452 91 296 91 c 0
308 153 m 0
 424 153 516 235 537 354 c 0
 558 473 492 550 380 550 c 0
 257 550 172 458 153 351 c 0
 134 242 187 153 308 153 c 0
325 190 m 0
 229 190 188 252 206 351 c 0
 223 452 289 515 384 515 c 0
 415 515 442 509 472 493 c 1
 438 433 l 1
 419 445 396 452 376 452 c 0
 328 452 294 416 282 348 c 0
 271 286 289 254 342 254 c 0
 365 254 394 259 420 270 c 1
 409 207 l 1
 383 196 357 190 325 190 c 0
EndSplineSet
EndChar

StartChar: ordfeminine
Encoding: 170 170 108
Width: 563
GlyphClass: 2
Flags: HW
AnchorPoint: "Anchor-1" 412 722 basechar 0
AnchorPoint: "Anchor-0" 345 368 basechar 0
LayerCount: 2
Fore
SplineSet
305 369 m 0
 238 369 203 410 215 475 c 0
 229 554 294 581 397 586 c 2
 443 589 l 1
 445 599 l 2
 451 632 435 649 396 649 c 0
 367 649 335 640 301 624 c 1
 283 688 l 1
 325 709 374 722 424 722 c 0
 517 722 550 674 536 592 c 2
 498 375 l 1
 436 375 l 1
 430 427 l 1
 397 390 354 369 305 369 c 0
347 440 m 0
 390 440 423 470 430 514 c 2
 433 532 l 1
 389 529 l 2
 333 525 314 505 309 479 c 0
 304 452 319 440 347 440 c 0
EndSplineSet
EndChar

StartChar: guillemotleft
Encoding: 171 171 109
Width: 563
Flags: HW
LayerCount: 2
Fore
SplineSet
429 47 m 1
 308 264 l 1
 310 278 l 1
 509 495 l 1
 595 444 l 1
 453 271 l 1
 535 98 l 1
 429 47 l 1
215 47 m 1
 94 264 l 1
 96 278 l 1
 295 495 l 1
 380 444 l 1
 237 271 l 1
 320 98 l 1
 215 47 l 1
EndSplineSet
EndChar

StartChar: logicalnot
Encoding: 172 172 110
Width: 563
Flags: HW
LayerCount: 2
Fore
SplineSet
409 119 m 1
 441 301 l 1
 117 301 l 1
 136 405 l 1
 565 405 l 1
 514 119 l 1
 409 119 l 1
EndSplineSet
EndChar

StartChar: uni00AD
Encoding: 173 173 111
Width: 563
Flags: HW
LayerCount: 2
Fore
SplineSet
178 205 m 1
 199 330 l 1
 481 330 l 1
 460 205 l 1
 178 205 l 1
EndSplineSet
EndChar

StartChar: registered
Encoding: 174 174 112
Width: 563
Flags: HW
LayerCount: 2
Fore
SplineSet
297 92 m 0
 127 92 60 214 84 352 c 0
 110 499 232 612 391 612 c 0
 551 612 631 497 605 349 c 0
 577 195 453 92 297 92 c 0
308 154 m 0
 424 154 515 236 536 354 c 0
 558 474 492 550 380 550 c 0
 257 550 172 458 153 351 c 0
 134 242 187 154 308 154 c 0
215 205 m 1
 268 506 l 1
 362 506 l 2
 441 506 476 477 465 415 c 0
 458 372 434 346 404 333 c 1
 438 205 l 1
 363 205 l 1
 340 320 l 1
 304 320 l 1
 284 205 l 1
 215 205 l 1
334 369 m 2
 363 369 385 382 391 414 c 0
 396 441 384 452 350 452 c 2
 327 452 l 1
 312 369 l 1
 334 369 l 2
EndSplineSet
EndChar

StartChar: overscore
Encoding: 175 175 113
Width: 563
Flags: HW
LayerCount: 2
Fore
SplineSet
247 620 m 1
 264 716 l 1
 554 716 l 1
 537 620 l 1
 247 620 l 1
EndSplineSet
EndChar

StartChar: degree
Encoding: 176 176 114
Width: 563
Flags: HW
LayerCount: 2
Fore
SplineSet
355 419 m 0
 266 419 214 484 230 572 c 0
 245 658 323 724 410 724 c 0
 498 724 553 657 538 572 c 0
 522 484 449 419 355 419 c 0
370 500 m 0
 415 500 445 532 453 572 c 0
 461 613 438 643 396 643 c 0
 355 643 322 612 314 572 c 0
 306 531 328 500 370 500 c 0
EndSplineSet
EndChar

StartChar: plusminus
Encoding: 177 177 115
Width: 563
Flags: HW
LayerCount: 2
Fore
SplineSet
258 155 m 1
 290 339 l 1
 124 339 l 1
 143 443 l 1
 309 443 l 1
 342 629 l 1
 447 629 l 1
 414 443 l 1
 580 443 l 1
 561 339 l 1
 395 339 l 1
 363 155 l 1
 258 155 l 1
63 0 m 1
 81 104 l 1
 519 104 l 1
 501 0 l 1
 63 0 l 1
EndSplineSet
EndChar

StartChar: uni00B2
Encoding: 178 178 116
Width: 563
Flags: HW
LayerCount: 2
Fore
SplineSet
215 416 m 1
 231 497 l 1
 336 591 l 2
 393 642 436 674 444 722 c 0
 450 756 433 769 403 769 c 0
 373 769 348 755 315 727 c 1
 278 792 l 1
 315 827 372 854 435 854 c 0
 515 854 558 813 544 732 c 0
 530 650 476 615 379 529 c 2
 346 500 l 1
 521 500 l 1
 505 416 l 1
 215 416 l 1
EndSplineSet
EndChar

StartChar: uni00B3
Encoding: 179 179 117
Width: 563
Flags: HW
LayerCount: 2
Fore
SplineSet
338 408 m 0
 291 408 251 418 219 439 c 1
 235 530 l 1
 265 505 304 491 351 491 c 0
 395 491 419 509 425 541 c 0
 431 575 413 596 359 596 c 2
 314 596 l 1
 328 671 l 1
 366 671 l 2
 419 671 442 694 448 725 c 0
 453 753 440 771 406 771 c 0
 375 771 347 761 312 735 c 1
 280 799 l 1
 324 833 375 853 430 853 c 0
 509 853 557 812 545 744 c 0
 537 696 506 662 454 642 c 1
 453 637 l 1
 507 623 529 585 519 530 c 0
 506 455 437 408 338 408 c 0
EndSplineSet
EndChar

StartChar: acute
Encoding: 180 180 118
Width: 563
Flags: HW
LayerCount: 2
Fore
SplineSet
316 619 m 1
 358 667 403 721 435 766 c 1
 587 766 l 1
 586 757 l 1
 548 719 462 646 406 606 c 1
 314 606 l 1
 316 619 l 1
EndSplineSet
EndChar

StartChar: uni00B5
Encoding: 181 181 119
Width: 563
GlyphClass: 2
Flags: HW
AnchorPoint: "Anchor-2" 640 546 basechar 0
AnchorPoint: "Anchor-1" 379 546 basechar 0
AnchorPoint: "Anchor-0" 282 0 basechar 0
LayerCount: 2
Fore
SplineSet
215 -10 m 0
 204 -10 193 -9 183 -8 c 1
 142 -240 l 1
 3 -240 l 1
 143 546 l 1
 282 546 l 1
 225 227 l 2
 212 152 223 109 288 109 c 0
 373 109 404 176 424 289 c 2
 470 546 l 1
 609 546 l 1
 512 0 l 1
 405 0 l 1
 395 70 l 1
 387 70 l 1
 348 19 287 -10 215 -10 c 0
EndSplineSet
EndChar

StartChar: paragraph
Encoding: 182 182 120
Width: 563
Flags: HW
LayerCount: 2
Fore
SplineSet
337 273 m 1
 321 267 302 264 279 264 c 0
 155 264 102 339 132 509 c 0
 163 683 248 760 382 760 c 2
 641 760 l 1
 483 -127 l 1
 409 -127 l 1
 553 682 l 1
 485 682 l 1
 341 -127 l 1
 266 -127 l 1
 337 273 l 1
EndSplineSet
EndChar

StartChar: periodcentered
Encoding: 183 183 121
Width: 563
Flags: HW
LayerCount: 2
Fore
SplineSet
328 261 m 0
 274 261 249 291 258 345 c 0
 268 401 303 430 358 430 c 0
 411 430 436 400 426 345 c 0
 417 293 380 261 328 261 c 0
EndSplineSet
EndChar

StartChar: cedilla
Encoding: 184 184 122
Width: 563
Flags: HW
LayerCount: 2
Fore
SplineSet
209 -240 m 0
 184 -240 159 -237 141 -231 c 1
 154 -158 l 1
 170 -164 188 -166 203 -166 c 0
 235 -166 257 -155 262 -127 c 0
 267 -98 246 -85 198 -80 c 1
 248 3 l 1
 322 3 l 1
 298 -38 l 1
 346 -50 372 -81 362 -136 c 0
 351 -198 303 -240 209 -240 c 0
EndSplineSet
EndChar

StartChar: uni00B9
Encoding: 185 185 123
Width: 563
Flags: HW
LayerCount: 2
Fore
SplineSet
232 416 m 1
 244 480 l 1
 342 490 l 1
 368 635 l 2
 374 666 382 711 389 739 c 1
 379 732 361 722 349 715 c 2
 298 687 l 1
 267 757 l 1
 421 844 l 1
 497 844 l 1
 434 490 l 1
 525 481 l 1
 513 416 l 1
 232 416 l 1
EndSplineSet
EndChar

StartChar: ordmasculine
Encoding: 186 186 124
Width: 563
GlyphClass: 2
Flags: HW
AnchorPoint: "Anchor-1" 410 722 basechar 0
AnchorPoint: "Anchor-0" 346 368 basechar 0
LayerCount: 2
Fore
SplineSet
346 369 m 0
 255 369 206 435 226 546 c 0
 246 658 316 722 410 722 c 0
 499 722 551 658 531 546 c 0
 511 434 441 369 346 369 c 0
360 445 m 0
 401 445 425 478 437 546 c 0
 449 613 436 646 395 646 c 0
 355 646 331 613 319 546 c 0
 307 478 319 445 360 445 c 0
EndSplineSet
EndChar

StartChar: guillemotright
Encoding: 187 187 125
Width: 563
Flags: HW
LayerCount: 2
Fore
SplineSet
230 494 m 1
 351 277 l 1
 349 263 l 1
 150 46 l 1
 65 97 l 1
 208 270 l 1
 126 443 l 1
 230 494 l 1
444 494 m 1
 566 277 l 1
 564 263 l 1
 364 46 l 1
 279 97 l 1
 423 270 l 1
 340 443 l 1
 444 494 l 1
EndSplineSet
EndChar

StartChar: onequarter
Encoding: 188 188 126
Width: 563
Flags: HW
LayerCount: 2
Fore
SplineSet
99 379 m 1
 110 440 l 1
 182 446 l 1
 199 540 l 2
 204 567 210 599 216 626 c 1
 205 618 193 609 183 603 c 2
 148 584 l 1
 123 648 l 1
 243 714 l 1
 306 714 l 1
 258 446 l 1
 328 440 l 1
 317 379 l 1
 99 379 l 1
51 70 m 1
 538 621 l 1
 645 621 l 1
 159 70 l 1
 51 70 l 1
416 0 m 1
 427 63 l 1
 292 63 l 1
 304 125 l 1
 470 337 l 1
 554 337 l 1
 516 129 l 1
 564 129 l 1
 553 63 l 1
 505 63 l 1
 494 0 l 1
 416 0 l 1
371 129 m 1
 438 129 l 1
 451 196 l 2
 455 218 460 232 463 252 c 1
 454 235 440 216 430 204 c 2
 371 129 l 1
EndSplineSet
EndChar

StartChar: onehalf
Encoding: 189 189 127
Width: 563
Flags: HW
LayerCount: 2
Fore
SplineSet
99 379 m 1
 110 440 l 1
 182 446 l 1
 199 540 l 2
 204 567 210 599 216 626 c 1
 205 618 193 609 183 603 c 2
 148 584 l 1
 123 648 l 1
 243 714 l 1
 306 714 l 1
 258 446 l 1
 328 440 l 1
 317 379 l 1
 99 379 l 1
51 70 m 1
 538 621 l 1
 645 621 l 1
 159 70 l 1
 51 70 l 1
325 0 m 1
 336 67 l 1
 425 149 l 2
 478 198 493 212 498 238 c 0
 502 261 491 274 469 274 c 0
 447 274 428 262 404 241 c 1
 374 295 l 1
 405 323 446 344 495 344 c 0
 562 344 591 306 580 247 c 0
 571 193 530 161 464 99 c 2
 432 72 l 1
 561 72 l 1
 549 0 l 1
 325 0 l 1
EndSplineSet
EndChar

StartChar: threequarters
Encoding: 190 190 128
Width: 563
Flags: HW
LayerCount: 2
Fore
SplineSet
198 374 m 0
 161 374 129 380 106 397 c 1
 120 474 l 1
 145 453 175 444 205 444 c 0
 239 444 257 457 262 483 c 0
 266 507 254 519 216 519 c 2
 178 519 l 1
 190 583 l 1
 222 583 l 2
 259 583 275 597 279 620 c 0
 283 642 274 656 250 656 c 0
 227 656 205 646 179 627 c 1
 152 681 l 1
 187 707 226 723 271 723 c 0
 337 723 369 689 360 637 c 0
 352 597 331 570 297 557 c 1
 297 554 l 1
 333 543 346 518 339 475 c 0
 328 413 276 374 198 374 c 0
51 70 m 1
 538 621 l 1
 645 621 l 1
 159 70 l 1
 51 70 l 1
416 0 m 1
 427 63 l 1
 292 63 l 1
 304 125 l 1
 470 337 l 1
 554 337 l 1
 516 129 l 1
 564 129 l 1
 553 63 l 1
 505 63 l 1
 494 0 l 1
 416 0 l 1
371 129 m 1
 438 129 l 1
 451 196 l 2
 455 218 460 232 463 252 c 1
 454 235 440 216 430 204 c 2
 371 129 l 1
EndSplineSet
EndChar

StartChar: questiondown
Encoding: 191 191 129
Width: 563
Flags: HW
LayerCount: 2
Fore
SplineSet
388 539 m 0
 442 539 467 509 458 455 c 0
 448 399 413 370 358 370 c 0
 305 370 280 400 290 455 c 0
 299 508 336 539 388 539 c 0
399 260 m 2
 386 191 355 152 290 105 c 0
 233 65 206 36 198 -11 c 0
 190 -56 214 -79 263 -79 c 0
 306 -79 351 -63 414 -32 c 1
 445 -135 l 1
 369 -175 304 -195 232 -195 c 0
 114 -195 43 -133 63 -20 c 0
 78 66 117 106 198 165 c 0
 254 206 274 224 282 269 c 2
 287 296 l 1
 406 296 l 1
 399 260 l 2
EndSplineSet
Substitution2: "'smcp' Lowercase to Small Capitals lookup 35 subtable" questiondown.sc
Substitution2: "'c2sc' Capitals to Small Capitals lookup 34 subtable" questiondown.sc
Substitution2: "'aalt' Access All Alternates lookup 0 subtable" questiondown.sc
EndChar

StartChar: Agrave
Encoding: 192 192 130
Width: 563
GlyphClass: 2
Flags: HW
AnchorPoint: "Anchor-2" 670 714 basechar 0
AnchorPoint: "Anchor-1" 448 934 basechar 0
AnchorPoint: "Anchor-0" 282 0 basechar 0
LayerCount: 2
Fore
SplineSet
424 774 m 1
 390 806 321 888 299 925 c 1
 300 934 l 1
 451 934 l 1
 466 891 499 820 518 787 c 1
 516 774 l 1
 424 774 l 1
10 0 m 1
 316 717 l 1
 500 717 l 1
 553 0 l 1
 414 0 l 1
 406 176 l 1
 218 176 l 1
 148 0 l 1
 10 0 l 1
338 473 m 2
 267 295 l 1
 402 295 l 1
 394 472 l 2
 391 515 391 563 390 606 c 1
 375 563 355 513 338 473 c 2
EndSplineSet
Substitution2: "'c2sc' Capitals to Small Capitals lookup 34 subtable" agrave.sc
Substitution2: "'aalt' Access All Alternates lookup 0 subtable" agrave.sc
EndChar

StartChar: Aacute
Encoding: 193 193 131
Width: 563
GlyphClass: 2
Flags: HW
AnchorPoint: "Anchor-2" 670 714 basechar 0
AnchorPoint: "Anchor-1" 448 934 basechar 0
AnchorPoint: "Anchor-0" 282 0 basechar 0
LayerCount: 2
Fore
SplineSet
355 787 m 1
 398 835 443 889 474 934 c 1
 626 934 l 1
 625 925 l 1
 587 887 501 814 446 774 c 1
 353 774 l 1
 355 787 l 1
10 0 m 1
 316 717 l 1
 500 717 l 1
 553 0 l 1
 414 0 l 1
 406 176 l 1
 218 176 l 1
 148 0 l 1
 10 0 l 1
338 473 m 2
 267 295 l 1
 402 295 l 1
 394 472 l 2
 391 515 391 563 390 606 c 1
 375 563 355 513 338 473 c 2
EndSplineSet
Substitution2: "'c2sc' Capitals to Small Capitals lookup 34 subtable" aacute.sc
Substitution2: "'aalt' Access All Alternates lookup 0 subtable" aacute.sc
EndChar

StartChar: Acircumflex
Encoding: 194 194 132
Width: 563
GlyphClass: 2
Flags: HW
AnchorPoint: "Anchor-2" 670 714 basechar 0
AnchorPoint: "Anchor-1" 448 934 basechar 0
AnchorPoint: "Anchor-0" 282 0 basechar 0
LayerCount: 2
Fore
SplineSet
250 787 m 1
 291 826 351 894 381 934 c 1
 515 934 l 1
 532 890 564 832 593 787 c 1
 591 774 l 1
 508 774 l 1
 484 795 458 823 433 858 c 1
 396 823 360 793 332 774 c 1
 248 774 l 1
 250 787 l 1
10 0 m 1
 316 717 l 1
 500 717 l 1
 553 0 l 1
 414 0 l 1
 406 176 l 1
 218 176 l 1
 148 0 l 1
 10 0 l 1
338 473 m 2
 267 295 l 1
 402 295 l 1
 394 472 l 2
 391 515 391 563 390 606 c 1
 375 563 355 513 338 473 c 2
EndSplineSet
Substitution2: "'c2sc' Capitals to Small Capitals lookup 34 subtable" acircumflex.sc
Substitution2: "'aalt' Access All Alternates lookup 0 subtable" acircumflex.sc
EndChar

StartChar: Atilde
Encoding: 195 195 133
Width: 563
GlyphClass: 2
Flags: HW
AnchorPoint: "Anchor-2" 670 714 basechar 0
AnchorPoint: "Anchor-1" 446 922 basechar 0
AnchorPoint: "Anchor-0" 282 0 basechar 0
LayerCount: 2
Fore
SplineSet
239 773 m 1
 257 849 299 921 368 921 c 0
 424 921 463 870 508 870 c 0
 531 870 542 888 555 922 c 1
 625 922 l 1
 604 826 553 774 497 774 c 0
 444 774 396 825 356 825 c 0
 334 825 322 809 310 773 c 1
 239 773 l 1
10 0 m 1
 316 717 l 1
 500 717 l 1
 553 0 l 1
 414 0 l 1
 406 176 l 1
 218 176 l 1
 148 0 l 1
 10 0 l 1
338 473 m 2
 267 295 l 1
 402 295 l 1
 394 472 l 2
 391 515 391 563 390 606 c 1
 375 563 355 513 338 473 c 2
EndSplineSet
Substitution2: "'c2sc' Capitals to Small Capitals lookup 34 subtable" atilde.sc
Substitution2: "'aalt' Access All Alternates lookup 0 subtable" atilde.sc
EndChar

StartChar: Adieresis
Encoding: 196 196 134
Width: 563
GlyphClass: 2
Flags: HW
AnchorPoint: "Anchor-2" 670 714 basechar 0
AnchorPoint: "Anchor-1" 444 915 basechar 0
AnchorPoint: "Anchor-0" 282 0 basechar 0
LayerCount: 2
Fore
SplineSet
525 775 m 0
 486 775 463 800 471 846 c 0
 479 893 510 915 549 915 c 0
 588 915 613 891 605 846 c 0
 597 801 564 775 525 775 c 0
312 775 m 0
 274 775 250 799 258 846 c 0
 266 893 298 915 336 915 c 0
 375 915 399 891 391 846 c 0
 383 801 351 775 312 775 c 0
10 0 m 1
 316 717 l 1
 500 717 l 1
 553 0 l 1
 414 0 l 1
 406 176 l 1
 218 176 l 1
 148 0 l 1
 10 0 l 1
338 473 m 2
 267 295 l 1
 402 295 l 1
 394 472 l 2
 391 515 391 563 390 606 c 1
 375 563 355 513 338 473 c 2
EndSplineSet
Substitution2: "'c2sc' Capitals to Small Capitals lookup 34 subtable" adieresis.sc
Substitution2: "'aalt' Access All Alternates lookup 0 subtable" adieresis.sc
EndChar

StartChar: Aring
Encoding: 197 197 135
Width: 563
GlyphClass: 2
Flags: HW
AnchorPoint: "Anchor-2" 670 714 basechar 0
AnchorPoint: "Anchor-1" 460 1002 basechar 0
AnchorPoint: "Anchor-0" 282 0 basechar 0
LayerCount: 2
Fore
SplineSet
419 774 m 0
 348 774 309 819 322 888 c 0
 335 957 388 1002 459 1002 c 0
 527 1002 569 956 557 889 c 0
 545 821 489 774 419 774 c 0
431 842 m 0
 457 842 481 860 486 888 c 0
 491 916 475 934 447 934 c 0
 420 934 397 916 392 888 c 0
 387 860 401 842 431 842 c 0
10 0 m 1
 316 717 l 1
 500 717 l 1
 553 0 l 1
 414 0 l 1
 406 176 l 1
 218 176 l 1
 148 0 l 1
 10 0 l 1
338 473 m 2
 267 295 l 1
 402 295 l 1
 394 472 l 2
 391 515 391 563 390 606 c 1
 375 563 355 513 338 473 c 2
EndSplineSet
Substitution2: "'c2sc' Capitals to Small Capitals lookup 34 subtable" aring.sc
Substitution2: "'aalt' Access All Alternates lookup 0 subtable" aring.sc
EndChar

StartChar: AE
Encoding: 198 198 136
Width: 563
GlyphClass: 2
Flags: HW
AnchorPoint: "Anchor-1" 440 714 basechar 0
AnchorPoint: "Anchor-0" 282 0 basechar 0
LayerCount: 2
Fore
SplineSet
10 0 m 1
 294 714 l 1
 664 714 l 1
 642 592 l 1
 518 592 l 1
 490 433 l 1
 597 433 l 1
 575 310 l 1
 468 310 l 1
 435 122 l 1
 559 122 l 1
 537 0 l 1
 291 0 l 1
 322 176 l 1
 209 176 l 1
 143 0 l 1
 10 0 l 1
367 595 m 1
 255 298 l 1
 344 298 l 1
 396 595 l 1
 367 595 l 1
EndSplineSet
Substitution2: "'c2sc' Capitals to Small Capitals lookup 34 subtable" ae.sc
Substitution2: "'aalt' Access All Alternates lookup 0 subtable" ae.sc
EndChar

StartChar: Ccedilla
Encoding: 199 199 137
Width: 563
GlyphClass: 2
Flags: HW
AnchorPoint: "Anchor-2" 670 714 basechar 0
AnchorPoint: "Anchor-1" 463 714 basechar 0
AnchorPoint: "Anchor-0" 269 -240 basechar 0
LayerCount: 2
Fore
SplineSet
250 -240 m 0
 225 -240 200 -237 182 -231 c 1
 195 -158 l 1
 211 -164 229 -166 244 -166 c 0
 276 -166 298 -155 303 -127 c 0
 308 -98 287 -85 239 -80 c 1
 281 -8 l 1
 126 16 72 148 107 347 c 0
 147 575 286 725 490 725 c 0
 555 725 604 710 652 682 c 1
 587 567 l 1
 546 590 509 600 469 600 c 0
 343 600 275 498 249 351 c 0
 221 190 263 113 379 113 c 0
 426 113 469 124 530 151 c 1
 507 24 l 1
 458 3 406 -9 354 -11 c 1
 339 -38 l 1
 387 -50 413 -81 403 -136 c 0
 392 -198 344 -240 250 -240 c 0
EndSplineSet
Substitution2: "'c2sc' Capitals to Small Capitals lookup 34 subtable" ccedilla.sc
Substitution2: "'aalt' Access All Alternates lookup 0 subtable" ccedilla.sc
EndChar

StartChar: Egrave
Encoding: 200 200 138
Width: 563
GlyphClass: 2
Flags: HW
AnchorPoint: "Anchor-2" 670 714 basechar 0
AnchorPoint: "Anchor-1" 448 934 basechar 0
AnchorPoint: "Anchor-0" 282 0 basechar 0
LayerCount: 2
Fore
SplineSet
430 774 m 1
 395 806 327 888 304 925 c 1
 305 934 l 1
 457 934 l 1
 472 891 505 820 524 787 c 1
 522 774 l 1
 430 774 l 1
71 0 m 1
 198 714 l 1
 628 714 l 1
 606 591 l 1
 311 591 l 1
 282 429 l 1
 561 429 l 1
 539 306 l 1
 260 306 l 1
 228 123 l 1
 523 123 l 1
 501 0 l 1
 71 0 l 1
EndSplineSet
Substitution2: "'c2sc' Capitals to Small Capitals lookup 34 subtable" egrave.sc
Substitution2: "'aalt' Access All Alternates lookup 0 subtable" egrave.sc
EndChar

StartChar: Eacute
Encoding: 201 201 139
Width: 563
GlyphClass: 2
Flags: HW
AnchorPoint: "Anchor-2" 670 714 basechar 0
AnchorPoint: "Anchor-1" 448 934 basechar 0
AnchorPoint: "Anchor-0" 282 0 basechar 0
LayerCount: 2
Fore
SplineSet
361 787 m 1
 403 835 448 889 480 934 c 1
 632 934 l 1
 631 925 l 1
 593 887 507 814 451 774 c 1
 359 774 l 1
 361 787 l 1
71 0 m 1
 198 714 l 1
 628 714 l 1
 606 591 l 1
 311 591 l 1
 282 429 l 1
 561 429 l 1
 539 306 l 1
 260 306 l 1
 228 123 l 1
 523 123 l 1
 501 0 l 1
 71 0 l 1
EndSplineSet
Substitution2: "'c2sc' Capitals to Small Capitals lookup 34 subtable" eacute.sc
Substitution2: "'aalt' Access All Alternates lookup 0 subtable" eacute.sc
EndChar

StartChar: Ecircumflex
Encoding: 202 202 140
Width: 563
GlyphClass: 2
Flags: HW
AnchorPoint: "Anchor-2" 670 714 basechar 0
AnchorPoint: "Anchor-1" 448 934 basechar 0
AnchorPoint: "Anchor-0" 282 0 basechar 0
LayerCount: 2
Fore
SplineSet
256 787 m 1
 296 826 357 894 387 934 c 1
 521 934 l 1
 538 890 570 832 598 787 c 1
 596 774 l 1
 514 774 l 1
 490 795 463 823 439 858 c 1
 402 823 366 793 338 774 c 1
 254 774 l 1
 256 787 l 1
71 0 m 1
 198 714 l 1
 628 714 l 1
 606 591 l 1
 311 591 l 1
 282 429 l 1
 561 429 l 1
 539 306 l 1
 260 306 l 1
 228 123 l 1
 523 123 l 1
 501 0 l 1
 71 0 l 1
EndSplineSet
Substitution2: "'c2sc' Capitals to Small Capitals lookup 34 subtable" ecircumflex.sc
Substitution2: "'aalt' Access All Alternates lookup 0 subtable" ecircumflex.sc
EndChar

StartChar: Edieresis
Encoding: 203 203 141
Width: 563
GlyphClass: 2
Flags: HW
AnchorPoint: "Anchor-2" 670 714 basechar 0
AnchorPoint: "Anchor-1" 447 915 basechar 0
AnchorPoint: "Anchor-0" 282 0 basechar 0
LayerCount: 2
Fore
SplineSet
531 775 m 0
 492 775 468 800 476 846 c 0
 484 893 516 915 555 915 c 0
 594 915 619 891 611 846 c 0
 603 801 570 775 531 775 c 0
318 775 m 0
 279 775 255 799 263 846 c 0
 271 893 303 915 342 915 c 0
 380 915 405 891 397 846 c 0
 389 801 356 775 318 775 c 0
71 0 m 1
 198 714 l 1
 628 714 l 1
 606 591 l 1
 311 591 l 1
 282 429 l 1
 561 429 l 1
 539 306 l 1
 260 306 l 1
 228 123 l 1
 523 123 l 1
 501 0 l 1
 71 0 l 1
EndSplineSet
Substitution2: "'c2sc' Capitals to Small Capitals lookup 34 subtable" edieresis.sc
Substitution2: "'aalt' Access All Alternates lookup 0 subtable" edieresis.sc
EndChar

StartChar: Igrave
Encoding: 204 204 142
Width: 563
GlyphClass: 2
Flags: HW
AnchorPoint: "Anchor-2" 670 714 basechar 0
AnchorPoint: "Anchor-1" 448 934 basechar 0
AnchorPoint: "Anchor-0" 282 0 basechar 0
LayerCount: 2
Fore
SplineSet
424 774 m 1
 390 806 321 888 299 925 c 1
 300 934 l 1
 451 934 l 1
 466 891 499 820 518 787 c 1
 516 774 l 1
 424 774 l 1
79 0 m 1
 97 100 l 1
 234 115 l 1
 321 600 l 1
 189 614 l 1
 206 714 l 1
 611 714 l 1
 594 614 l 1
 454 600 l 1
 367 115 l 1
 502 100 l 1
 484 0 l 1
 79 0 l 1
EndSplineSet
Substitution2: "'c2sc' Capitals to Small Capitals lookup 34 subtable" igrave.sc
Substitution2: "'aalt' Access All Alternates lookup 0 subtable" igrave.sc
EndChar

StartChar: Iacute
Encoding: 205 205 143
Width: 563
GlyphClass: 2
Flags: HW
AnchorPoint: "Anchor-2" 670 714 basechar 0
AnchorPoint: "Anchor-1" 448 934 basechar 0
AnchorPoint: "Anchor-0" 282 0 basechar 0
LayerCount: 2
Fore
SplineSet
355 787 m 1
 398 835 443 889 474 934 c 1
 626 934 l 1
 625 925 l 1
 587 887 501 814 446 774 c 1
 353 774 l 1
 355 787 l 1
79 0 m 1
 97 100 l 1
 234 115 l 1
 321 600 l 1
 189 614 l 1
 206 714 l 1
 611 714 l 1
 594 614 l 1
 454 600 l 1
 367 115 l 1
 502 100 l 1
 484 0 l 1
 79 0 l 1
EndSplineSet
Substitution2: "'c2sc' Capitals to Small Capitals lookup 34 subtable" iacute.sc
Substitution2: "'aalt' Access All Alternates lookup 0 subtable" iacute.sc
EndChar

StartChar: Icircumflex
Encoding: 206 206 144
Width: 563
GlyphClass: 2
Flags: HW
AnchorPoint: "Anchor-2" 670 714 basechar 0
AnchorPoint: "Anchor-1" 448 934 basechar 0
AnchorPoint: "Anchor-0" 282 0 basechar 0
LayerCount: 2
Fore
SplineSet
250 787 m 1
 291 826 351 894 381 934 c 1
 515 934 l 1
 532 890 564 832 593 787 c 1
 591 774 l 1
 508 774 l 1
 484 795 458 823 433 858 c 1
 396 823 360 793 332 774 c 1
 248 774 l 1
 250 787 l 1
79 0 m 1
 97 100 l 1
 234 115 l 1
 321 600 l 1
 189 614 l 1
 206 714 l 1
 611 714 l 1
 594 614 l 1
 454 600 l 1
 367 115 l 1
 502 100 l 1
 484 0 l 1
 79 0 l 1
EndSplineSet
Substitution2: "'c2sc' Capitals to Small Capitals lookup 34 subtable" icircumflex.sc
Substitution2: "'aalt' Access All Alternates lookup 0 subtable" icircumflex.sc
EndChar

StartChar: Idieresis
Encoding: 207 207 145
Width: 563
GlyphClass: 2
Flags: HW
AnchorPoint: "Anchor-2" 670 714 basechar 0
AnchorPoint: "Anchor-1" 444 915 basechar 0
AnchorPoint: "Anchor-0" 282 0 basechar 0
LayerCount: 2
Fore
SplineSet
525 775 m 0
 486 775 463 800 471 846 c 0
 479 893 510 915 549 915 c 0
 588 915 613 891 605 846 c 0
 597 801 564 775 525 775 c 0
312 775 m 0
 274 775 250 799 258 846 c 0
 266 893 298 915 336 915 c 0
 375 915 399 891 391 846 c 0
 383 801 351 775 312 775 c 0
79 0 m 1
 97 100 l 1
 234 115 l 1
 321 600 l 1
 189 614 l 1
 206 714 l 1
 611 714 l 1
 594 614 l 1
 454 600 l 1
 367 115 l 1
 502 100 l 1
 484 0 l 1
 79 0 l 1
EndSplineSet
Substitution2: "'c2sc' Capitals to Small Capitals lookup 34 subtable" idieresis.sc
Substitution2: "'aalt' Access All Alternates lookup 0 subtable" idieresis.sc
EndChar

StartChar: Eth
Encoding: 208 208 146
Width: 563
GlyphClass: 2
Flags: HW
AnchorPoint: "Anchor-3" 354 357 basechar 0
AnchorPoint: "Anchor-2" 694 714 basechar 0
AnchorPoint: "Anchor-1" 409 714 basechar 0
AnchorPoint: "Anchor-0" 282 0 basechar 0
LayerCount: 2
Fore
SplineSet
45 0 m 1
 98 303 l 1
 53 303 l 1
 74 414 l 1
 119 414 l 1
 172 714 l 1
 379 714 l 2
 558 714 646 594 606 366 c 0
 564 130 429 0 242 0 c 2
 45 0 l 1
256 122 m 2
 369 122 434 200 463 363 c 0
 491 523 452 592 349 592 c 2
 288 592 l 1
 257 414 l 1
 354 414 l 1
 333 303 l 1
 236 303 l 1
 205 122 l 1
 256 122 l 2
EndSplineSet
Substitution2: "'c2sc' Capitals to Small Capitals lookup 34 subtable" eth.sc
Substitution2: "'aalt' Access All Alternates lookup 0 subtable" eth.sc
EndChar

StartChar: Ntilde
Encoding: 209 209 147
Width: 563
GlyphClass: 2
Flags: HW
AnchorPoint: "Anchor-2" 690 714 basechar 0
AnchorPoint: "Anchor-1" 446 922 basechar 0
AnchorPoint: "Anchor-0" 282 0 basechar 0
LayerCount: 2
Fore
SplineSet
244 773 m 1
 262 849 304 921 373 921 c 0
 429 921 468 870 513 870 c 0
 536 870 547 888 560 922 c 1
 630 922 l 1
 609 826 558 774 502 774 c 0
 449 774 401 825 361 825 c 0
 339 825 327 809 315 773 c 1
 244 773 l 1
41 0 m 1
 168 714 l 1
 365 714 l 1
 425 137 l 1
 430 137 l 1
 439 221 453 332 462 382 c 2
 521 714 l 1
 649 714 l 1
 522 0 l 1
 327 0 l 1
 266 581 l 1
 261 581 l 1
 252 494 239 399 232 355 c 2
 169 0 l 1
 41 0 l 1
EndSplineSet
Substitution2: "'c2sc' Capitals to Small Capitals lookup 34 subtable" ntilde.sc
Substitution2: "'aalt' Access All Alternates lookup 0 subtable" ntilde.sc
EndChar

StartChar: Ograve
Encoding: 210 210 148
Width: 563
GlyphClass: 2
Flags: HW
AnchorPoint: "Anchor-3" 346 357 basechar 0
AnchorPoint: "Anchor-2" 690 714 basechar 0
AnchorPoint: "Anchor-1" 448 934 basechar 0
AnchorPoint: "Anchor-0" 282 0 basechar 0
LayerCount: 2
Fore
SplineSet
424 774 m 1
 390 806 321 888 299 925 c 1
 300 934 l 1
 451 934 l 1
 466 891 499 820 518 787 c 1
 516 774 l 1
 424 774 l 1
280 -9 m 0
 104 -9 49 131 89 358 c 0
 131 593 238 726 411 726 c 0
 586 726 641 587 600 358 c 0
 560 130 455 -9 280 -9 c 0
302 113 m 0
 381 113 429 196 458 359 c 0
 486 521 469 604 389 604 c 0
 309 604 259 518 231 358 c 0
 203 198 221 113 302 113 c 0
EndSplineSet
Substitution2: "'c2sc' Capitals to Small Capitals lookup 34 subtable" ograve.sc
Substitution2: "'aalt' Access All Alternates lookup 0 subtable" ograve.sc
EndChar

StartChar: Oacute
Encoding: 211 211 149
Width: 563
GlyphClass: 2
Flags: HW
AnchorPoint: "Anchor-3" 346 357 basechar 0
AnchorPoint: "Anchor-2" 690 714 basechar 0
AnchorPoint: "Anchor-1" 448 934 basechar 0
AnchorPoint: "Anchor-0" 282 0 basechar 0
LayerCount: 2
Fore
SplineSet
355 787 m 1
 398 835 443 889 474 934 c 1
 626 934 l 1
 625 925 l 1
 587 887 501 814 446 774 c 1
 353 774 l 1
 355 787 l 1
280 -9 m 0
 104 -9 49 131 89 358 c 0
 131 593 238 726 411 726 c 0
 586 726 641 587 600 358 c 0
 560 130 455 -9 280 -9 c 0
302 113 m 0
 381 113 429 196 458 359 c 0
 486 521 469 604 389 604 c 0
 309 604 259 518 231 358 c 0
 203 198 221 113 302 113 c 0
EndSplineSet
Substitution2: "'c2sc' Capitals to Small Capitals lookup 34 subtable" oacute.sc
Substitution2: "'aalt' Access All Alternates lookup 0 subtable" oacute.sc
EndChar

StartChar: Ocircumflex
Encoding: 212 212 150
Width: 563
GlyphClass: 2
Flags: HW
AnchorPoint: "Anchor-3" 346 357 basechar 0
AnchorPoint: "Anchor-2" 690 714 basechar 0
AnchorPoint: "Anchor-1" 448 934 basechar 0
AnchorPoint: "Anchor-0" 282 0 basechar 0
LayerCount: 2
Fore
SplineSet
250 787 m 1
 291 826 351 894 381 934 c 1
 515 934 l 1
 532 890 564 832 593 787 c 1
 591 774 l 1
 508 774 l 1
 484 795 458 823 433 858 c 1
 396 823 360 793 332 774 c 1
 248 774 l 1
 250 787 l 1
280 -9 m 0
 104 -9 49 131 89 358 c 0
 131 593 238 726 411 726 c 0
 586 726 641 587 600 358 c 0
 560 130 455 -9 280 -9 c 0
302 113 m 0
 381 113 429 196 458 359 c 0
 486 521 469 604 389 604 c 0
 309 604 259 518 231 358 c 0
 203 198 221 113 302 113 c 0
EndSplineSet
Substitution2: "'c2sc' Capitals to Small Capitals lookup 34 subtable" ocircumflex.sc
Substitution2: "'aalt' Access All Alternates lookup 0 subtable" ocircumflex.sc
EndChar

StartChar: Otilde
Encoding: 213 213 151
Width: 563
GlyphClass: 2
Flags: HW
AnchorPoint: "Anchor-3" 346 357 basechar 0
AnchorPoint: "Anchor-2" 690 714 basechar 0
AnchorPoint: "Anchor-1" 446 922 basechar 0
AnchorPoint: "Anchor-0" 282 0 basechar 0
LayerCount: 2
Fore
SplineSet
239 773 m 1
 257 849 299 921 368 921 c 0
 424 921 463 870 508 870 c 0
 531 870 542 888 555 922 c 1
 625 922 l 1
 604 826 553 774 497 774 c 0
 444 774 396 825 356 825 c 0
 334 825 322 809 310 773 c 1
 239 773 l 1
280 -9 m 0
 104 -9 49 131 89 358 c 0
 131 593 238 726 411 726 c 0
 586 726 641 587 600 358 c 0
 560 130 455 -9 280 -9 c 0
302 113 m 0
 381 113 429 196 458 359 c 0
 486 521 469 604 389 604 c 0
 309 604 259 518 231 358 c 0
 203 198 221 113 302 113 c 0
EndSplineSet
Substitution2: "'c2sc' Capitals to Small Capitals lookup 34 subtable" otilde.sc
Substitution2: "'aalt' Access All Alternates lookup 0 subtable" otilde.sc
EndChar

StartChar: Odieresis
Encoding: 214 214 152
Width: 563
GlyphClass: 2
Flags: HW
AnchorPoint: "Anchor-3" 346 357 basechar 0
AnchorPoint: "Anchor-2" 690 714 basechar 0
AnchorPoint: "Anchor-1" 444 915 basechar 0
AnchorPoint: "Anchor-0" 282 0 basechar 0
LayerCount: 2
Fore
SplineSet
525 775 m 0
 486 775 463 800 471 846 c 0
 479 893 510 915 549 915 c 0
 588 915 613 891 605 846 c 0
 597 801 564 775 525 775 c 0
312 775 m 0
 274 775 250 799 258 846 c 0
 266 893 298 915 336 915 c 0
 375 915 399 891 391 846 c 0
 383 801 351 775 312 775 c 0
280 -9 m 0
 104 -9 49 131 89 358 c 0
 131 593 238 726 411 726 c 0
 586 726 641 587 600 358 c 0
 560 130 455 -9 280 -9 c 0
302 113 m 0
 381 113 429 196 458 359 c 0
 486 521 469 604 389 604 c 0
 309 604 259 518 231 358 c 0
 203 198 221 113 302 113 c 0
EndSplineSet
Substitution2: "'c2sc' Capitals to Small Capitals lookup 34 subtable" odieresis.sc
Substitution2: "'aalt' Access All Alternates lookup 0 subtable" odieresis.sc
EndChar

StartChar: multiply
Encoding: 215 215 153
Width: 563
Flags: HW
LayerCount: 2
Fore
SplineSet
167 141 m 1
 108 216 l 1
 269 353 l 1
 156 490 l 1
 242 565 l 1
 357 429 l 1
 520 565 l 1
 582 492 l 1
 418 353 l 1
 530 215 l 1
 444 141 l 1
 330 279 l 1
 167 141 l 1
EndSplineSet
EndChar

StartChar: Oslash
Encoding: 216 216 154
Width: 563
GlyphClass: 2
Flags: HW
AnchorPoint: "Anchor-3" 346 357 basechar 0
AnchorPoint: "Anchor-2" 690 714 basechar 0
AnchorPoint: "Anchor-1" 409 714 basechar 0
AnchorPoint: "Anchor-0" 282 0 basechar 0
LayerCount: 2
Fore
SplineSet
81 -46 m 1
 16 -2 l 1
 98 103 l 1
 73 166 70 252 89 358 c 0
 131 593 238 726 411 726 c 0
 471 726 517 710 549 679 c 1
 607 752 l 1
 671 709 l 1
 595 611 l 1
 618 548 618 463 600 358 c 0
 560 130 455 -9 280 -9 c 0
 221 -9 177 6 144 35 c 1
 81 -46 l 1
231 358 m 0
 224 321 221 287 220 258 c 1
 457 562 l 1
 444 590 422 604 389 604 c 0
 309 604 259 518 231 358 c 0
302 113 m 0
 381 113 429 196 458 359 c 0
 464 394 469 425 470 453 c 1
 235 151 l 1
 249 126 270 113 302 113 c 0
EndSplineSet
Substitution2: "'c2sc' Capitals to Small Capitals lookup 34 subtable" oslash.sc
Substitution2: "'aalt' Access All Alternates lookup 0 subtable" oslash.sc
EndChar

StartChar: Ugrave
Encoding: 217 217 155
Width: 563
GlyphClass: 2
Flags: HW
AnchorPoint: "Anchor-2" 670 714 basechar 0
AnchorPoint: "Anchor-1" 448 934 basechar 0
AnchorPoint: "Anchor-0" 282 0 basechar 0
LayerCount: 2
Fore
SplineSet
424 774 m 1
 390 806 321 888 299 925 c 1
 300 934 l 1
 451 934 l 1
 466 891 499 820 518 787 c 1
 516 774 l 1
 424 774 l 1
277 -10 m 0
 122 -10 54 77 82 231 c 2
 168 714 l 1
 307 714 l 1
 225 255 l 2
 207 152 233 112 301 112 c 0
 373 112 410 153 428 256 c 2
 510 714 l 1
 649 714 l 1
 563 229 l 2
 537 82 439 -10 277 -10 c 0
EndSplineSet
Substitution2: "'c2sc' Capitals to Small Capitals lookup 34 subtable" ugrave.sc
Substitution2: "'aalt' Access All Alternates lookup 0 subtable" ugrave.sc
EndChar

StartChar: Uacute
Encoding: 218 218 156
Width: 563
GlyphClass: 2
Flags: HW
AnchorPoint: "Anchor-2" 670 714 basechar 0
AnchorPoint: "Anchor-1" 448 934 basechar 0
AnchorPoint: "Anchor-0" 282 0 basechar 0
LayerCount: 2
Fore
SplineSet
355 787 m 1
 398 835 443 889 474 934 c 1
 626 934 l 1
 625 925 l 1
 587 887 501 814 446 774 c 1
 353 774 l 1
 355 787 l 1
277 -10 m 0
 122 -10 54 77 82 231 c 2
 168 714 l 1
 307 714 l 1
 225 255 l 2
 207 152 233 112 301 112 c 0
 373 112 410 153 428 256 c 2
 510 714 l 1
 649 714 l 1
 563 229 l 2
 537 82 439 -10 277 -10 c 0
EndSplineSet
Substitution2: "'c2sc' Capitals to Small Capitals lookup 34 subtable" uacute.sc
Substitution2: "'aalt' Access All Alternates lookup 0 subtable" uacute.sc
EndChar

StartChar: Ucircumflex
Encoding: 219 219 157
Width: 563
GlyphClass: 2
Flags: HW
AnchorPoint: "Anchor-2" 670 714 basechar 0
AnchorPoint: "Anchor-1" 448 934 basechar 0
AnchorPoint: "Anchor-0" 282 0 basechar 0
LayerCount: 2
Fore
SplineSet
250 787 m 1
 291 826 351 894 381 934 c 1
 515 934 l 1
 532 890 564 832 593 787 c 1
 591 774 l 1
 508 774 l 1
 484 795 458 823 433 858 c 1
 396 823 360 793 332 774 c 1
 248 774 l 1
 250 787 l 1
277 -10 m 0
 122 -10 54 77 82 231 c 2
 168 714 l 1
 307 714 l 1
 225 255 l 2
 207 152 233 112 301 112 c 0
 373 112 410 153 428 256 c 2
 510 714 l 1
 649 714 l 1
 563 229 l 2
 537 82 439 -10 277 -10 c 0
EndSplineSet
Substitution2: "'c2sc' Capitals to Small Capitals lookup 34 subtable" ucircumflex.sc
Substitution2: "'aalt' Access All Alternates lookup 0 subtable" ucircumflex.sc
EndChar

StartChar: Udieresis
Encoding: 220 220 158
Width: 563
GlyphClass: 2
Flags: HW
AnchorPoint: "Anchor-2" 670 714 basechar 0
AnchorPoint: "Anchor-1" 444 915 basechar 0
AnchorPoint: "Anchor-0" 282 0 basechar 0
LayerCount: 2
Fore
SplineSet
525 775 m 0
 486 775 463 800 471 846 c 0
 479 893 510 915 549 915 c 0
 588 915 613 891 605 846 c 0
 597 801 564 775 525 775 c 0
312 775 m 0
 274 775 250 799 258 846 c 0
 266 893 298 915 336 915 c 0
 375 915 399 891 391 846 c 0
 383 801 351 775 312 775 c 0
277 -10 m 0
 122 -10 54 77 82 231 c 2
 168 714 l 1
 307 714 l 1
 225 255 l 2
 207 152 233 112 301 112 c 0
 373 112 410 153 428 256 c 2
 510 714 l 1
 649 714 l 1
 563 229 l 2
 537 82 439 -10 277 -10 c 0
EndSplineSet
Substitution2: "'c2sc' Capitals to Small Capitals lookup 34 subtable" udieresis.sc
Substitution2: "'aalt' Access All Alternates lookup 0 subtable" udieresis.sc
EndChar

StartChar: Yacute
Encoding: 221 221 159
Width: 563
GlyphClass: 2
Flags: HW
AnchorPoint: "Anchor-2" 670 714 basechar 0
AnchorPoint: "Anchor-1" 448 934 basechar 0
AnchorPoint: "Anchor-0" 282 0 basechar 0
LayerCount: 2
Fore
SplineSet
355 787 m 1
 398 835 443 889 474 934 c 1
 626 934 l 1
 625 925 l 1
 587 887 501 814 446 774 c 1
 353 774 l 1
 355 787 l 1
213 0 m 1
 262 277 l 1
 143 714 l 1
 294 714 l 1
 357 412 l 1
 523 714 l 1
 674 714 l 1
 400 277 l 1
 351 0 l 1
 213 0 l 1
EndSplineSet
Substitution2: "'c2sc' Capitals to Small Capitals lookup 34 subtable" yacute.sc
Substitution2: "'aalt' Access All Alternates lookup 0 subtable" yacute.sc
EndChar

StartChar: Thorn
Encoding: 222 222 160
Width: 563
GlyphClass: 2
Flags: HW
AnchorPoint: "Anchor-1" 409 714 basechar 0
AnchorPoint: "Anchor-0" 282 0 basechar 0
LayerCount: 2
Fore
SplineSet
71 0 m 1
 198 714 l 1
 333 714 l 1
 311 594 l 1
 398 594 l 2
 555 594 617 515 592 372 c 0
 567 229 476 134 308 134 c 2
 229 134 l 1
 206 0 l 1
 71 0 l 1
315 256 m 2
 391 256 439 292 452 368 c 0
 464 440 437 473 369 473 c 2
 290 473 l 1
 251 256 l 1
 315 256 l 2
EndSplineSet
Substitution2: "'c2sc' Capitals to Small Capitals lookup 34 subtable" thorn.sc
Substitution2: "'aalt' Access All Alternates lookup 0 subtable" thorn.sc
EndChar

StartChar: germandbls
Encoding: 223 223 161
Width: 563
GlyphClass: 2
Flags: HW
AnchorPoint: "Anchor-1" 418 765 basechar 0
AnchorPoint: "Anchor-0" 282 0 basechar 0
LayerCount: 2
Fore
SplineSet
350 -10 m 0
 306 -10 264 -2 231 19 c 1
 253 140 l 1
 280 117 319 100 357 100 c 0
 398 100 422 120 429 158 c 0
 435 193 420 207 372 249 c 0
 326 289 298 328 309 387 c 0
 327 492 440 504 455 587 c 0
 462 630 435 652 390 652 c 0
 329 652 294 614 281 544 c 2
 184 0 l 1
 50 0 l 1
 149 554 l 2
 173 689 271 765 408 765 c 0
 530 765 609 705 591 600 c 0
 570 484 455 457 446 404 c 0
 441 375 469 353 502 323 c 0
 553 274 579 239 565 160 c 0
 546 51 471 -10 350 -10 c 0
EndSplineSet
Substitution2: "'smcp' Lowercase to Small Capitals lookup 35 subtable" germandbls.sc
Substitution2: "'aalt' Access All Alternates lookup 0 subtable" germandbls.sc
EndChar

StartChar: agrave
Encoding: 224 224 162
Width: 563
GlyphClass: 2
Flags: HW
AnchorPoint: "Anchor-2" 640 546 basechar 0
AnchorPoint: "Anchor-1" 418 766 basechar 0
AnchorPoint: "Anchor-0" 282 0 basechar 0
LayerCount: 2
Fore
SplineSet
405 606 m 1
 370 638 302 720 279 757 c 1
 280 766 l 1
 432 766 l 1
 447 723 479 652 499 619 c 1
 497 606 l 1
 405 606 l 1
211 -10 m 0
 105 -10 60 55 78 158 c 0
 99 277 181 332 322 336 c 2
 431 339 l 1
 435 362 l 2
 444 414 416 440 348 440 c 0
 307 440 259 431 199 407 c 1
 169 508 l 1
 238 541 303 556 376 556 c 0
 524 556 590 493 568 364 c 2
 504 0 l 1
 401 0 l 1
 389 70 l 1
 386 70 l 1
 328 11 272 -10 211 -10 c 0
280 105 m 0
 340 105 396 144 408 208 c 2
 416 253 l 1
 344 251 l 2
 271 249 227 223 218 170 c 0
 210 125 238 105 280 105 c 0
EndSplineSet
Substitution2: "'smcp' Lowercase to Small Capitals lookup 35 subtable" agrave.sc
Substitution2: "'aalt' Access All Alternates lookup 0 subtable" agrave.sc
EndChar

StartChar: aacute
Encoding: 225 225 163
Width: 563
GlyphClass: 2
Flags: HW
AnchorPoint: "Anchor-2" 640 546 basechar 0
AnchorPoint: "Anchor-1" 418 766 basechar 0
AnchorPoint: "Anchor-0" 282 0 basechar 0
LayerCount: 2
Fore
SplineSet
336 619 m 1
 378 667 423 721 455 766 c 1
 607 766 l 1
 606 757 l 1
 568 719 482 646 426 606 c 1
 334 606 l 1
 336 619 l 1
211 -10 m 0
 105 -10 60 55 78 158 c 0
 99 277 181 332 322 336 c 2
 431 339 l 1
 435 362 l 2
 444 414 416 440 348 440 c 0
 307 440 259 431 199 407 c 1
 169 508 l 1
 238 541 303 556 376 556 c 0
 524 556 590 493 568 364 c 2
 504 0 l 1
 401 0 l 1
 389 70 l 1
 386 70 l 1
 328 11 272 -10 211 -10 c 0
280 105 m 0
 340 105 396 144 408 208 c 2
 416 253 l 1
 344 251 l 2
 271 249 227 223 218 170 c 0
 210 125 238 105 280 105 c 0
EndSplineSet
Substitution2: "'smcp' Lowercase to Small Capitals lookup 35 subtable" aacute.sc
Substitution2: "'aalt' Access All Alternates lookup 0 subtable" aacute.sc
EndChar

StartChar: acircumflex
Encoding: 226 226 164
Width: 563
GlyphClass: 2
Flags: HW
AnchorPoint: "Anchor-2" 640 546 basechar 0
AnchorPoint: "Anchor-1" 418 766 basechar 0
AnchorPoint: "Anchor-0" 282 0 basechar 0
LayerCount: 2
Fore
SplineSet
231 619 m 1
 271 658 332 726 361 766 c 1
 496 766 l 1
 513 722 545 664 573 619 c 1
 571 606 l 1
 489 606 l 1
 464 627 439 655 415 690 c 1
 378 655 341 625 312 606 c 1
 229 606 l 1
 231 619 l 1
211 -10 m 0
 105 -10 60 55 78 158 c 0
 99 277 181 332 322 336 c 2
 431 339 l 1
 435 362 l 2
 444 414 416 440 348 440 c 0
 307 440 259 431 199 407 c 1
 169 508 l 1
 238 541 303 556 376 556 c 0
 524 556 590 493 568 364 c 2
 504 0 l 1
 401 0 l 1
 389 70 l 1
 386 70 l 1
 328 11 272 -10 211 -10 c 0
280 105 m 0
 340 105 396 144 408 208 c 2
 416 253 l 1
 344 251 l 2
 271 249 227 223 218 170 c 0
 210 125 238 105 280 105 c 0
EndSplineSet
Substitution2: "'smcp' Lowercase to Small Capitals lookup 35 subtable" acircumflex.sc
Substitution2: "'aalt' Access All Alternates lookup 0 subtable" acircumflex.sc
EndChar

StartChar: atilde
Encoding: 227 227 165
Width: 563
GlyphClass: 2
Flags: HW
AnchorPoint: "Anchor-2" 640 546 basechar 0
AnchorPoint: "Anchor-1" 416 754 basechar 0
AnchorPoint: "Anchor-0" 282 0 basechar 0
LayerCount: 2
Fore
SplineSet
221 605 m 1
 238 681 279 753 348 753 c 0
 404 753 443 702 488 702 c 0
 511 702 523 720 535 754 c 1
 606 754 l 1
 585 658 533 606 478 606 c 0
 425 606 377 657 337 657 c 0
 316 657 304 641 291 605 c 1
 221 605 l 1
211 -10 m 0
 105 -10 60 55 78 158 c 0
 99 277 181 332 322 336 c 2
 431 339 l 1
 435 362 l 2
 444 414 416 440 348 440 c 0
 307 440 259 431 199 407 c 1
 169 508 l 1
 238 541 303 556 376 556 c 0
 524 556 590 493 568 364 c 2
 504 0 l 1
 401 0 l 1
 389 70 l 1
 386 70 l 1
 328 11 272 -10 211 -10 c 0
280 105 m 0
 340 105 396 144 408 208 c 2
 416 253 l 1
 344 251 l 2
 271 249 227 223 218 170 c 0
 210 125 238 105 280 105 c 0
EndSplineSet
Substitution2: "'smcp' Lowercase to Small Capitals lookup 35 subtable" atilde.sc
Substitution2: "'aalt' Access All Alternates lookup 0 subtable" atilde.sc
EndChar

StartChar: adieresis
Encoding: 228 228 166
Width: 563
GlyphClass: 2
Flags: HW
AnchorPoint: "Anchor-2" 640 546 basechar 0
AnchorPoint: "Anchor-1" 422 747 basechar 0
AnchorPoint: "Anchor-0" 282 0 basechar 0
LayerCount: 2
Fore
SplineSet
506 607 m 0
 467 607 443 632 451 678 c 0
 459 725 492 747 531 747 c 0
 570 747 594 723 586 678 c 0
 578 633 545 607 506 607 c 0
292 607 m 0
 254 607 230 631 238 678 c 0
 246 725 279 747 317 747 c 0
 356 747 380 723 372 678 c 0
 364 633 331 607 292 607 c 0
211 -10 m 0
 105 -10 60 55 78 158 c 0
 99 277 181 332 322 336 c 2
 431 339 l 1
 435 362 l 2
 444 414 416 440 348 440 c 0
 307 440 259 431 199 407 c 1
 169 508 l 1
 238 541 303 556 376 556 c 0
 524 556 590 493 568 364 c 2
 504 0 l 1
 401 0 l 1
 389 70 l 1
 386 70 l 1
 328 11 272 -10 211 -10 c 0
280 105 m 0
 340 105 396 144 408 208 c 2
 416 253 l 1
 344 251 l 2
 271 249 227 223 218 170 c 0
 210 125 238 105 280 105 c 0
EndSplineSet
Substitution2: "'smcp' Lowercase to Small Capitals lookup 35 subtable" adieresis.sc
Substitution2: "'aalt' Access All Alternates lookup 0 subtable" adieresis.sc
EndChar

StartChar: aring
Encoding: 229 229 167
Width: 563
GlyphClass: 2
Flags: HW
AnchorPoint: "Anchor-2" 640 546 basechar 0
AnchorPoint: "Anchor-1" 430 834 basechar 0
AnchorPoint: "Anchor-0" 282 0 basechar 0
LayerCount: 2
Fore
SplineSet
399 606 m 0
 328 606 289 651 302 720 c 0
 315 789 368 834 439 834 c 0
 507 834 550 788 538 721 c 0
 526 653 469 606 399 606 c 0
411 674 m 0
 437 674 461 692 466 720 c 0
 471 748 455 766 428 766 c 0
 401 766 378 748 373 720 c 0
 368 692 381 674 411 674 c 0
211 -10 m 0
 105 -10 60 55 78 158 c 0
 99 277 181 332 322 336 c 2
 431 339 l 1
 435 362 l 2
 444 414 416 440 348 440 c 0
 307 440 259 431 199 407 c 1
 169 508 l 1
 238 541 303 556 376 556 c 0
 524 556 590 493 568 364 c 2
 504 0 l 1
 401 0 l 1
 389 70 l 1
 386 70 l 1
 328 11 272 -10 211 -10 c 0
280 105 m 0
 340 105 396 144 408 208 c 2
 416 253 l 1
 344 251 l 2
 271 249 227 223 218 170 c 0
 210 125 238 105 280 105 c 0
EndSplineSet
Substitution2: "'smcp' Lowercase to Small Capitals lookup 35 subtable" aring.sc
Substitution2: "'aalt' Access All Alternates lookup 0 subtable" aring.sc
EndChar

StartChar: ae
Encoding: 230 230 168
Width: 563
GlyphClass: 2
Flags: HW
AnchorPoint: "Anchor-1" 379 546 basechar 0
AnchorPoint: "Anchor-0" 282 0 basechar 0
LayerCount: 2
Fore
SplineSet
138 -10 m 0
 57 -10 18 48 38 159 c 0
 58 271 119 327 226 332 c 2
 287 334 l 1
 294 372 l 2
 302 418 282 440 237 440 c 0
 213 440 187 433 155 418 c 1
 129 516 l 1
 177 543 227 556 274 556 c 0
 326 556 359 540 385 506 c 1
 422 540 461 556 504 556 c 0
 611 556 633 450 607 306 c 2
 596 239 l 1
 386 239 l 1
 371 147 405 101 467 101 c 0
 499 101 525 113 556 136 c 1
 537 28 l 1
 506 3 467 -10 424 -10 c 0
 359 -10 313 20 289 81 c 1
 245 21 198 -10 138 -10 c 0
498 331 m 1
 509 401 504 440 473 440 c 0
 440 440 417 396 404 331 c 1
 498 331 l 1
193 103 m 0
 229 103 254 145 265 207 c 2
 272 251 l 1
 241 251 l 2
 202 251 172 221 163 168 c 0
 155 122 170 103 193 103 c 0
EndSplineSet
Substitution2: "'smcp' Lowercase to Small Capitals lookup 35 subtable" ae.sc
Substitution2: "'aalt' Access All Alternates lookup 0 subtable" ae.sc
EndChar

StartChar: ccedilla
Encoding: 231 231 169
Width: 563
GlyphClass: 2
Flags: HW
AnchorPoint: "Anchor-2" 640 546 basechar 0
AnchorPoint: "Anchor-1" 420 546 basechar 0
AnchorPoint: "Anchor-0" 259 -240 basechar 0
LayerCount: 2
Fore
SplineSet
245 -240 m 0
 219 -240 195 -237 176 -231 c 1
 189 -158 l 1
 205 -164 224 -166 239 -166 c 0
 270 -166 292 -155 297 -127 c 0
 302 -98 281 -85 233 -80 c 1
 276 -8 l 1
 134 7 84 100 113 266 c 0
 147 458 254 556 426 556 c 0
 481 556 538 546 589 521 c 1
 527 409 l 1
 482 430 447 436 416 436 c 0
 329 436 274 380 255 272 c 0
 235 159 276 111 359 111 c 0
 397 111 446 121 508 154 c 1
 485 27 l 1
 435 4 392 -6 350 -9 c 1
 333 -38 l 1
 381 -50 408 -81 398 -136 c 0
 387 -198 338 -240 245 -240 c 0
EndSplineSet
Substitution2: "'smcp' Lowercase to Small Capitals lookup 35 subtable" ccedilla.sc
Substitution2: "'aalt' Access All Alternates lookup 0 subtable" ccedilla.sc
EndChar

StartChar: egrave
Encoding: 232 232 170
Width: 563
GlyphClass: 2
Flags: HW
AnchorPoint: "Anchor-2" 640 546 basechar 0
AnchorPoint: "Anchor-1" 418 766 basechar 0
AnchorPoint: "Anchor-0" 282 0 basechar 0
LayerCount: 2
Fore
SplineSet
404 606 m 1
 369 638 301 720 278 757 c 1
 279 766 l 1
 431 766 l 1
 446 723 479 652 498 619 c 1
 496 606 l 1
 404 606 l 1
322 -10 m 0
 142 -10 60 92 93 275 c 0
 124 449 232 556 389 556 c 0
 533 556 601 467 573 306 c 2
 560 232 l 1
 225 232 l 1
 215 151 270 108 357 108 c 0
 414 108 471 124 525 145 c 1
 504 29 l 1
 453 4 390 -10 322 -10 c 0
446 330 m 1
 458 404 425 444 369 444 c 0
 313 444 263 406 244 330 c 1
 446 330 l 1
EndSplineSet
Substitution2: "'smcp' Lowercase to Small Capitals lookup 35 subtable" egrave.sc
Substitution2: "'aalt' Access All Alternates lookup 0 subtable" egrave.sc
EndChar

StartChar: eacute
Encoding: 233 233 171
Width: 563
GlyphClass: 2
Flags: HW
AnchorPoint: "Anchor-2" 640 546 basechar 0
AnchorPoint: "Anchor-1" 418 766 basechar 0
AnchorPoint: "Anchor-0" 282 0 basechar 0
LayerCount: 2
Fore
SplineSet
335 619 m 1
 377 667 422 721 454 766 c 1
 606 766 l 1
 605 757 l 1
 567 719 481 646 425 606 c 1
 333 606 l 1
 335 619 l 1
322 -10 m 0
 142 -10 60 92 93 275 c 0
 124 449 232 556 389 556 c 0
 533 556 601 467 573 306 c 2
 560 232 l 1
 225 232 l 1
 215 151 270 108 357 108 c 0
 414 108 471 124 525 145 c 1
 504 29 l 1
 453 4 390 -10 322 -10 c 0
446 330 m 1
 458 404 425 444 369 444 c 0
 313 444 263 406 244 330 c 1
 446 330 l 1
EndSplineSet
Substitution2: "'smcp' Lowercase to Small Capitals lookup 35 subtable" eacute.sc
Substitution2: "'aalt' Access All Alternates lookup 0 subtable" eacute.sc
EndChar

StartChar: ecircumflex
Encoding: 234 234 172
Width: 563
GlyphClass: 2
Flags: HW
AnchorPoint: "Anchor-2" 640 546 basechar 0
AnchorPoint: "Anchor-1" 418 766 basechar 0
AnchorPoint: "Anchor-0" 282 0 basechar 0
LayerCount: 2
Fore
SplineSet
230 619 m 1
 270 658 331 726 361 766 c 1
 495 766 l 1
 512 722 544 664 572 619 c 1
 570 606 l 1
 488 606 l 1
 464 627 438 655 414 690 c 1
 377 655 340 625 312 606 c 1
 228 606 l 1
 230 619 l 1
322 -10 m 0
 142 -10 60 92 93 275 c 0
 124 449 232 556 389 556 c 0
 533 556 601 467 573 306 c 2
 560 232 l 1
 225 232 l 1
 215 151 270 108 357 108 c 0
 414 108 471 124 525 145 c 1
 504 29 l 1
 453 4 390 -10 322 -10 c 0
446 330 m 1
 458 404 425 444 369 444 c 0
 313 444 263 406 244 330 c 1
 446 330 l 1
EndSplineSet
Substitution2: "'smcp' Lowercase to Small Capitals lookup 35 subtable" ecircumflex.sc
Substitution2: "'aalt' Access All Alternates lookup 0 subtable" ecircumflex.sc
EndChar

StartChar: edieresis
Encoding: 235 235 173
Width: 563
GlyphClass: 2
Flags: HW
AnchorPoint: "Anchor-2" 640 546 basechar 0
AnchorPoint: "Anchor-1" 415 747 basechar 0
AnchorPoint: "Anchor-0" 282 0 basechar 0
LayerCount: 2
Fore
SplineSet
505 607 m 0
 466 607 442 632 450 678 c 0
 458 725 491 747 530 747 c 0
 569 747 593 723 585 678 c 0
 577 633 544 607 505 607 c 0
292 607 m 0
 253 607 229 631 237 678 c 0
 245 725 278 747 317 747 c 0
 355 747 379 723 371 678 c 0
 363 633 330 607 292 607 c 0
322 -10 m 0
 142 -10 60 92 93 275 c 0
 124 449 232 556 389 556 c 0
 533 556 601 467 573 306 c 2
 560 232 l 1
 225 232 l 1
 215 151 270 108 357 108 c 0
 414 108 471 124 525 145 c 1
 504 29 l 1
 453 4 390 -10 322 -10 c 0
446 330 m 1
 458 404 425 444 369 444 c 0
 313 444 263 406 244 330 c 1
 446 330 l 1
EndSplineSet
Substitution2: "'smcp' Lowercase to Small Capitals lookup 35 subtable" edieresis.sc
Substitution2: "'aalt' Access All Alternates lookup 0 subtable" edieresis.sc
EndChar

StartChar: igrave
Encoding: 236 236 174
Width: 563
GlyphClass: 2
Flags: HW
AnchorPoint: "Anchor-3" 343 291 basechar 0
AnchorPoint: "Anchor-1" 418 766 basechar 0
AnchorPoint: "Anchor-0" 282 0 basechar 0
LayerCount: 2
Fore
SplineSet
394 606 m 1
 360 638 291 720 269 757 c 1
 270 766 l 1
 421 766 l 1
 436 723 469 652 488 619 c 1
 486 606 l 1
 394 606 l 1
58 0 m 1
 75 92 l 1
 245 115 l 1
 302 431 l 1
 161 446 l 1
 179 546 l 1
 461 546 l 1
 384 115 l 1
 529 92 l 1
 512 0 l 1
 58 0 l 1
EndSplineSet
Substitution2: "'smcp' Lowercase to Small Capitals lookup 35 subtable" igrave.sc
Substitution2: "'aalt' Access All Alternates lookup 0 subtable" igrave.sc
EndChar

StartChar: iacute
Encoding: 237 237 175
Width: 563
GlyphClass: 2
Flags: HW
AnchorPoint: "Anchor-3" 343 291 basechar 0
AnchorPoint: "Anchor-1" 418 766 basechar 0
AnchorPoint: "Anchor-0" 282 0 basechar 0
LayerCount: 2
Fore
SplineSet
325 619 m 1
 368 667 413 721 444 766 c 1
 596 766 l 1
 595 757 l 1
 557 719 471 646 416 606 c 1
 323 606 l 1
 325 619 l 1
58 0 m 1
 75 92 l 1
 245 115 l 1
 302 431 l 1
 161 446 l 1
 179 546 l 1
 461 546 l 1
 384 115 l 1
 529 92 l 1
 512 0 l 1
 58 0 l 1
EndSplineSet
Substitution2: "'smcp' Lowercase to Small Capitals lookup 35 subtable" iacute.sc
Substitution2: "'aalt' Access All Alternates lookup 0 subtable" iacute.sc
EndChar

StartChar: icircumflex
Encoding: 238 238 176
Width: 563
GlyphClass: 2
Flags: HW
AnchorPoint: "Anchor-3" 343 291 basechar 0
AnchorPoint: "Anchor-1" 418 766 basechar 0
AnchorPoint: "Anchor-0" 282 0 basechar 0
LayerCount: 2
Fore
SplineSet
220 619 m 1
 261 658 321 726 351 766 c 1
 485 766 l 1
 502 722 534 664 563 619 c 1
 561 606 l 1
 478 606 l 1
 454 627 429 655 404 690 c 1
 367 655 330 625 302 606 c 1
 218 606 l 1
 220 619 l 1
58 0 m 1
 75 92 l 1
 245 115 l 1
 302 431 l 1
 161 446 l 1
 179 546 l 1
 461 546 l 1
 384 115 l 1
 529 92 l 1
 512 0 l 1
 58 0 l 1
EndSplineSet
Substitution2: "'smcp' Lowercase to Small Capitals lookup 35 subtable" icircumflex.sc
Substitution2: "'aalt' Access All Alternates lookup 0 subtable" icircumflex.sc
EndChar

StartChar: idieresis
Encoding: 239 239 177
Width: 563
GlyphClass: 2
Flags: HW
AnchorPoint: "Anchor-3" 343 291 basechar 0
AnchorPoint: "Anchor-1" 415 747 basechar 0
AnchorPoint: "Anchor-0" 282 0 basechar 0
LayerCount: 2
Fore
SplineSet
495 607 m 0
 456 607 433 632 441 678 c 0
 449 725 481 747 520 747 c 0
 559 747 583 723 575 678 c 0
 567 633 534 607 495 607 c 0
282 607 m 0
 244 607 220 631 228 678 c 0
 236 725 269 747 307 747 c 0
 346 747 369 723 361 678 c 0
 353 633 321 607 282 607 c 0
58 0 m 1
 75 92 l 1
 245 115 l 1
 302 431 l 1
 161 446 l 1
 179 546 l 1
 461 546 l 1
 384 115 l 1
 529 92 l 1
 512 0 l 1
 58 0 l 1
EndSplineSet
Substitution2: "'smcp' Lowercase to Small Capitals lookup 35 subtable" idieresis.sc
Substitution2: "'aalt' Access All Alternates lookup 0 subtable" idieresis.sc
EndChar

StartChar: eth
Encoding: 240 240 178
Width: 563
GlyphClass: 2
Flags: HW
AnchorPoint: "Anchor-3" 330 273 basechar 0
AnchorPoint: "Anchor-2" 678 760 basechar 0
AnchorPoint: "Anchor-1" 418 765 basechar 0
AnchorPoint: "Anchor-0" 282 0 basechar 0
LayerCount: 2
Fore
SplineSet
275 -10 m 0
 129 -10 51 85 79 239 c 0
 107 395 213 485 339 485 c 0
 394 485 430 472 448 444 c 1
 452 446 l 1
 443 500 419 546 388 586 c 1
 277 521 l 1
 241 590 l 1
 331 642 l 1
 312 659 291 674 271 688 c 1
 335 765 l 1
 372 748 404 727 434 703 c 1
 539 764 l 1
 576 696 l 1
 491 647 l 1
 572 547 601 415 576 276 c 0
 543 93 429 -10 275 -10 c 0
296 95 m 0
 372 95 415 148 433 250 c 0
 446 323 422 379 346 379 c 0
 273 379 233 332 216 237 c 0
 201 151 221 95 296 95 c 0
EndSplineSet
Substitution2: "'smcp' Lowercase to Small Capitals lookup 35 subtable" eth.sc
Substitution2: "'aalt' Access All Alternates lookup 0 subtable" eth.sc
EndChar

StartChar: ntilde
Encoding: 241 241 179
Width: 563
GlyphClass: 2
Flags: HW
AnchorPoint: "Anchor-2" 640 546 basechar 0
AnchorPoint: "Anchor-1" 416 754 basechar 0
AnchorPoint: "Anchor-0" 282 0 basechar 0
LayerCount: 2
Fore
SplineSet
217 605 m 1
 234 681 275 753 344 753 c 0
 400 753 439 702 484 702 c 0
 507 702 518 720 531 754 c 1
 601 754 l 1
 580 658 529 606 474 606 c 0
 420 606 373 657 333 657 c 0
 311 657 299 641 287 605 c 1
 217 605 l 1
51 0 m 1
 148 546 l 1
 256 546 l 1
 266 479 l 1
 273 479 l 1
 312 529 368 556 441 556 c 0
 556 556 604 490 581 362 c 2
 517 0 l 1
 378 0 l 1
 436 325 l 2
 450 403 428 439 371 439 c 0
 297 439 257 378 238 268 c 2
 190 0 l 1
 51 0 l 1
EndSplineSet
Substitution2: "'smcp' Lowercase to Small Capitals lookup 35 subtable" ntilde.sc
Substitution2: "'aalt' Access All Alternates lookup 0 subtable" ntilde.sc
EndChar

StartChar: ograve
Encoding: 242 242 180
Width: 563
GlyphClass: 2
Flags: HW
AnchorPoint: "Anchor-3" 330 273 basechar 0
AnchorPoint: "Anchor-2" 640 546 basechar 0
AnchorPoint: "Anchor-1" 418 766 basechar 0
AnchorPoint: "Anchor-0" 282 0 basechar 0
LayerCount: 2
Fore
SplineSet
394 606 m 1
 360 638 291 720 269 757 c 1
 270 766 l 1
 421 766 l 1
 436 723 469 652 488 619 c 1
 486 606 l 1
 394 606 l 1
282 -10 m 0
 120 -10 55 108 84 273 c 0
 113 439 223 556 382 556 c 0
 532 556 609 453 576 271 c 0
 547 107 445 -10 282 -10 c 0
303 107 m 0
 374 107 416 165 435 272 c 0
 454 379 434 439 362 439 c 0
 288 439 244 376 226 273 c 0
 208 168 230 107 303 107 c 0
EndSplineSet
Substitution2: "'smcp' Lowercase to Small Capitals lookup 35 subtable" ograve.sc
Substitution2: "'aalt' Access All Alternates lookup 0 subtable" ograve.sc
EndChar

StartChar: oacute
Encoding: 243 243 181
Width: 563
GlyphClass: 2
Flags: HW
AnchorPoint: "Anchor-3" 330 273 basechar 0
AnchorPoint: "Anchor-2" 640 546 basechar 0
AnchorPoint: "Anchor-1" 418 766 basechar 0
AnchorPoint: "Anchor-0" 282 0 basechar 0
LayerCount: 2
Fore
SplineSet
325 619 m 1
 368 667 413 721 444 766 c 1
 596 766 l 1
 595 757 l 1
 557 719 471 646 416 606 c 1
 323 606 l 1
 325 619 l 1
282 -10 m 0
 120 -10 55 108 84 273 c 0
 113 439 223 556 382 556 c 0
 532 556 609 453 576 271 c 0
 547 107 445 -10 282 -10 c 0
303 107 m 0
 374 107 416 165 435 272 c 0
 454 379 434 439 362 439 c 0
 288 439 244 376 226 273 c 0
 208 168 230 107 303 107 c 0
EndSplineSet
Substitution2: "'smcp' Lowercase to Small Capitals lookup 35 subtable" oacute.sc
Substitution2: "'aalt' Access All Alternates lookup 0 subtable" oacute.sc
EndChar

StartChar: ocircumflex
Encoding: 244 244 182
Width: 563
GlyphClass: 2
Flags: HW
AnchorPoint: "Anchor-3" 330 273 basechar 0
AnchorPoint: "Anchor-2" 640 546 basechar 0
AnchorPoint: "Anchor-1" 418 766 basechar 0
AnchorPoint: "Anchor-0" 282 0 basechar 0
LayerCount: 2
Fore
SplineSet
220 619 m 1
 261 658 321 726 351 766 c 1
 485 766 l 1
 502 722 534 664 563 619 c 1
 561 606 l 1
 478 606 l 1
 454 627 429 655 404 690 c 1
 367 655 330 625 302 606 c 1
 218 606 l 1
 220 619 l 1
282 -10 m 0
 120 -10 55 108 84 273 c 0
 113 439 223 556 382 556 c 0
 532 556 609 453 576 271 c 0
 547 107 445 -10 282 -10 c 0
303 107 m 0
 374 107 416 165 435 272 c 0
 454 379 434 439 362 439 c 0
 288 439 244 376 226 273 c 0
 208 168 230 107 303 107 c 0
EndSplineSet
Substitution2: "'smcp' Lowercase to Small Capitals lookup 35 subtable" ocircumflex.sc
Substitution2: "'aalt' Access All Alternates lookup 0 subtable" ocircumflex.sc
EndChar

StartChar: otilde
Encoding: 245 245 183
Width: 563
GlyphClass: 2
Flags: HW
AnchorPoint: "Anchor-3" 330 273 basechar 0
AnchorPoint: "Anchor-2" 640 546 basechar 0
AnchorPoint: "Anchor-1" 416 754 basechar 0
AnchorPoint: "Anchor-0" 282 0 basechar 0
LayerCount: 2
Fore
SplineSet
210 605 m 1
 228 681 269 753 338 753 c 0
 394 753 432 702 477 702 c 0
 500 702 512 720 525 754 c 1
 595 754 l 1
 574 658 523 606 467 606 c 0
 414 606 367 657 327 657 c 0
 305 657 293 641 281 605 c 1
 210 605 l 1
282 -10 m 0
 120 -10 55 108 84 273 c 0
 113 439 223 556 382 556 c 0
 532 556 609 453 576 271 c 0
 547 107 445 -10 282 -10 c 0
303 107 m 0
 374 107 416 165 435 272 c 0
 454 379 434 439 362 439 c 0
 288 439 244 376 226 273 c 0
 208 168 230 107 303 107 c 0
EndSplineSet
Substitution2: "'smcp' Lowercase to Small Capitals lookup 35 subtable" otilde.sc
Substitution2: "'aalt' Access All Alternates lookup 0 subtable" otilde.sc
EndChar

StartChar: odieresis
Encoding: 246 246 184
Width: 563
GlyphClass: 2
Flags: HW
AnchorPoint: "Anchor-3" 330 273 basechar 0
AnchorPoint: "Anchor-2" 640 546 basechar 0
AnchorPoint: "Anchor-1" 415 747 basechar 0
AnchorPoint: "Anchor-0" 282 0 basechar 0
LayerCount: 2
Fore
SplineSet
495 607 m 0
 456 607 433 632 441 678 c 0
 449 725 481 747 520 747 c 0
 559 747 583 723 575 678 c 0
 567 633 534 607 495 607 c 0
282 607 m 0
 244 607 220 631 228 678 c 0
 236 725 269 747 307 747 c 0
 346 747 369 723 361 678 c 0
 353 633 321 607 282 607 c 0
282 -10 m 0
 120 -10 55 108 84 273 c 0
 113 439 223 556 382 556 c 0
 532 556 609 453 576 271 c 0
 547 107 445 -10 282 -10 c 0
303 107 m 0
 374 107 416 165 435 272 c 0
 454 379 434 439 362 439 c 0
 288 439 244 376 226 273 c 0
 208 168 230 107 303 107 c 0
EndSplineSet
Substitution2: "'smcp' Lowercase to Small Capitals lookup 35 subtable" odieresis.sc
Substitution2: "'aalt' Access All Alternates lookup 0 subtable" odieresis.sc
EndChar

StartChar: divide
Encoding: 247 247 185
Width: 563
Flags: HW
LayerCount: 2
Fore
SplineSet
365 461 m 0
 324 461 301 486 310 536 c 0
 319 586 350 611 392 611 c 0
 432 611 452 586 443 536 c 0
 434 486 404 461 365 461 c 0
116 301 m 1
 135 405 l 1
 573 405 l 1
 554 301 l 1
 116 301 l 1
300 94 m 0
 259 94 236 120 245 170 c 0
 254 220 284 244 326 244 c 0
 366 244 387 220 378 170 c 0
 369 120 339 94 300 94 c 0
EndSplineSet
EndChar

StartChar: oslash
Encoding: 248 248 186
Width: 563
GlyphClass: 2
Flags: HW
AnchorPoint: "Anchor-3" 330 273 basechar 0
AnchorPoint: "Anchor-2" 640 546 basechar 0
AnchorPoint: "Anchor-1" 379 546 basechar 0
AnchorPoint: "Anchor-0" 282 0 basechar 0
LayerCount: 2
Fore
SplineSet
132 -43 m 1
 69 -1 l 1
 118 61 l 1
 80 112 69 186 84 273 c 0
 113 439 223 556 382 556 c 0
 423 556 457 549 487 533 c 1
 529 585 l 1
 590 541 l 1
 545 484 l 1
 581 435 593 363 576 271 c 0
 547 107 445 -10 282 -10 c 0
 240 -10 206 -2 176 13 c 1
 132 -43 l 1
226 273 m 0
 220 242 219 215 221 193 c 1
 406 428 l 1
 395 436 380 439 362 439 c 0
 288 439 244 376 226 273 c 0
303 107 m 0
 374 107 416 165 435 272 c 0
 440 302 442 328 441 351 c 1
 258 118 l 1
 270 111 285 107 303 107 c 0
EndSplineSet
Substitution2: "'smcp' Lowercase to Small Capitals lookup 35 subtable" oslash.sc
Substitution2: "'aalt' Access All Alternates lookup 0 subtable" oslash.sc
EndChar

StartChar: ugrave
Encoding: 249 249 187
Width: 563
GlyphClass: 2
Flags: HW
AnchorPoint: "Anchor-2" 640 546 basechar 0
AnchorPoint: "Anchor-1" 418 766 basechar 0
AnchorPoint: "Anchor-0" 282 0 basechar 0
LayerCount: 2
Fore
SplineSet
394 606 m 1
 360 638 291 720 269 757 c 1
 270 766 l 1
 421 766 l 1
 436 723 469 652 488 619 c 1
 486 606 l 1
 394 606 l 1
215 -10 m 0
 103 -10 56 60 79 190 c 2
 143 546 l 1
 282 546 l 1
 225 227 l 2
 212 152 223 109 288 109 c 0
 373 109 404 176 424 289 c 2
 470 546 l 1
 609 546 l 1
 512 0 l 1
 405 0 l 1
 395 70 l 1
 387 70 l 1
 348 19 287 -10 215 -10 c 0
EndSplineSet
Substitution2: "'smcp' Lowercase to Small Capitals lookup 35 subtable" ugrave.sc
Substitution2: "'aalt' Access All Alternates lookup 0 subtable" ugrave.sc
EndChar

StartChar: uacute
Encoding: 250 250 188
Width: 563
GlyphClass: 2
Flags: HW
AnchorPoint: "Anchor-2" 640 546 basechar 0
AnchorPoint: "Anchor-1" 418 766 basechar 0
AnchorPoint: "Anchor-0" 282 0 basechar 0
LayerCount: 2
Fore
SplineSet
325 619 m 1
 368 667 413 721 444 766 c 1
 596 766 l 1
 595 757 l 1
 557 719 471 646 416 606 c 1
 323 606 l 1
 325 619 l 1
215 -10 m 0
 103 -10 56 60 79 190 c 2
 143 546 l 1
 282 546 l 1
 225 227 l 2
 212 152 223 109 288 109 c 0
 373 109 404 176 424 289 c 2
 470 546 l 1
 609 546 l 1
 512 0 l 1
 405 0 l 1
 395 70 l 1
 387 70 l 1
 348 19 287 -10 215 -10 c 0
EndSplineSet
Substitution2: "'smcp' Lowercase to Small Capitals lookup 35 subtable" uacute.sc
Substitution2: "'aalt' Access All Alternates lookup 0 subtable" uacute.sc
EndChar

StartChar: ucircumflex
Encoding: 251 251 189
Width: 563
GlyphClass: 2
Flags: HW
AnchorPoint: "Anchor-2" 640 546 basechar 0
AnchorPoint: "Anchor-1" 418 766 basechar 0
AnchorPoint: "Anchor-0" 282 0 basechar 0
LayerCount: 2
Fore
SplineSet
220 619 m 1
 261 658 321 726 351 766 c 1
 485 766 l 1
 502 722 534 664 563 619 c 1
 561 606 l 1
 478 606 l 1
 454 627 429 655 404 690 c 1
 367 655 330 625 302 606 c 1
 218 606 l 1
 220 619 l 1
215 -10 m 0
 103 -10 56 60 79 190 c 2
 143 546 l 1
 282 546 l 1
 225 227 l 2
 212 152 223 109 288 109 c 0
 373 109 404 176 424 289 c 2
 470 546 l 1
 609 546 l 1
 512 0 l 1
 405 0 l 1
 395 70 l 1
 387 70 l 1
 348 19 287 -10 215 -10 c 0
EndSplineSet
Substitution2: "'smcp' Lowercase to Small Capitals lookup 35 subtable" ucircumflex.sc
Substitution2: "'aalt' Access All Alternates lookup 0 subtable" ucircumflex.sc
EndChar

StartChar: udieresis
Encoding: 252 252 190
Width: 563
GlyphClass: 2
Flags: HW
AnchorPoint: "Anchor-2" 640 546 basechar 0
AnchorPoint: "Anchor-1" 415 747 basechar 0
AnchorPoint: "Anchor-0" 282 0 basechar 0
LayerCount: 2
Fore
SplineSet
495 607 m 0
 456 607 433 632 441 678 c 0
 449 725 481 747 520 747 c 0
 559 747 583 723 575 678 c 0
 567 633 534 607 495 607 c 0
282 607 m 0
 244 607 220 631 228 678 c 0
 236 725 269 747 307 747 c 0
 346 747 369 723 361 678 c 0
 353 633 321 607 282 607 c 0
215 -10 m 0
 103 -10 56 60 79 190 c 2
 143 546 l 1
 282 546 l 1
 225 227 l 2
 212 152 223 109 288 109 c 0
 373 109 404 176 424 289 c 2
 470 546 l 1
 609 546 l 1
 512 0 l 1
 405 0 l 1
 395 70 l 1
 387 70 l 1
 348 19 287 -10 215 -10 c 0
EndSplineSet
Substitution2: "'smcp' Lowercase to Small Capitals lookup 35 subtable" udieresis.sc
Substitution2: "'aalt' Access All Alternates lookup 0 subtable" udieresis.sc
EndChar

StartChar: yacute
Encoding: 253 253 191
Width: 563
GlyphClass: 2
Flags: HW
AnchorPoint: "Anchor-2" 640 546 basechar 0
AnchorPoint: "Anchor-1" 418 766 basechar 0
AnchorPoint: "Anchor-0" 239 -245 basechar 0
LayerCount: 2
Fore
SplineSet
325 619 m 1
 368 667 413 721 444 766 c 1
 596 766 l 1
 595 757 l 1
 557 719 471 646 416 606 c 1
 323 606 l 1
 325 619 l 1
80 -245 m 0
 56 -245 32 -242 9 -237 c 1
 29 -120 l 1
 45 -124 64 -126 76 -126 c 0
 131 -126 173 -93 205 -31 c 2
 221 0 l 1
 113 546 l 1
 268 546 l 1
 309 233 l 2
 312 205 314 173 312 136 c 1
 315 136 l 1
 326 171 340 202 354 233 c 2
 492 546 l 1
 644 546 l 1
 348 -29 l 2
 277 -166 195 -245 80 -245 c 0
EndSplineSet
Substitution2: "'smcp' Lowercase to Small Capitals lookup 35 subtable" yacute.sc
Substitution2: "'aalt' Access All Alternates lookup 0 subtable" yacute.sc
EndChar

StartChar: thorn
Encoding: 254 254 192
Width: 563
GlyphClass: 2
Flags: HW
AnchorPoint: "Anchor-1" 443 760 basechar 0
AnchorPoint: "Anchor-0" 265 -240 basechar 0
LayerCount: 2
Fore
SplineSet
8 -240 m 1
 186 760 l 1
 323 760 l 1
 289 567 l 2
 285 542 277 512 266 475 c 1
 272 475 l 1
 315 528 376 556 439 556 c 0
 571 556 604 432 576 277 c 0
 544 97 452 -10 333 -10 c 0
 276 -10 227 15 199 60 c 1
 192 60 l 1
 191 21 187 -2 185 -18 c 2
 145 -240 l 1
 8 -240 l 1
308 109 m 0
 373 109 411 162 431 277 c 0
 450 386 432 437 367 437 c 0
 302 437 257 387 240 291 c 2
 236 275 l 2
 216 163 242 109 308 109 c 0
EndSplineSet
Substitution2: "'smcp' Lowercase to Small Capitals lookup 35 subtable" thorn.sc
Substitution2: "'aalt' Access All Alternates lookup 0 subtable" thorn.sc
EndChar

StartChar: ydieresis
Encoding: 255 255 193
Width: 563
GlyphClass: 2
Flags: HW
AnchorPoint: "Anchor-2" 640 546 basechar 0
AnchorPoint: "Anchor-1" 415 747 basechar 0
AnchorPoint: "Anchor-0" 239 -245 basechar 0
LayerCount: 2
Fore
SplineSet
495 607 m 0
 456 607 433 632 441 678 c 0
 449 725 481 747 520 747 c 0
 559 747 583 723 575 678 c 0
 567 633 534 607 495 607 c 0
282 607 m 0
 244 607 220 631 228 678 c 0
 236 725 269 747 307 747 c 0
 346 747 369 723 361 678 c 0
 353 633 321 607 282 607 c 0
80 -245 m 0
 56 -245 32 -242 9 -237 c 1
 29 -120 l 1
 45 -124 64 -126 76 -126 c 0
 131 -126 173 -93 205 -31 c 2
 221 0 l 1
 113 546 l 1
 268 546 l 1
 309 233 l 2
 312 205 314 173 312 136 c 1
 315 136 l 1
 326 171 340 202 354 233 c 2
 492 546 l 1
 644 546 l 1
 348 -29 l 2
 277 -166 195 -245 80 -245 c 0
EndSplineSet
Substitution2: "'smcp' Lowercase to Small Capitals lookup 35 subtable" ydieresis.sc
Substitution2: "'aalt' Access All Alternates lookup 0 subtable" ydieresis.sc
EndChar

StartChar: Amacron
Encoding: 256 256 194
Width: 563
GlyphClass: 2
Flags: HW
AnchorPoint: "Anchor-2" 670 714 basechar 0
AnchorPoint: "Anchor-1" 439 883 basechar 0
AnchorPoint: "Anchor-0" 282 0 basechar 0
LayerCount: 2
Fore
SplineSet
276 787 m 1
 293 883 l 1
 584 883 l 1
 567 787 l 1
 276 787 l 1
10 0 m 1
 316 717 l 1
 500 717 l 1
 553 0 l 1
 414 0 l 1
 406 176 l 1
 218 176 l 1
 148 0 l 1
 10 0 l 1
338 473 m 2
 267 295 l 1
 402 295 l 1
 394 472 l 2
 391 515 391 563 390 606 c 1
 375 563 355 513 338 473 c 2
EndSplineSet
Substitution2: "'c2sc' Capitals to Small Capitals lookup 34 subtable" amacron.sc
Substitution2: "'aalt' Access All Alternates lookup 0 subtable" amacron.sc
EndChar

StartChar: amacron
Encoding: 257 257 195
Width: 563
GlyphClass: 2
Flags: HW
AnchorPoint: "Anchor-2" 640 546 basechar 0
AnchorPoint: "Anchor-1" 409 715 basechar 0
AnchorPoint: "Anchor-0" 282 0 basechar 0
LayerCount: 2
Fore
SplineSet
256 619 m 1
 273 715 l 1
 564 715 l 1
 547 619 l 1
 256 619 l 1
211 -10 m 0
 105 -10 60 55 78 158 c 0
 99 277 181 332 322 336 c 2
 431 339 l 1
 435 362 l 2
 444 414 416 440 348 440 c 0
 307 440 259 431 199 407 c 1
 169 508 l 1
 238 541 303 556 376 556 c 0
 524 556 590 493 568 364 c 2
 504 0 l 1
 401 0 l 1
 389 70 l 1
 386 70 l 1
 328 11 272 -10 211 -10 c 0
280 105 m 0
 340 105 396 144 408 208 c 2
 416 253 l 1
 344 251 l 2
 271 249 227 223 218 170 c 0
 210 125 238 105 280 105 c 0
EndSplineSet
Substitution2: "'smcp' Lowercase to Small Capitals lookup 35 subtable" amacron.sc
Substitution2: "'aalt' Access All Alternates lookup 0 subtable" amacron.sc
EndChar

StartChar: Abreve
Encoding: 258 258 196
Width: 563
GlyphClass: 2
Flags: HW
AnchorPoint: "Anchor-2" 670 714 basechar 0
AnchorPoint: "Anchor-1" 448 935 basechar 0
AnchorPoint: "Anchor-0" 282 0 basechar 0
LayerCount: 2
Fore
SplineSet
418 776 m 0
 326 776 273 833 288 935 c 1
 369 935 l 1
 364 885 392 866 435 866 c 0
 477 866 512 884 526 935 c 1
 607 935 l 1
 587 838 512 776 418 776 c 0
10 0 m 1
 316 717 l 1
 500 717 l 1
 553 0 l 1
 414 0 l 1
 406 176 l 1
 218 176 l 1
 148 0 l 1
 10 0 l 1
338 473 m 2
 267 295 l 1
 402 295 l 1
 394 472 l 2
 391 515 391 563 390 606 c 1
 375 563 355 513 338 473 c 2
EndSplineSet
Substitution2: "'c2sc' Capitals to Small Capitals lookup 34 subtable" abreve.sc
Substitution2: "'aalt' Access All Alternates lookup 0 subtable" abreve.sc
EndChar

StartChar: abreve
Encoding: 259 259 197
Width: 563
GlyphClass: 2
Flags: HW
AnchorPoint: "Anchor-2" 640 546 basechar 0
AnchorPoint: "Anchor-1" 418 767 basechar 0
AnchorPoint: "Anchor-0" 282 0 basechar 0
LayerCount: 2
Fore
SplineSet
399 608 m 0
 306 608 253 665 269 767 c 1
 350 767 l 1
 344 717 372 698 416 698 c 0
 457 698 493 716 506 767 c 1
 587 767 l 1
 568 670 493 608 399 608 c 0
211 -10 m 0
 105 -10 60 55 78 158 c 0
 99 277 181 332 322 336 c 2
 431 339 l 1
 435 362 l 2
 444 414 416 440 348 440 c 0
 307 440 259 431 199 407 c 1
 169 508 l 1
 238 541 303 556 376 556 c 0
 524 556 590 493 568 364 c 2
 504 0 l 1
 401 0 l 1
 389 70 l 1
 386 70 l 1
 328 11 272 -10 211 -10 c 0
280 105 m 0
 340 105 396 144 408 208 c 2
 416 253 l 1
 344 251 l 2
 271 249 227 223 218 170 c 0
 210 125 238 105 280 105 c 0
EndSplineSet
Substitution2: "'smcp' Lowercase to Small Capitals lookup 35 subtable" abreve.sc
Substitution2: "'aalt' Access All Alternates lookup 0 subtable" abreve.sc
EndChar

StartChar: Aogonek
Encoding: 260 260 198
Width: 563
GlyphClass: 2
Flags: HW
AnchorPoint: "Anchor-2" 670 714 basechar 0
AnchorPoint: "Anchor-1" 409 714 basechar 0
AnchorPoint: "Anchor-0" 240 -236 basechar 0
LayerCount: 2
Fore
SplineSet
10 0 m 1
 316 717 l 1
 500 717 l 1
 553 0 l 1
 502 -44 480 -75 475 -105 c 0
 470 -134 481 -150 507 -150 c 0
 524 -150 539 -145 550 -141 c 1
 535 -224 l 1
 519 -231 496 -236 467 -236 c 0
 391 -236 358 -195 370 -131 c 0
 378 -86 412 -38 466 0 c 1
 414 0 l 1
 406 176 l 1
 218 176 l 1
 148 0 l 1
 10 0 l 1
338 473 m 2
 267 295 l 1
 402 295 l 1
 394 472 l 2
 391 515 391 563 390 606 c 1
 375 563 355 513 338 473 c 2
EndSplineSet
Substitution2: "'c2sc' Capitals to Small Capitals lookup 34 subtable" aogonek.sc
Substitution2: "'locl' Localized Forms in Latin lookup 10 subtable" Aogonek.loclNAV
Ligature2: "'ccmp' Glyph Composition/Decomposition lookup 6 subtable" A uni0328
AlternateSubs2: "'aalt' Access All Alternates lookup 1 subtable" Aogonek.loclNAV aogonek.sc
EndChar

StartChar: aogonek
Encoding: 261 261 199
Width: 563
GlyphClass: 2
Flags: HW
AnchorPoint: "Anchor-2" 640 546 basechar 0
AnchorPoint: "Anchor-1" 379 546 basechar 0
AnchorPoint: "Anchor-0" 240 -236 basechar 0
LayerCount: 2
Fore
SplineSet
211 -10 m 0
 105 -10 60 55 78 158 c 0
 99 277 181 332 322 336 c 2
 431 339 l 1
 435 362 l 2
 444 414 416 440 348 440 c 0
 307 440 259 431 199 407 c 1
 169 508 l 1
 238 541 303 556 376 556 c 0
 524 556 590 493 568 364 c 2
 504 0 l 1
 489 0 l 1
 438 -44 416 -75 411 -105 c 0
 406 -134 417 -150 443 -150 c 0
 460 -150 475 -145 486 -141 c 1
 471 -224 l 1
 455 -231 431 -236 403 -236 c 0
 327 -236 294 -195 306 -131 c 0
 314 -86 348 -38 402 0 c 1
 401 0 l 1
 389 70 l 1
 386 70 l 1
 328 11 272 -10 211 -10 c 0
280 105 m 0
 340 105 396 144 408 208 c 2
 416 253 l 1
 344 251 l 2
 271 249 227 223 218 170 c 0
 210 125 238 105 280 105 c 0
EndSplineSet
Substitution2: "'smcp' Lowercase to Small Capitals lookup 35 subtable" aogonek.sc
Substitution2: "'locl' Localized Forms in Latin lookup 10 subtable" aogonek.loclNAV
Ligature2: "'ccmp' Glyph Composition/Decomposition lookup 6 subtable" a uni0328
AlternateSubs2: "'aalt' Access All Alternates lookup 1 subtable" aogonek.loclNAV aogonek.sc
EndChar

StartChar: Cacute
Encoding: 262 262 200
Width: 563
GlyphClass: 2
Flags: HW
AnchorPoint: "Anchor-2" 670 714 basechar 0
AnchorPoint: "Anchor-1" 514 934 basechar 0
AnchorPoint: "Anchor-0" 340 0 basechar 0
LayerCount: 2
Fore
SplineSet
411 787 m 1
 453 835 498 889 530 934 c 1
 682 934 l 1
 681 925 l 1
 643 887 557 814 501 774 c 1
 409 774 l 1
 411 787 l 1
334 -12 m 0
 139 -12 68 126 107 347 c 0
 147 575 286 725 490 725 c 0
 555 725 604 710 652 682 c 1
 587 567 l 1
 546 590 509 600 469 600 c 0
 343 600 275 498 249 351 c 0
 221 190 263 113 379 113 c 0
 426 113 469 124 530 151 c 1
 507 24 l 1
 452 0 392 -12 334 -12 c 0
EndSplineSet
Substitution2: "'c2sc' Capitals to Small Capitals lookup 34 subtable" cacute.sc
Substitution2: "'aalt' Access All Alternates lookup 0 subtable" cacute.sc
EndChar

StartChar: cacute
Encoding: 263 263 201
Width: 563
GlyphClass: 2
Flags: HW
AnchorPoint: "Anchor-2" 640 546 basechar 0
AnchorPoint: "Anchor-1" 452 766 basechar 0
AnchorPoint: "Anchor-0" 310 0 basechar 0
LayerCount: 2
Fore
SplineSet
353 619 m 1
 396 667 441 721 472 766 c 1
 624 766 l 1
 623 757 l 1
 585 719 499 646 444 606 c 1
 351 606 l 1
 353 619 l 1
319 -10 m 0
 146 -10 80 83 113 266 c 0
 147 458 254 556 426 556 c 0
 481 556 538 546 589 521 c 1
 527 409 l 1
 482 430 447 436 416 436 c 0
 329 436 274 380 255 272 c 0
 235 159 276 111 359 111 c 0
 397 111 446 121 508 154 c 1
 485 27 l 1
 423 -2 370 -10 319 -10 c 0
EndSplineSet
Substitution2: "'smcp' Lowercase to Small Capitals lookup 35 subtable" cacute.sc
Substitution2: "'aalt' Access All Alternates lookup 0 subtable" cacute.sc
EndChar

StartChar: Ccircumflex
Encoding: 264 264 202
Width: 563
GlyphClass: 2
Flags: HW
AnchorPoint: "Anchor-2" 670 714 basechar 0
AnchorPoint: "Anchor-1" 501 934 basechar 0
AnchorPoint: "Anchor-0" 340 0 basechar 0
LayerCount: 2
Fore
SplineSet
306 787 m 1
 346 826 407 894 436 934 c 1
 571 934 l 1
 587 890 620 832 648 787 c 1
 646 774 l 1
 564 774 l 1
 539 795 513 823 489 858 c 1
 452 823 415 793 387 774 c 1
 304 774 l 1
 306 787 l 1
334 -12 m 0
 139 -12 68 126 107 347 c 0
 147 575 286 725 490 725 c 0
 555 725 604 710 652 682 c 1
 587 567 l 1
 546 590 509 600 469 600 c 0
 343 600 275 498 249 351 c 0
 221 190 263 113 379 113 c 0
 426 113 469 124 530 151 c 1
 507 24 l 1
 452 0 392 -12 334 -12 c 0
EndSplineSet
Substitution2: "'c2sc' Capitals to Small Capitals lookup 34 subtable" ccircumflex.sc
Substitution2: "'aalt' Access All Alternates lookup 0 subtable" ccircumflex.sc
EndChar

StartChar: ccircumflex
Encoding: 265 265 203
Width: 563
GlyphClass: 2
Flags: HW
AnchorPoint: "Anchor-2" 640 546 basechar 0
AnchorPoint: "Anchor-1" 445 764 basechar 0
AnchorPoint: "Anchor-0" 337 0 basechar 0
LayerCount: 2
Fore
SplineSet
248 619 m 1
 289 658 349 726 379 766 c 1
 513 766 l 1
 530 722 562 664 591 619 c 1
 589 606 l 1
 506 606 l 1
 482 627 457 655 432 690 c 1
 395 655 358 625 330 606 c 1
 246 606 l 1
 248 619 l 1
319 -10 m 0
 146 -10 80 83 113 266 c 0
 147 458 254 556 426 556 c 0
 481 556 538 546 589 521 c 1
 527 409 l 1
 482 430 447 436 416 436 c 0
 329 436 274 380 255 272 c 0
 235 159 276 111 359 111 c 0
 397 111 446 121 508 154 c 1
 485 27 l 1
 423 -2 370 -10 319 -10 c 0
EndSplineSet
Substitution2: "'smcp' Lowercase to Small Capitals lookup 35 subtable" ccircumflex.sc
Substitution2: "'aalt' Access All Alternates lookup 0 subtable" ccircumflex.sc
EndChar

StartChar: Cdot
Encoding: 266 266 204
Width: 563
GlyphClass: 2
Flags: HW
AnchorPoint: "Anchor-2" 670 714 basechar 0
AnchorPoint: "Anchor-1" 498 914 basechar 0
AnchorPoint: "Anchor-0" 340 0 basechar 0
LayerCount: 2
Fore
SplineSet
474 775 m 0
 420 775 395 803 404 857 c 0
 413 910 446 938 503 938 c 0
 560 938 582 910 573 857 c 0
 564 805 532 775 474 775 c 0
334 -12 m 0
 139 -12 68 126 107 347 c 0
 147 575 286 725 490 725 c 0
 555 725 604 710 652 682 c 1
 587 567 l 1
 546 590 509 600 469 600 c 0
 343 600 275 498 249 351 c 0
 221 190 263 113 379 113 c 0
 426 113 469 124 530 151 c 1
 507 24 l 1
 452 0 392 -12 334 -12 c 0
EndSplineSet
Substitution2: "'c2sc' Capitals to Small Capitals lookup 34 subtable" cdotaccent.sc
Substitution2: "'aalt' Access All Alternates lookup 0 subtable" cdotaccent.sc
EndChar

StartChar: cdot
Encoding: 267 267 205
Width: 563
GlyphClass: 2
Flags: HW
AnchorPoint: "Anchor-2" 640 546 basechar 0
AnchorPoint: "Anchor-1" 443 746 basechar 0
AnchorPoint: "Anchor-0" 326 0 basechar 0
LayerCount: 2
Fore
SplineSet
417 611 m 0
 364 611 338 638 347 692 c 0
 356 746 391 774 448 774 c 0
 504 774 526 746 517 693 c 0
 508 640 476 611 417 611 c 0
319 -10 m 0
 146 -10 80 83 113 266 c 0
 147 458 254 556 426 556 c 0
 481 556 538 546 589 521 c 1
 527 409 l 1
 482 430 447 436 416 436 c 0
 329 436 274 380 255 272 c 0
 235 159 276 111 359 111 c 0
 397 111 446 121 508 154 c 1
 485 27 l 1
 423 -2 370 -10 319 -10 c 0
EndSplineSet
EndChar

StartChar: Ccaron
Encoding: 268 268 206
Width: 563
GlyphClass: 2
Flags: HW
AnchorPoint: "Anchor-2" 670 714 basechar 0
AnchorPoint: "Anchor-1" 499 934 basechar 0
AnchorPoint: "Anchor-0" 345 0 basechar 0
LayerCount: 2
Fore
SplineSet
408 774 m 1
 394 815 355 883 330 921 c 1
 332 934 l 1
 415 934 l 1
 438 913 464 885 487 851 c 1
 526 887 558 911 591 934 c 1
 674 934 l 1
 672 921 l 1
 634 884 572 818 542 774 c 1
 408 774 l 1
334 -12 m 0
 139 -12 68 126 107 347 c 0
 147 575 286 725 490 725 c 0
 555 725 604 710 652 682 c 1
 587 567 l 1
 546 590 509 600 469 600 c 0
 343 600 275 498 249 351 c 0
 221 190 263 113 379 113 c 0
 426 113 469 124 530 151 c 1
 507 24 l 1
 452 0 392 -12 334 -12 c 0
EndSplineSet
Substitution2: "'c2sc' Capitals to Small Capitals lookup 34 subtable" ccaron.sc
Substitution2: "'aalt' Access All Alternates lookup 0 subtable" ccaron.sc
EndChar

StartChar: ccaron
Encoding: 269 269 207
Width: 563
GlyphClass: 2
Flags: HW
AnchorPoint: "Anchor-2" 640 546 basechar 0
AnchorPoint: "Anchor-1" 447 766 basechar 0
AnchorPoint: "Anchor-0" 307 0 basechar 0
LayerCount: 2
Fore
SplineSet
351 606 m 1
 336 647 297 715 272 753 c 1
 274 766 l 1
 358 766 l 1
 381 745 406 717 430 683 c 1
 468 719 501 743 533 766 c 1
 617 766 l 1
 615 753 l 1
 577 716 515 650 484 606 c 1
 351 606 l 1
319 -10 m 0
 146 -10 80 83 113 266 c 0
 147 458 254 556 426 556 c 0
 481 556 538 546 589 521 c 1
 527 409 l 1
 482 430 447 436 416 436 c 0
 329 436 274 380 255 272 c 0
 235 159 276 111 359 111 c 0
 397 111 446 121 508 154 c 1
 485 27 l 1
 423 -2 370 -10 319 -10 c 0
EndSplineSet
Substitution2: "'smcp' Lowercase to Small Capitals lookup 35 subtable" ccaron.sc
Substitution2: "'aalt' Access All Alternates lookup 0 subtable" ccaron.sc
EndChar

StartChar: Dcaron
Encoding: 270 270 208
Width: 563
GlyphClass: 2
Flags: HW
AnchorPoint: "Anchor-3" 350 357 basechar 0
AnchorPoint: "Anchor-2" 690 714 basechar 0
AnchorPoint: "Anchor-1" 436 934 basechar 0
AnchorPoint: "Anchor-0" 282 0 basechar 0
LayerCount: 2
Fore
SplineSet
342 774 m 1
 328 815 289 883 264 921 c 1
 266 934 l 1
 349 934 l 1
 372 913 398 885 421 851 c 1
 460 887 492 911 525 934 c 1
 608 934 l 1
 606 921 l 1
 568 884 506 818 476 774 c 1
 342 774 l 1
41 0 m 1
 168 714 l 1
 376 714 l 2
 555 714 642 594 602 366 c 0
 560 130 425 0 238 0 c 2
 41 0 l 1
252 122 m 2
 365 122 430 200 459 363 c 0
 487 523 448 592 345 592 c 2
 284 592 l 1
 201 122 l 1
 252 122 l 2
EndSplineSet
Substitution2: "'c2sc' Capitals to Small Capitals lookup 34 subtable" dcaron.sc
Substitution2: "'aalt' Access All Alternates lookup 0 subtable" dcaron.sc
EndChar

StartChar: dcaron
Encoding: 271 271 209
Width: 563
GlyphClass: 2
Flags: HW
AnchorPoint: "Anchor-3" 284 273 basechar 0
AnchorPoint: "Anchor-2" 633 760 basechar 0
AnchorPoint: "Anchor-1" 397 760 basechar 0
AnchorPoint: "Anchor-0" 236 0 basechar 0
LayerCount: 2
Fore
SplineSet
194 -10 m 0
 75 -10 46 114 74 273 c 0
 103 439 180 556 304 556 c 0
 362 556 395 529 419 476 c 1
 424 476 l 1
 423 514 426 551 433 589 c 2
 464 760 l 1
 601 760 l 1
 466 0 l 1
 362 0 l 1
 346 71 l 1
 339 71 l 1
 297 18 250 -10 194 -10 c 0
598 611 m 1
 613 646 639 720 650 760 c 1
 779 760 l 1
 778 751 l 1
 753 706 716 648 677 600 c 1
 596 600 l 1
 598 611 l 1
272 109 m 0
 329 109 367 159 385 257 c 2
 387 273 l 2
 406 379 397 437 331 437 c 0
 262 437 233 371 217 280 c 0
 195 158 215 109 272 109 c 0
EndSplineSet
Substitution2: "'smcp' Lowercase to Small Capitals lookup 35 subtable" dcaron.sc
Substitution2: "'aalt' Access All Alternates lookup 0 subtable" dcaron.sc
EndChar

StartChar: Dcroat
Encoding: 272 272 210
Width: 563
GlyphClass: 2
Flags: HW
AnchorPoint: "Anchor-3" 354 357 basechar 0
AnchorPoint: "Anchor-2" 694 714 basechar 0
AnchorPoint: "Anchor-1" 409 714 basechar 0
AnchorPoint: "Anchor-0" 282 0 basechar 0
LayerCount: 2
Fore
SplineSet
45 0 m 1
 98 303 l 1
 53 303 l 1
 74 414 l 1
 119 414 l 1
 172 714 l 1
 379 714 l 2
 558 714 646 594 606 366 c 0
 564 130 429 0 242 0 c 2
 45 0 l 1
256 122 m 2
 369 122 434 200 463 363 c 0
 491 523 452 592 349 592 c 2
 288 592 l 1
 257 414 l 1
 354 414 l 1
 333 303 l 1
 236 303 l 1
 205 122 l 1
 256 122 l 2
EndSplineSet
Substitution2: "'c2sc' Capitals to Small Capitals lookup 34 subtable" dcroat.sc
Substitution2: "'aalt' Access All Alternates lookup 0 subtable" dcroat.sc
EndChar

StartChar: dcroat
Encoding: 273 273 211
Width: 563
GlyphClass: 2
Flags: HW
AnchorPoint: "Anchor-3" 330 273 basechar 0
AnchorPoint: "Anchor-2" 678 760 basechar 0
AnchorPoint: "Anchor-1" 417 760 basechar 0
AnchorPoint: "Anchor-0" 282 0 basechar 0
LayerCount: 2
Fore
SplineSet
221 -10 m 0
 89 -10 56 110 84 267 c 0
 112 429 193 546 329 546 c 0
 395 546 440 518 465 466 c 1
 469 466 l 1
 469 504 472 541 479 585 c 2
 480 587 l 1
 351 587 l 1
 366 679 l 1
 495 679 l 1
 510 760 l 1
 647 760 l 1
 632 679 l 1
 683 679 l 1
 668 587 l 1
 617 587 l 1
 512 0 l 1
 409 0 l 1
 392 71 l 1
 386 71 l 1
 342 18 284 -10 221 -10 c 0
302 109 m 0
 373 109 415 157 431 247 c 2
 435 266 l 2
 452 360 442 427 362 427 c 0
 288 427 245 371 226 264 c 0
 207 155 232 109 302 109 c 0
EndSplineSet
Substitution2: "'smcp' Lowercase to Small Capitals lookup 35 subtable" dcroat.sc
Substitution2: "'aalt' Access All Alternates lookup 0 subtable" dcroat.sc
EndChar

StartChar: Emacron
Encoding: 274 274 212
Width: 563
GlyphClass: 2
Flags: HW
AnchorPoint: "Anchor-2" 670 714 basechar 0
AnchorPoint: "Anchor-1" 446 883 basechar 0
AnchorPoint: "Anchor-0" 282 0 basechar 0
LayerCount: 2
Fore
SplineSet
282 787 m 1
 299 883 l 1
 589 883 l 1
 572 787 l 1
 282 787 l 1
71 0 m 1
 198 714 l 1
 628 714 l 1
 606 591 l 1
 311 591 l 1
 282 429 l 1
 561 429 l 1
 539 306 l 1
 260 306 l 1
 228 123 l 1
 523 123 l 1
 501 0 l 1
 71 0 l 1
EndSplineSet
Substitution2: "'c2sc' Capitals to Small Capitals lookup 34 subtable" emacron.sc
Substitution2: "'aalt' Access All Alternates lookup 0 subtable" emacron.sc
EndChar

StartChar: emacron
Encoding: 275 275 213
Width: 563
GlyphClass: 2
Flags: HW
AnchorPoint: "Anchor-2" 640 546 basechar 0
AnchorPoint: "Anchor-1" 419 715 basechar 0
AnchorPoint: "Anchor-0" 282 0 basechar 0
LayerCount: 2
Fore
SplineSet
256 619 m 1
 273 715 l 1
 563 715 l 1
 546 619 l 1
 256 619 l 1
322 -10 m 0
 142 -10 60 92 93 275 c 0
 124 449 232 556 389 556 c 0
 533 556 601 467 573 306 c 2
 560 232 l 1
 225 232 l 1
 215 151 270 108 357 108 c 0
 414 108 471 124 525 145 c 1
 504 29 l 1
 453 4 390 -10 322 -10 c 0
446 330 m 1
 458 404 425 444 369 444 c 0
 313 444 263 406 244 330 c 1
 446 330 l 1
EndSplineSet
Substitution2: "'smcp' Lowercase to Small Capitals lookup 35 subtable" emacron.sc
Substitution2: "'aalt' Access All Alternates lookup 0 subtable" emacron.sc
EndChar

StartChar: Ebreve
Encoding: 276 276 214
Width: 563
GlyphClass: 2
Flags: HW
AnchorPoint: "Anchor-2" 670 714 basechar 0
AnchorPoint: "Anchor-1" 453 934 basechar 0
AnchorPoint: "Anchor-0" 282 0 basechar 0
LayerCount: 2
Fore
SplineSet
424 776 m 0
 331 776 278 833 294 935 c 1
 375 935 l 1
 370 885 397 866 441 866 c 0
 482 866 518 884 531 935 c 1
 613 935 l 1
 593 838 518 776 424 776 c 0
71 0 m 1
 198 714 l 1
 628 714 l 1
 606 591 l 1
 311 591 l 1
 282 429 l 1
 561 429 l 1
 539 306 l 1
 260 306 l 1
 228 123 l 1
 523 123 l 1
 501 0 l 1
 71 0 l 1
EndSplineSet
Substitution2: "'c2sc' Capitals to Small Capitals lookup 34 subtable" ebreve.sc
Substitution2: "'aalt' Access All Alternates lookup 0 subtable" ebreve.sc
EndChar

StartChar: ebreve
Encoding: 277 277 215
Width: 563
GlyphClass: 2
Flags: HW
AnchorPoint: "Anchor-2" 640 546 basechar 0
AnchorPoint: "Anchor-1" 425 767 basechar 0
AnchorPoint: "Anchor-0" 282 0 basechar 0
LayerCount: 2
Fore
SplineSet
398 608 m 0
 305 608 252 665 268 767 c 1
 349 767 l 1
 344 717 371 698 415 698 c 0
 456 698 492 716 505 767 c 1
 587 767 l 1
 567 670 492 608 398 608 c 0
322 -10 m 0
 142 -10 60 92 93 275 c 0
 124 449 232 556 389 556 c 0
 533 556 601 467 573 306 c 2
 560 232 l 1
 225 232 l 1
 215 151 270 108 357 108 c 0
 414 108 471 124 525 145 c 1
 504 29 l 1
 453 4 390 -10 322 -10 c 0
446 330 m 1
 458 404 425 444 369 444 c 0
 313 444 263 406 244 330 c 1
 446 330 l 1
EndSplineSet
Substitution2: "'smcp' Lowercase to Small Capitals lookup 35 subtable" ebreve.sc
Substitution2: "'aalt' Access All Alternates lookup 0 subtable" ebreve.sc
EndChar

StartChar: Edotaccent
Encoding: 278 278 216
Width: 563
GlyphClass: 2
Flags: HW
AnchorPoint: "Anchor-2" 670 714 basechar 0
AnchorPoint: "Anchor-1" 449 914 basechar 0
AnchorPoint: "Anchor-0" 282 0 basechar 0
LayerCount: 2
Fore
SplineSet
424 775 m 0
 370 775 345 803 354 857 c 0
 363 910 396 938 453 938 c 0
 510 938 533 910 524 857 c 0
 515 805 482 775 424 775 c 0
71 0 m 1
 198 714 l 1
 628 714 l 1
 606 591 l 1
 311 591 l 1
 282 429 l 1
 561 429 l 1
 539 306 l 1
 260 306 l 1
 228 123 l 1
 523 123 l 1
 501 0 l 1
 71 0 l 1
EndSplineSet
Substitution2: "'c2sc' Capitals to Small Capitals lookup 34 subtable" edotaccent.sc
Substitution2: "'aalt' Access All Alternates lookup 0 subtable" edotaccent.sc
EndChar

StartChar: edotaccent
Encoding: 279 279 217
Width: 563
GlyphClass: 2
Flags: HW
AnchorPoint: "Anchor-2" 640 546 basechar 0
AnchorPoint: "Anchor-1" 425 746 basechar 0
AnchorPoint: "Anchor-0" 282 0 basechar 0
LayerCount: 2
Fore
SplineSet
399 611 m 0
 345 611 320 638 329 692 c 0
 338 746 372 774 429 774 c 0
 486 774 508 746 499 693 c 0
 490 640 457 611 399 611 c 0
322 -10 m 0
 142 -10 60 92 93 275 c 0
 124 449 232 556 389 556 c 0
 533 556 601 467 573 306 c 2
 560 232 l 1
 225 232 l 1
 215 151 270 108 357 108 c 0
 414 108 471 124 525 145 c 1
 504 29 l 1
 453 4 390 -10 322 -10 c 0
446 330 m 1
 458 404 425 444 369 444 c 0
 313 444 263 406 244 330 c 1
 446 330 l 1
EndSplineSet
Substitution2: "'smcp' Lowercase to Small Capitals lookup 35 subtable" edotaccent.sc
Substitution2: "'aalt' Access All Alternates lookup 0 subtable" edotaccent.sc
EndChar

StartChar: Eogonek
Encoding: 280 280 218
Width: 563
GlyphClass: 2
Flags: HW
AnchorPoint: "Anchor-2" 670 714 basechar 0
AnchorPoint: "Anchor-1" 419 714 basechar 0
AnchorPoint: "Anchor-0" 261 -236 basechar 0
LayerCount: 2
Fore
SplineSet
71 0 m 1
 198 714 l 1
 628 714 l 1
 606 591 l 1
 311 591 l 1
 282 429 l 1
 561 429 l 1
 539 306 l 1
 260 306 l 1
 228 123 l 1
 523 123 l 1
 501 0 l 1
 454 0 l 1
 403 -44 381 -75 376 -105 c 0
 371 -134 382 -150 408 -150 c 0
 425 -150 441 -145 452 -141 c 1
 437 -224 l 1
 420 -231 397 -236 368 -236 c 0
 292 -236 259 -195 271 -131 c 0
 279 -86 313 -38 367 0 c 1
 71 0 l 1
EndSplineSet
Substitution2: "'c2sc' Capitals to Small Capitals lookup 34 subtable" eogonek.sc
Substitution2: "'locl' Localized Forms in Latin lookup 10 subtable" Eogonek.loclNAV
Ligature2: "'ccmp' Glyph Composition/Decomposition lookup 6 subtable" E uni0328
AlternateSubs2: "'aalt' Access All Alternates lookup 1 subtable" Eogonek.loclNAV eogonek.sc
EndChar

StartChar: eogonek
Encoding: 281 281 219
Width: 563
GlyphClass: 2
Flags: HW
AnchorPoint: "Anchor-2" 640 546 basechar 0
AnchorPoint: "Anchor-1" 379 546 basechar 0
AnchorPoint: "Anchor-0" 256 -236 basechar 0
LayerCount: 2
Fore
SplineSet
322 -10 m 0
 142 -10 60 92 93 275 c 0
 124 449 232 556 389 556 c 0
 533 556 601 467 573 306 c 2
 560 232 l 1
 225 232 l 1
 215 151 270 108 357 108 c 0
 414 108 471 124 525 145 c 1
 504 29 l 2
 503 28 502 28 502 27 c 0
 432 -14 398 -55 390 -101 c 0
 384 -134 392 -150 422 -150 c 0
 438 -150 453 -145 464 -141 c 1
 449 -224 l 1
 433 -231 409 -236 382 -236 c 0
 305 -236 272 -191 284 -126 c 0
 292 -77 321 -40 357 -9 c 1
 345 -10 334 -10 322 -10 c 0
446 330 m 1
 458 404 425 444 369 444 c 0
 313 444 263 406 244 330 c 1
 446 330 l 1
EndSplineSet
Substitution2: "'smcp' Lowercase to Small Capitals lookup 35 subtable" eogonek.sc
Substitution2: "'locl' Localized Forms in Latin lookup 10 subtable" eogonek.loclNAV
Ligature2: "'ccmp' Glyph Composition/Decomposition lookup 6 subtable" e uni0328
AlternateSubs2: "'aalt' Access All Alternates lookup 1 subtable" eogonek.loclNAV eogonek.sc
EndChar

StartChar: Ecaron
Encoding: 282 282 220
Width: 563
GlyphClass: 2
Flags: HW
AnchorPoint: "Anchor-2" 670 714 basechar 0
AnchorPoint: "Anchor-1" 453 934 basechar 0
AnchorPoint: "Anchor-0" 282 0 basechar 0
LayerCount: 2
Fore
SplineSet
359 774 m 1
 344 815 305 883 280 921 c 1
 282 934 l 1
 366 934 l 1
 388 913 414 885 437 851 c 1
 476 887 509 911 541 934 c 1
 624 934 l 1
 622 921 l 1
 584 884 523 818 492 774 c 1
 359 774 l 1
71 0 m 1
 198 714 l 1
 628 714 l 1
 606 591 l 1
 311 591 l 1
 282 429 l 1
 561 429 l 1
 539 306 l 1
 260 306 l 1
 228 123 l 1
 523 123 l 1
 501 0 l 1
 71 0 l 1
EndSplineSet
Substitution2: "'c2sc' Capitals to Small Capitals lookup 34 subtable" ecaron.sc
Substitution2: "'aalt' Access All Alternates lookup 0 subtable" ecaron.sc
EndChar

StartChar: ecaron
Encoding: 283 283 221
Width: 563
GlyphClass: 2
Flags: HW
AnchorPoint: "Anchor-2" 640 546 basechar 0
AnchorPoint: "Anchor-1" 425 766 basechar 0
AnchorPoint: "Anchor-0" 282 0 basechar 0
LayerCount: 2
Fore
SplineSet
333 606 m 1
 318 647 279 715 254 753 c 1
 256 766 l 1
 340 766 l 1
 362 745 388 717 411 683 c 1
 450 719 483 743 515 766 c 1
 598 766 l 1
 596 753 l 1
 558 716 497 650 466 606 c 1
 333 606 l 1
322 -10 m 0
 142 -10 60 92 93 275 c 0
 124 449 232 556 389 556 c 0
 533 556 601 467 573 306 c 2
 560 232 l 1
 225 232 l 1
 215 151 270 108 357 108 c 0
 414 108 471 124 525 145 c 1
 504 29 l 1
 453 4 390 -10 322 -10 c 0
446 330 m 1
 458 404 425 444 369 444 c 0
 313 444 263 406 244 330 c 1
 446 330 l 1
EndSplineSet
Substitution2: "'smcp' Lowercase to Small Capitals lookup 35 subtable" ecaron.sc
Substitution2: "'aalt' Access All Alternates lookup 0 subtable" ecaron.sc
EndChar

StartChar: Gcircumflex
Encoding: 284 284 222
Width: 563
GlyphClass: 2
Flags: HW
AnchorPoint: "Anchor-2" 670 714 basechar 0
AnchorPoint: "Anchor-1" 474 934 basechar 0
AnchorPoint: "Anchor-0" 282 0 basechar 0
LayerCount: 2
Fore
SplineSet
279 787 m 1
 319 826 380 894 409 934 c 1
 544 934 l 1
 560 890 593 832 621 787 c 1
 619 774 l 1
 537 774 l 1
 512 795 486 823 462 858 c 1
 425 823 388 793 360 774 c 1
 277 774 l 1
 279 787 l 1
324 -10 m 0
 116 -10 50 130 88 348 c 0
 131 586 264 724 461 724 c 0
 528 724 589 708 639 680 c 1
 574 565 l 1
 538 591 495 601 454 601 c 0
 331 601 257 511 229 353 c 0
 204 210 235 112 342 112 c 0
 369 112 395 117 419 122 c 1
 447 283 l 1
 353 283 l 1
 374 402 l 1
 593 402 l 1
 527 30 l 1
 455 1 396 -10 324 -10 c 0
EndSplineSet
Substitution2: "'c2sc' Capitals to Small Capitals lookup 34 subtable" gcircumflex.sc
Substitution2: "'aalt' Access All Alternates lookup 0 subtable" gcircumflex.sc
EndChar

StartChar: gcircumflex
Encoding: 285 285 223
Width: 563
GlyphClass: 2
Flags: HW
AnchorPoint: "Anchor-2" 640 546 basechar 0
AnchorPoint: "Anchor-1" 418 766 basechar 0
AnchorPoint: "Anchor-0" 239 -245 basechar 0
LayerCount: 2
Fore
SplineSet
220 619 m 1
 261 658 321 726 351 766 c 1
 485 766 l 1
 502 722 534 664 563 619 c 1
 561 606 l 1
 478 606 l 1
 454 627 429 655 404 690 c 1
 367 655 330 625 302 606 c 1
 218 606 l 1
 220 619 l 1
201 -245 m 0
 146 -245 89 -237 32 -213 c 1
 56 -81 l 1
 116 -109 172 -123 227 -123 c 0
 311 -122 354 -86 368 -8 c 2
 371 4 l 2
 375 26 381 50 385 68 c 1
 381 68 l 1
 337 13 287 -10 228 -10 c 0
 106 -10 52 95 84 273 c 0
 116 452 209 557 328 557 c 0
 389 557 430 529 456 476 c 1
 460 476 l 1
 496 546 l 1
 609 546 l 1
 512 -1 l 2
 484 -158 386 -245 201 -245 c 0
301 109 m 0
 365 109 407 158 424 252 c 2
 428 271 l 2
 449 388 426 437 358 437 c 0
 290 437 246 380 227 273 c 0
 208 167 231 109 301 109 c 0
EndSplineSet
Substitution2: "'smcp' Lowercase to Small Capitals lookup 35 subtable" gcircumflex.sc
Substitution2: "'aalt' Access All Alternates lookup 0 subtable" gcircumflex.sc
EndChar

StartChar: Gbreve
Encoding: 286 286 224
Width: 563
GlyphClass: 2
Flags: HW
AnchorPoint: "Anchor-2" 670 714 basechar 0
AnchorPoint: "Anchor-1" 474 937 basechar 0
AnchorPoint: "Anchor-0" 282 0 basechar 0
LayerCount: 2
Fore
SplineSet
447 776 m 0
 354 776 301 833 317 935 c 1
 398 935 l 1
 392 885 420 866 464 866 c 0
 505 866 541 884 554 935 c 1
 635 935 l 1
 615 838 541 776 447 776 c 0
324 -10 m 0
 116 -10 50 130 88 348 c 0
 131 586 264 724 461 724 c 0
 528 724 589 708 639 680 c 1
 574 565 l 1
 538 591 495 601 454 601 c 0
 331 601 257 511 229 353 c 0
 204 210 235 112 342 112 c 0
 369 112 395 117 419 122 c 1
 447 283 l 1
 353 283 l 1
 374 402 l 1
 593 402 l 1
 527 30 l 1
 455 1 396 -10 324 -10 c 0
EndSplineSet
Substitution2: "'c2sc' Capitals to Small Capitals lookup 34 subtable" gbreve.sc
Substitution2: "'aalt' Access All Alternates lookup 0 subtable" gbreve.sc
EndChar

StartChar: gbreve
Encoding: 287 287 225
Width: 563
GlyphClass: 2
Flags: HW
AnchorPoint: "Anchor-2" 640 546 basechar 0
AnchorPoint: "Anchor-1" 418 767 basechar 0
AnchorPoint: "Anchor-0" 239 -245 basechar 0
LayerCount: 2
Fore
SplineSet
388 608 m 0
 296 608 243 665 258 767 c 1
 339 767 l 1
 334 717 362 698 405 698 c 0
 447 698 482 716 496 767 c 1
 577 767 l 1
 557 670 482 608 388 608 c 0
201 -245 m 0
 146 -245 89 -237 32 -213 c 1
 56 -81 l 1
 116 -109 172 -123 227 -123 c 0
 311 -122 354 -86 368 -8 c 2
 371 4 l 2
 375 26 381 50 385 68 c 1
 381 68 l 1
 337 13 287 -10 228 -10 c 0
 106 -10 52 95 84 273 c 0
 116 452 209 557 328 557 c 0
 389 557 430 529 456 476 c 1
 460 476 l 1
 496 546 l 1
 609 546 l 1
 512 -1 l 2
 484 -158 386 -245 201 -245 c 0
301 109 m 0
 365 109 407 158 424 252 c 2
 428 271 l 2
 449 388 426 437 358 437 c 0
 290 437 246 380 227 273 c 0
 208 167 231 109 301 109 c 0
EndSplineSet
Substitution2: "'smcp' Lowercase to Small Capitals lookup 35 subtable" gbreve.sc
Substitution2: "'aalt' Access All Alternates lookup 0 subtable" gbreve.sc
EndChar

StartChar: Gdot
Encoding: 288 288 226
Width: 563
GlyphClass: 2
Flags: HW
AnchorPoint: "Anchor-2" 670 714 basechar 0
AnchorPoint: "Anchor-1" 472 914 basechar 0
AnchorPoint: "Anchor-0" 282 0 basechar 0
LayerCount: 2
Fore
SplineSet
447 775 m 0
 393 775 368 803 377 857 c 0
 386 910 419 938 476 938 c 0
 533 938 555 910 546 857 c 0
 537 805 505 775 447 775 c 0
324 -10 m 0
 116 -10 50 130 88 348 c 0
 131 586 264 724 461 724 c 0
 528 724 589 708 639 680 c 1
 574 565 l 1
 538 591 495 601 454 601 c 0
 331 601 257 511 229 353 c 0
 204 210 235 112 342 112 c 0
 369 112 395 117 419 122 c 1
 447 283 l 1
 353 283 l 1
 374 402 l 1
 593 402 l 1
 527 30 l 1
 455 1 396 -10 324 -10 c 0
EndSplineSet
Substitution2: "'c2sc' Capitals to Small Capitals lookup 34 subtable" gdotaccent.sc
Substitution2: "'aalt' Access All Alternates lookup 0 subtable" gdotaccent.sc
EndChar

StartChar: gdot
Encoding: 289 289 227
Width: 563
GlyphClass: 2
Flags: HW
AnchorPoint: "Anchor-2" 640 546 basechar 0
AnchorPoint: "Anchor-1" 415 746 basechar 0
AnchorPoint: "Anchor-0" 239 -245 basechar 0
LayerCount: 2
Fore
SplineSet
389 611 m 0
 336 611 310 639 319 693 c 0
 328 746 363 774 420 774 c 0
 476 774 498 746 489 693 c 0
 480 641 448 611 389 611 c 0
201 -245 m 0
 146 -245 89 -237 32 -213 c 1
 56 -81 l 1
 116 -109 172 -123 227 -123 c 0
 311 -122 354 -86 368 -8 c 2
 371 4 l 2
 375 26 381 50 385 68 c 1
 381 68 l 1
 337 13 287 -10 228 -10 c 0
 106 -10 52 95 84 273 c 0
 116 452 209 557 328 557 c 0
 389 557 430 529 456 476 c 1
 460 476 l 1
 496 546 l 1
 609 546 l 1
 512 -1 l 2
 484 -158 386 -245 201 -245 c 0
301 109 m 0
 365 109 407 158 424 252 c 2
 428 271 l 2
 449 388 426 437 358 437 c 0
 290 437 246 380 227 273 c 0
 208 167 231 109 301 109 c 0
EndSplineSet
EndChar

StartChar: uni0122
Encoding: 290 290 228
Width: 563
GlyphClass: 2
Flags: HW
AnchorPoint: "Anchor-2" 670 714 basechar 0
AnchorPoint: "Anchor-1" 444 714 basechar 0
AnchorPoint: "Anchor-0" 243 -221 basechar 0
LayerCount: 2
Fore
SplineSet
324 -10 m 0
 116 -10 50 130 88 348 c 0
 131 586 264 724 461 724 c 0
 528 724 589 708 639 680 c 1
 574 565 l 1
 538 591 495 601 454 601 c 0
 331 601 257 511 229 353 c 0
 204 210 235 112 342 112 c 0
 369 112 395 117 419 122 c 1
 447 283 l 1
 353 283 l 1
 374 402 l 1
 593 402 l 1
 527 30 l 1
 455 1 396 -10 324 -10 c 0
185 -208 m 1
 202 -171 227 -103 239 -61 c 1
 367 -61 l 1
 365 -70 l 1
 340 -116 303 -172 264 -221 c 1
 183 -221 l 1
 185 -208 l 1
EndSplineSet
Substitution2: "'c2sc' Capitals to Small Capitals lookup 34 subtable" uni0123.sc
Substitution2: "'aalt' Access All Alternates lookup 0 subtable" uni0123.sc
EndChar

StartChar: uni0123
Encoding: 291 291 229
Width: 563
GlyphClass: 2
Flags: HW
AnchorPoint: "Anchor-2" 640 546 basechar 0
AnchorPoint: "Anchor-1" 420 766 basechar 0
AnchorPoint: "Anchor-0" 239 -245 basechar 0
LayerCount: 2
Fore
SplineSet
316 615 m 1
 340 660 377 717 418 766 c 1
 499 766 l 1
 497 755 l 1
 478 713 453 647 441 606 c 1
 314 606 l 1
 316 615 l 1
201 -245 m 0
 146 -245 89 -237 32 -213 c 1
 56 -81 l 1
 116 -109 172 -123 227 -123 c 0
 311 -122 354 -86 368 -8 c 2
 371 4 l 2
 375 26 381 50 385 68 c 1
 381 68 l 1
 337 13 287 -10 228 -10 c 0
 106 -10 52 95 84 273 c 0
 116 452 209 557 328 557 c 0
 389 557 430 529 456 476 c 1
 460 476 l 1
 496 546 l 1
 609 546 l 1
 512 -1 l 2
 484 -158 386 -245 201 -245 c 0
301 109 m 0
 365 109 407 158 424 252 c 2
 428 271 l 2
 449 388 426 437 358 437 c 0
 290 437 246 380 227 273 c 0
 208 167 231 109 301 109 c 0
EndSplineSet
Substitution2: "'smcp' Lowercase to Small Capitals lookup 35 subtable" uni0123.sc
Substitution2: "'aalt' Access All Alternates lookup 0 subtable" uni0123.sc
EndChar

StartChar: Hcircumflex
Encoding: 292 292 230
Width: 563
GlyphClass: 2
Flags: HW
AnchorPoint: "Anchor-3" 348 372 basechar 0
AnchorPoint: "Anchor-2" 690 714 basechar 0
AnchorPoint: "Anchor-1" 448 934 basechar 0
AnchorPoint: "Anchor-0" 282 0 basechar 0
LayerCount: 2
Fore
SplineSet
250 787 m 1
 291 826 351 894 381 934 c 1
 515 934 l 1
 532 890 564 832 593 787 c 1
 591 774 l 1
 508 774 l 1
 484 795 458 823 433 858 c 1
 396 823 360 793 332 774 c 1
 248 774 l 1
 250 787 l 1
41 0 m 1
 168 714 l 1
 307 714 l 1
 257 434 l 1
 460 434 l 1
 510 714 l 1
 649 714 l 1
 522 0 l 1
 383 0 l 1
 438 309 l 1
 235 309 l 1
 180 0 l 1
 41 0 l 1
EndSplineSet
Substitution2: "'c2sc' Capitals to Small Capitals lookup 34 subtable" hcircumflex.sc
Substitution2: "'aalt' Access All Alternates lookup 0 subtable" hcircumflex.sc
EndChar

StartChar: hcircumflex
Encoding: 293 293 231
Width: 563
GlyphClass: 2
Flags: HW
AnchorPoint: "Anchor-3" 330 273 basechar 0
AnchorPoint: "Anchor-2" 678 760 basechar 0
AnchorPoint: "Anchor-1" 297 980 basechar 0
AnchorPoint: "Anchor-0" 282 0 basechar 0
LayerCount: 2
Fore
SplineSet
100 833 m 1
 140 872 200 940 230 980 c 1
 364 980 l 1
 381 936 413 878 442 833 c 1
 439 820 l 1
 356 820 l 1
 332 841 307 869 282 904 c 1
 246 869 208 839 180 820 c 1
 97 820 l 1
 100 833 l 1
51 0 m 1
 186 760 l 1
 325 760 l 1
 297 601 l 2
 289 559 280 518 269 476 c 1
 278 476 l 1
 317 528 369 556 441 556 c 0
 555 556 604 486 581 356 c 2
 517 0 l 1
 378 0 l 1
 435 320 l 2
 450 404 429 437 372 437 c 0
 297 437 258 380 236 258 c 2
 190 0 l 1
 51 0 l 1
EndSplineSet
Substitution2: "'smcp' Lowercase to Small Capitals lookup 35 subtable" hcircumflex.sc
Substitution2: "'aalt' Access All Alternates lookup 0 subtable" hcircumflex.sc
EndChar

StartChar: Hbar
Encoding: 294 294 232
Width: 563
GlyphClass: 2
Flags: HW
AnchorPoint: "Anchor-3" 346 357 basechar 0
AnchorPoint: "Anchor-1" 409 714 basechar 0
AnchorPoint: "Anchor-0" 282 0 basechar 0
LayerCount: 2
Fore
SplineSet
51 0 m 1
 144 523 l 1
 93 523 l 1
 109 616 l 1
 160 616 l 1
 178 714 l 1
 317 714 l 1
 299 616 l 1
 483 616 l 1
 501 714 l 1
 640 714 l 1
 622 616 l 1
 672 616 l 1
 656 523 l 1
 606 523 l 1
 513 0 l 1
 374 0 l 1
 429 309 l 1
 245 309 l 1
 190 0 l 1
 51 0 l 1
267 434 m 1
 451 434 l 1
 467 523 l 1
 283 523 l 1
 267 434 l 1
EndSplineSet
Substitution2: "'c2sc' Capitals to Small Capitals lookup 34 subtable" hbar.sc
Substitution2: "'aalt' Access All Alternates lookup 0 subtable" hbar.sc
EndChar

StartChar: hbar
Encoding: 295 295 233
Width: 563
GlyphClass: 2
Flags: HW
AnchorPoint: "Anchor-3" 330 273 basechar 0
AnchorPoint: "Anchor-1" 258 760 basechar 0
AnchorPoint: "Anchor-0" 282 0 basechar 0
LayerCount: 2
Fore
SplineSet
51 0 m 1
 156 587 l 1
 105 587 l 1
 120 679 l 1
 171 679 l 1
 186 760 l 1
 325 760 l 1
 310 679 l 1
 443 679 l 1
 428 587 l 1
 295 587 l 1
 287 546 279 506 268 466 c 1
 277 466 l 1
 316 518 367 546 439 546 c 0
 553 546 602 476 579 346 c 2
 517 0 l 1
 378 0 l 1
 433 310 l 2
 448 394 427 427 370 427 c 0
 295 427 256 370 234 248 c 2
 190 0 l 1
 51 0 l 1
EndSplineSet
Substitution2: "'smcp' Lowercase to Small Capitals lookup 35 subtable" hbar.sc
Substitution2: "'aalt' Access All Alternates lookup 0 subtable" hbar.sc
EndChar

StartChar: Itilde
Encoding: 296 296 234
Width: 563
GlyphClass: 2
Flags: HW
AnchorPoint: "Anchor-2" 670 714 basechar 0
AnchorPoint: "Anchor-1" 446 922 basechar 0
AnchorPoint: "Anchor-0" 282 0 basechar 0
LayerCount: 2
Fore
SplineSet
239 773 m 1
 257 849 299 921 368 921 c 0
 424 921 463 870 508 870 c 0
 531 870 542 888 555 922 c 1
 625 922 l 1
 604 826 553 774 497 774 c 0
 444 774 396 825 356 825 c 0
 334 825 322 809 310 773 c 1
 239 773 l 1
79 0 m 1
 97 100 l 1
 234 115 l 1
 321 600 l 1
 189 614 l 1
 206 714 l 1
 611 714 l 1
 594 614 l 1
 454 600 l 1
 367 115 l 1
 502 100 l 1
 484 0 l 1
 79 0 l 1
EndSplineSet
Substitution2: "'c2sc' Capitals to Small Capitals lookup 34 subtable" itilde.sc
Substitution2: "'aalt' Access All Alternates lookup 0 subtable" itilde.sc
EndChar

StartChar: itilde
Encoding: 297 297 235
Width: 563
GlyphClass: 2
Flags: HW
AnchorPoint: "Anchor-3" 343 291 basechar 0
AnchorPoint: "Anchor-1" 416 754 basechar 0
AnchorPoint: "Anchor-0" 282 0 basechar 0
LayerCount: 2
Fore
SplineSet
210 605 m 1
 228 681 269 753 338 753 c 0
 394 753 432 702 477 702 c 0
 500 702 512 720 525 754 c 1
 595 754 l 1
 574 658 523 606 467 606 c 0
 414 606 367 657 327 657 c 0
 305 657 293 641 281 605 c 1
 210 605 l 1
58 0 m 1
 75 92 l 1
 245 115 l 1
 302 431 l 1
 161 446 l 1
 179 546 l 1
 461 546 l 1
 384 115 l 1
 529 92 l 1
 512 0 l 1
 58 0 l 1
EndSplineSet
Substitution2: "'smcp' Lowercase to Small Capitals lookup 35 subtable" itilde.sc
Substitution2: "'aalt' Access All Alternates lookup 0 subtable" itilde.sc
EndChar

StartChar: Imacron
Encoding: 298 298 236
Width: 563
GlyphClass: 2
Flags: HW
AnchorPoint: "Anchor-2" 670 714 basechar 0
AnchorPoint: "Anchor-1" 439 883 basechar 0
AnchorPoint: "Anchor-0" 282 0 basechar 0
LayerCount: 2
Fore
SplineSet
276 787 m 1
 293 883 l 1
 584 883 l 1
 567 787 l 1
 276 787 l 1
79 0 m 1
 97 100 l 1
 234 115 l 1
 321 600 l 1
 189 614 l 1
 206 714 l 1
 611 714 l 1
 594 614 l 1
 454 600 l 1
 367 115 l 1
 502 100 l 1
 484 0 l 1
 79 0 l 1
EndSplineSet
Substitution2: "'c2sc' Capitals to Small Capitals lookup 34 subtable" imacron.sc
Substitution2: "'aalt' Access All Alternates lookup 0 subtable" imacron.sc
EndChar

StartChar: imacron
Encoding: 299 299 237
Width: 563
GlyphClass: 2
Flags: HW
AnchorPoint: "Anchor-3" 343 291 basechar 0
AnchorPoint: "Anchor-1" 409 715 basechar 0
AnchorPoint: "Anchor-0" 282 0 basechar 0
LayerCount: 2
Fore
SplineSet
246 619 m 1
 263 715 l 1
 554 715 l 1
 537 619 l 1
 246 619 l 1
58 0 m 1
 75 92 l 1
 245 115 l 1
 302 431 l 1
 161 446 l 1
 179 546 l 1
 461 546 l 1
 384 115 l 1
 529 92 l 1
 512 0 l 1
 58 0 l 1
EndSplineSet
Substitution2: "'smcp' Lowercase to Small Capitals lookup 35 subtable" imacron.sc
Substitution2: "'aalt' Access All Alternates lookup 0 subtable" imacron.sc
EndChar

StartChar: Ibreve
Encoding: 300 300 238
Width: 563
GlyphClass: 2
Flags: HW
AnchorPoint: "Anchor-2" 670 714 basechar 0
AnchorPoint: "Anchor-1" 448 935 basechar 0
AnchorPoint: "Anchor-0" 282 0 basechar 0
LayerCount: 2
Fore
SplineSet
418 776 m 0
 326 776 273 833 288 935 c 1
 369 935 l 1
 364 885 392 866 435 866 c 0
 477 866 512 884 526 935 c 1
 607 935 l 1
 587 838 512 776 418 776 c 0
79 0 m 1
 97 100 l 1
 234 115 l 1
 321 600 l 1
 189 614 l 1
 206 714 l 1
 611 714 l 1
 594 614 l 1
 454 600 l 1
 367 115 l 1
 502 100 l 1
 484 0 l 1
 79 0 l 1
EndSplineSet
Substitution2: "'c2sc' Capitals to Small Capitals lookup 34 subtable" ibreve.sc
Substitution2: "'aalt' Access All Alternates lookup 0 subtable" ibreve.sc
EndChar

StartChar: ibreve
Encoding: 301 301 239
Width: 563
GlyphClass: 2
Flags: HW
AnchorPoint: "Anchor-3" 343 291 basechar 0
AnchorPoint: "Anchor-1" 418 767 basechar 0
AnchorPoint: "Anchor-0" 282 0 basechar 0
LayerCount: 2
Fore
SplineSet
388 608 m 0
 296 608 243 665 258 767 c 1
 339 767 l 1
 334 717 362 698 405 698 c 0
 447 698 482 716 496 767 c 1
 577 767 l 1
 557 670 482 608 388 608 c 0
58 0 m 1
 75 92 l 1
 245 115 l 1
 302 431 l 1
 161 446 l 1
 179 546 l 1
 461 546 l 1
 384 115 l 1
 529 92 l 1
 512 0 l 1
 58 0 l 1
EndSplineSet
Substitution2: "'smcp' Lowercase to Small Capitals lookup 35 subtable" ibreve.sc
Substitution2: "'aalt' Access All Alternates lookup 0 subtable" ibreve.sc
EndChar

StartChar: Iogonek
Encoding: 302 302 240
Width: 563
GlyphClass: 2
Flags: HW
AnchorPoint: "Anchor-2" 670 714 basechar 0
AnchorPoint: "Anchor-1" 409 714 basechar 0
AnchorPoint: "Anchor-0" 240 -236 basechar 0
LayerCount: 2
Fore
SplineSet
79 0 m 1
 97 100 l 1
 234 115 l 1
 321 600 l 1
 189 614 l 1
 206 714 l 1
 611 714 l 1
 594 614 l 1
 454 600 l 1
 367 115 l 1
 502 100 l 1
 484 0 l 1
 411 0 l 1
 360 -44 338 -75 333 -105 c 0
 328 -134 339 -150 366 -150 c 0
 383 -150 398 -145 409 -141 c 1
 394 -224 l 1
 377 -231 354 -236 325 -236 c 0
 250 -236 216 -195 228 -131 c 0
 236 -86 271 -38 324 0 c 1
 79 0 l 1
EndSplineSet
Substitution2: "'c2sc' Capitals to Small Capitals lookup 34 subtable" iogonek.sc
Substitution2: "'locl' Localized Forms in Latin lookup 10 subtable" Iogonek.loclNAV
Ligature2: "'ccmp' Glyph Composition/Decomposition lookup 6 subtable" I uni0328
AlternateSubs2: "'aalt' Access All Alternates lookup 1 subtable" Iogonek.loclNAV iogonek.sc
EndChar

StartChar: iogonek
Encoding: 303 303 241
Width: 563
GlyphClass: 2
Flags: HW
AnchorPoint: "Anchor-3" 343 291 basechar 0
AnchorPoint: "Anchor-2" 617 774 basechar 0
AnchorPoint: "Anchor-1" 436 774 basechar 0
AnchorPoint: "Anchor-0" 256 -236 basechar 0
LayerCount: 2
Fore
SplineSet
402 611 m 0
 349 611 323 639 332 693 c 0
 341 746 376 774 433 774 c 0
 489 774 511 746 502 693 c 0
 493 641 461 611 402 611 c 0
58 0 m 1
 75 92 l 1
 245 115 l 1
 302 431 l 1
 161 446 l 1
 179 546 l 1
 461 546 l 1
 384 115 l 1
 529 92 l 1
 512 0 l 1
 454 0 l 1
 403 -44 381 -75 376 -105 c 0
 371 -134 382 -150 408 -150 c 0
 425 -150 441 -145 452 -141 c 1
 437 -224 l 1
 420 -231 397 -236 368 -236 c 0
 292 -236 259 -195 271 -131 c 0
 279 -86 313 -38 367 0 c 1
 58 0 l 1
EndSplineSet
Substitution2: "'smcp' Lowercase to Small Capitals lookup 35 subtable" iogonek.sc
Substitution2: "'locl' Localized Forms in Latin lookup 10 subtable" iogonek.loclNAV
Ligature2: "'ccmp' Glyph Composition/Decomposition lookup 6 subtable" i uni0328
Substitution2: "Single Substitution lookup 5 subtable" iogonekdotless
Substitution2: "Single Substitution lookup 4 subtable" iogonekdotless
AlternateSubs2: "'aalt' Access All Alternates lookup 1 subtable" iogonekdotless iogonek.loclNAV iogonek.sc
EndChar

StartChar: Idotaccent
Encoding: 304 304 242
Width: 563
GlyphClass: 2
Flags: HW
AnchorPoint: "Anchor-2" 670 714 basechar 0
AnchorPoint: "Anchor-1" 444 914 basechar 0
AnchorPoint: "Anchor-0" 282 0 basechar 0
LayerCount: 2
Fore
SplineSet
418 775 m 0
 365 775 339 803 348 857 c 0
 357 910 391 938 448 938 c 0
 504 938 527 910 518 857 c 0
 509 805 477 775 418 775 c 0
79 0 m 1
 97 100 l 1
 234 115 l 1
 321 600 l 1
 189 614 l 1
 206 714 l 1
 611 714 l 1
 594 614 l 1
 454 600 l 1
 367 115 l 1
 502 100 l 1
 484 0 l 1
 79 0 l 1
EndSplineSet
Substitution2: "'c2sc' Capitals to Small Capitals lookup 34 subtable" i.loclTRK.sc
Substitution2: "'aalt' Access All Alternates lookup 0 subtable" i.loclTRK.sc
EndChar

StartChar: IJ
Encoding: 306 306 243
Width: 563
GlyphClass: 2
Flags: HW
AnchorPoint: "Anchor-1" 409 714 basechar 0
AnchorPoint: "Anchor-0" 282 0 basechar 0
LayerCount: 2
Fore
SplineSet
233 -10 m 0
 185 -10 131 -4 80 11 c 1
 101 134 l 1
 160 119 203 113 241 113 c 0
 337 113 376 154 393 249 c 2
 476 714 l 1
 613 714 l 1
 529 240 l 2
 501 78 408 -10 233 -10 c 0
116 212 m 1
 205 714 l 1
 338 714 l 1
 249 212 l 1
 116 212 l 1
EndSplineSet
Substitution2: "'c2sc' Capitals to Small Capitals lookup 34 subtable" ij.sc
Substitution2: "'aalt' Access All Alternates lookup 0 subtable" ij.sc
EndChar

StartChar: ij
Encoding: 307 307 244
Width: 563
GlyphClass: 2
Flags: HW
AnchorPoint: "Anchor-1" 422 774 basechar 0
AnchorPoint: "Anchor-0" 248 -245 basechar 0
LayerCount: 2
Fore
SplineSet
264 611 m 0
 211 611 185 639 194 693 c 0
 203 746 238 774 295 774 c 0
 351 774 373 746 364 693 c 0
 355 641 323 611 264 611 c 0
515 611 m 0
 462 611 436 639 445 693 c 0
 454 746 489 774 546 774 c 0
 602 774 624 746 615 693 c 0
 606 641 574 611 515 611 c 0
215 -245 m 0
 170 -245 119 -238 73 -223 c 1
 94 -104 l 1
 135 -117 182 -123 213 -123 c 0
 286 -123 324 -91 339 -4 c 2
 437 546 l 1
 576 546 l 1
 474 -28 l 2
 447 -177 367 -245 215 -245 c 0
85 0 m 1
 182 546 l 1
 321 546 l 1
 224 0 l 1
 85 0 l 1
EndSplineSet
Substitution2: "'smcp' Lowercase to Small Capitals lookup 35 subtable" ij.sc
Substitution2: "'aalt' Access All Alternates lookup 0 subtable" ij.sc
EndChar

StartChar: Jcircumflex
Encoding: 308 308 245
Width: 563
GlyphClass: 2
Flags: HW
AnchorPoint: "Anchor-2" 670 714 basechar 0
AnchorPoint: "Anchor-1" 557 934 basechar 0
AnchorPoint: "Anchor-0" 302 0 basechar 0
LayerCount: 2
Fore
SplineSet
360 787 m 1
 400 826 461 894 490 934 c 1
 624 934 l 1
 641 890 674 832 702 787 c 1
 700 774 l 1
 617 774 l 1
 593 795 567 823 543 858 c 1
 506 823 469 793 441 774 c 1
 358 774 l 1
 360 787 l 1
214 -10 m 0
 169 -10 118 -4 72 11 c 1
 93 133 l 1
 146 117 192 112 225 112 c 0
 312 112 351 153 368 248 c 2
 451 714 l 1
 588 714 l 1
 504 240 l 2
 476 78 386 -10 214 -10 c 0
EndSplineSet
Substitution2: "'c2sc' Capitals to Small Capitals lookup 34 subtable" jcircumflex.sc
Substitution2: "'aalt' Access All Alternates lookup 0 subtable" jcircumflex.sc
EndChar

StartChar: jcircumflex
Encoding: 309 309 246
Width: 563
GlyphClass: 2
Flags: HW
AnchorPoint: "Anchor-1" 457 766 basechar 0
AnchorPoint: "Anchor-0" 239 -245 basechar 0
LayerCount: 2
Fore
SplineSet
263 619 m 1
 303 658 364 726 393 766 c 1
 528 766 l 1
 545 722 577 664 605 619 c 1
 603 606 l 1
 521 606 l 1
 496 627 471 655 447 690 c 1
 410 655 373 625 344 606 c 1
 261 606 l 1
 263 619 l 1
141 -245 m 0
 96 -245 46 -238 -1 -223 c 1
 20 -104 l 1
 61 -117 108 -123 139 -123 c 0
 212 -123 250 -91 265 -4 c 2
 343 431 l 1
 192 446 l 1
 210 546 l 1
 502 546 l 1
 400 -28 l 2
 373 -177 293 -245 141 -245 c 0
EndSplineSet
Substitution2: "'smcp' Lowercase to Small Capitals lookup 35 subtable" jcircumflex.sc
Substitution2: "'aalt' Access All Alternates lookup 0 subtable" jcircumflex.sc
EndChar

StartChar: uni0136
Encoding: 310 310 247
Width: 563
GlyphClass: 2
Flags: HW
AnchorPoint: "Anchor-2" 670 714 basechar 0
AnchorPoint: "Anchor-1" 409 714 basechar 0
AnchorPoint: "Anchor-0" 243 -221 basechar 0
LayerCount: 2
Fore
SplineSet
41 0 m 1
 168 714 l 1
 305 714 l 1
 244 374 l 1
 269 412 290 441 320 477 c 2
 512 714 l 1
 666 714 l 1
 402 394 l 1
 536 0 l 1
 380 0 l 1
 285 291 l 1
 221 238 l 1
 178 0 l 1
 41 0 l 1
158 -208 m 1
 176 -171 201 -103 213 -61 c 1
 341 -61 l 1
 339 -70 l 1
 314 -116 277 -172 238 -221 c 1
 156 -221 l 1
 158 -208 l 1
EndSplineSet
Substitution2: "'c2sc' Capitals to Small Capitals lookup 34 subtable" uni0137.sc
Substitution2: "'aalt' Access All Alternates lookup 0 subtable" uni0137.sc
EndChar

StartChar: uni0137
Encoding: 311 311 248
Width: 563
GlyphClass: 2
Flags: HW
AnchorPoint: "Anchor-2" 600 860 basechar 0
AnchorPoint: "Anchor-1" 417 760 basechar 0
AnchorPoint: "Anchor-0" 243 -221 basechar 0
LayerCount: 2
Fore
SplineSet
55 0 m 1
 190 760 l 1
 329 760 l 1
 268 415 l 2
 260 373 252 339 239 297 c 1
 242 297 l 1
 265 324 291 352 319 382 c 2
 475 546 l 1
 636 546 l 1
 416 322 l 1
 550 0 l 1
 397 0 l 1
 306 228 l 1
 223 165 l 1
 194 0 l 1
 55 0 l 1
170 -208 m 1
 187 -171 212 -103 224 -61 c 1
 352 -61 l 1
 350 -70 l 1
 325 -116 288 -172 249 -221 c 1
 168 -221 l 1
 170 -208 l 1
EndSplineSet
Substitution2: "'smcp' Lowercase to Small Capitals lookup 35 subtable" uni0137.sc
Substitution2: "'aalt' Access All Alternates lookup 0 subtable" uni0137.sc
EndChar

StartChar: kgreenlandic
Encoding: 312 312 249
Width: 563
GlyphClass: 2
Flags: HW
AnchorPoint: "Anchor-1" 379 546 basechar 0
AnchorPoint: "Anchor-0" 282 0 basechar 0
LayerCount: 2
Fore
SplineSet
55 0 m 1
 152 546 l 1
 291 546 l 1
 268 415 l 2
 260 373 252 339 239 297 c 1
 242 297 l 1
 265 324 291 352 319 382 c 2
 475 546 l 1
 636 546 l 1
 416 322 l 1
 550 0 l 1
 397 0 l 1
 306 228 l 1
 223 165 l 1
 194 0 l 1
 55 0 l 1
EndSplineSet
EndChar

StartChar: Lacute
Encoding: 313 313 250
Width: 563
GlyphClass: 2
Flags: HW
AnchorPoint: "Anchor-3" 346 357 basechar 0
AnchorPoint: "Anchor-2" 550 714 basechar 0
AnchorPoint: "Anchor-1" 340 934 basechar 0
AnchorPoint: "Anchor-0" 282 0 basechar 0
LayerCount: 2
Fore
SplineSet
222 787 m 1
 265 835 310 889 342 934 c 1
 493 934 l 1
 492 925 l 1
 455 887 368 814 313 774 c 1
 220 774 l 1
 222 787 l 1
81 0 m 1
 208 714 l 1
 347 714 l 1
 242 124 l 1
 523 124 l 1
 501 0 l 1
 81 0 l 1
EndSplineSet
Substitution2: "'c2sc' Capitals to Small Capitals lookup 34 subtable" lacute.sc
Substitution2: "'aalt' Access All Alternates lookup 0 subtable" lacute.sc
EndChar

StartChar: lacute
Encoding: 314 314 251
Width: 563
GlyphClass: 2
Flags: HW
AnchorPoint: "Anchor-3" 360 374 basechar 0
AnchorPoint: "Anchor-2" 607 760 basechar 0
AnchorPoint: "Anchor-1" 456 980 basechar 0
AnchorPoint: "Anchor-0" 282 0 basechar 0
LayerCount: 2
Fore
SplineSet
363 833 m 1
 406 881 451 935 482 980 c 1
 634 980 l 1
 632 971 l 1
 594 933 508 860 453 820 c 1
 360 820 l 1
 363 833 l 1
58 0 m 1
 75 92 l 1
 242 115 l 1
 336 645 l 1
 209 668 l 1
 225 760 l 1
 496 760 l 1
 381 115 l 1
 529 92 l 1
 512 0 l 1
 58 0 l 1
EndSplineSet
Substitution2: "'smcp' Lowercase to Small Capitals lookup 35 subtable" lacute.sc
Substitution2: "'aalt' Access All Alternates lookup 0 subtable" lacute.sc
EndChar

StartChar: uni013B
Encoding: 315 315 252
Width: 563
GlyphClass: 2
Flags: HW
AnchorPoint: "Anchor-3" 346 357 basechar 0
AnchorPoint: "Anchor-2" 550 714 basechar 0
AnchorPoint: "Anchor-1" 275 714 basechar 0
AnchorPoint: "Anchor-0" 243 -221 basechar 0
LayerCount: 2
Fore
SplineSet
81 0 m 1
 208 714 l 1
 347 714 l 1
 242 124 l 1
 523 124 l 1
 501 0 l 1
 81 0 l 1
178 -208 m 1
 195 -171 220 -103 232 -61 c 1
 360 -61 l 1
 358 -70 l 1
 333 -116 296 -172 257 -221 c 1
 176 -221 l 1
 178 -208 l 1
EndSplineSet
Substitution2: "'c2sc' Capitals to Small Capitals lookup 34 subtable" uni013C.sc
Substitution2: "'locl' Localized Forms in Latin lookup 13 subtable" uni013B.loclMAH
AlternateSubs2: "'aalt' Access All Alternates lookup 1 subtable" uni013B.loclMAH uni013C.sc
EndChar

StartChar: uni013C
Encoding: 316 316 253
Width: 563
GlyphClass: 2
Flags: HW
AnchorPoint: "Anchor-3" 360 374 basechar 0
AnchorPoint: "Anchor-2" 607 760 basechar 0
AnchorPoint: "Anchor-1" 417 760 basechar 0
AnchorPoint: "Anchor-0" 243 -221 basechar 0
LayerCount: 2
Fore
SplineSet
58 0 m 1
 75 92 l 1
 242 115 l 1
 336 645 l 1
 209 668 l 1
 225 760 l 1
 496 760 l 1
 381 115 l 1
 529 92 l 1
 512 0 l 1
 58 0 l 1
164 -208 m 1
 181 -171 206 -103 218 -61 c 1
 346 -61 l 1
 344 -70 l 1
 319 -116 282 -172 243 -221 c 1
 162 -221 l 1
 164 -208 l 1
EndSplineSet
Substitution2: "'smcp' Lowercase to Small Capitals lookup 35 subtable" uni013C.sc
Substitution2: "'locl' Localized Forms in Latin lookup 13 subtable" uni013C.loclMAH
AlternateSubs2: "'aalt' Access All Alternates lookup 1 subtable" uni013C.loclMAH uni013C.sc
EndChar

StartChar: Lcaron
Encoding: 317 317 254
Width: 563
GlyphClass: 2
Flags: HW
AnchorPoint: "Anchor-3" 346 357 basechar 0
AnchorPoint: "Anchor-2" 550 714 basechar 0
AnchorPoint: "Anchor-1" 274 714 basechar 0
AnchorPoint: "Anchor-0" 282 0 basechar 0
LayerCount: 2
Fore
SplineSet
448 565 m 1
 463 600 490 674 501 714 c 1
 630 714 l 1
 628 705 l 1
 603 660 567 602 528 554 c 1
 447 554 l 1
 448 565 l 1
81 0 m 1
 208 714 l 1
 347 714 l 1
 242 124 l 1
 523 124 l 1
 501 0 l 1
 81 0 l 1
EndSplineSet
Substitution2: "'c2sc' Capitals to Small Capitals lookup 34 subtable" lcaron.sc
Substitution2: "'aalt' Access All Alternates lookup 0 subtable" lcaron.sc
EndChar

StartChar: lcaron
Encoding: 318 318 255
Width: 563
GlyphClass: 2
Flags: HW
AnchorPoint: "Anchor-3" 360 374 basechar 0
AnchorPoint: "Anchor-2" 607 760 basechar 0
AnchorPoint: "Anchor-1" 417 760 basechar 0
AnchorPoint: "Anchor-0" 282 0 basechar 0
LayerCount: 2
Fore
SplineSet
508 611 m 1
 524 646 549 720 561 760 c 1
 689 760 l 1
 688 751 l 1
 664 706 626 648 588 600 c 1
 506 600 l 1
 508 611 l 1
58 0 m 1
 75 92 l 1
 242 115 l 1
 336 645 l 1
 209 668 l 1
 225 760 l 1
 496 760 l 1
 381 115 l 1
 529 92 l 1
 512 0 l 1
 58 0 l 1
EndSplineSet
Substitution2: "'smcp' Lowercase to Small Capitals lookup 35 subtable" lcaron.sc
Substitution2: "'aalt' Access All Alternates lookup 0 subtable" lcaron.sc
EndChar

StartChar: Ldot
Encoding: 319 319 256
Width: 563
GlyphClass: 2
Flags: HW
AnchorPoint: "Anchor-3" 346 357 basechar 0
AnchorPoint: "Anchor-2" 550 714 basechar 0
AnchorPoint: "Anchor-1" 273 714 basechar 0
AnchorPoint: "Anchor-0" 282 0 basechar 0
LayerCount: 2
Fore
SplineSet
81 0 m 1
 208 714 l 1
 347 714 l 1
 242 124 l 1
 523 124 l 1
 501 0 l 1
 81 0 l 1
478 303 m 0
 425 303 400 334 409 388 c 0
 419 443 454 473 509 473 c 0
 562 473 587 443 577 388 c 0
 568 335 530 303 478 303 c 0
EndSplineSet
Substitution2: "'c2sc' Capitals to Small Capitals lookup 34 subtable" ldot.sc
Ligature2: "Ligature Substitution lookup 16 subtable" L periodcentered
Substitution2: "'aalt' Access All Alternates lookup 0 subtable" ldot.sc
EndChar

StartChar: ldot
Encoding: 320 320 257
Width: 563
GlyphClass: 2
Flags: HW
AnchorPoint: "Anchor-3" 360 374 basechar 0
AnchorPoint: "Anchor-2" 607 760 basechar 0
AnchorPoint: "Anchor-1" 417 760 basechar 0
AnchorPoint: "Anchor-0" 282 0 basechar 0
LayerCount: 2
Fore
SplineSet
58 0 m 1
 75 92 l 1
 242 115 l 1
 336 645 l 1
 209 668 l 1
 225 760 l 1
 496 760 l 1
 381 115 l 1
 529 92 l 1
 512 0 l 1
 58 0 l 1
618 298 m 0
 565 298 539 329 548 383 c 0
 558 438 593 467 648 467 c 0
 701 467 727 438 717 383 c 0
 708 330 670 298 618 298 c 0
EndSplineSet
Substitution2: "'smcp' Lowercase to Small Capitals lookup 35 subtable" ldot.sc
Ligature2: "Ligature Substitution lookup 15 subtable" l periodcentered
Substitution2: "'aalt' Access All Alternates lookup 0 subtable" ldot.sc
EndChar

StartChar: Lslash
Encoding: 321 321 258
Width: 563
GlyphClass: 2
Flags: HW
AnchorPoint: "Anchor-3" 382 357 basechar 0
AnchorPoint: "Anchor-2" 586 714 basechar 0
AnchorPoint: "Anchor-1" 317 714 basechar 0
AnchorPoint: "Anchor-0" 335 0 basechar 0
LayerCount: 2
Fore
SplineSet
117 0 m 1
 160 242 l 1
 116 216 l 1
 77 304 l 1
 182 366 l 1
 244 714 l 1
 383 714 l 1
 337 456 l 1
 424 507 l 1
 464 420 l 1
 315 332 l 1
 278 124 l 1
 559 124 l 1
 537 0 l 1
 117 0 l 1
EndSplineSet
Substitution2: "'c2sc' Capitals to Small Capitals lookup 34 subtable" lslash.sc
Substitution2: "'aalt' Access All Alternates lookup 0 subtable" lslash.sc
EndChar

StartChar: lslash
Encoding: 322 322 259
Width: 563
GlyphClass: 2
Flags: HW
AnchorPoint: "Anchor-3" 360 374 basechar 0
AnchorPoint: "Anchor-2" 607 760 basechar 0
AnchorPoint: "Anchor-1" 417 760 basechar 0
AnchorPoint: "Anchor-0" 282 0 basechar 0
LayerCount: 2
Fore
SplineSet
58 0 m 1
 75 92 l 1
 242 115 l 1
 268 257 l 1
 197 215 l 1
 157 301 l 1
 290 380 l 1
 336 645 l 1
 209 668 l 1
 225 760 l 1
 496 760 l 1
 445 472 l 1
 505 508 l 1
 547 422 l 1
 423 349 l 1
 381 115 l 1
 529 92 l 1
 512 0 l 1
 58 0 l 1
EndSplineSet
Substitution2: "'smcp' Lowercase to Small Capitals lookup 35 subtable" lslash.sc
Substitution2: "'aalt' Access All Alternates lookup 0 subtable" lslash.sc
EndChar

StartChar: Nacute
Encoding: 323 323 260
Width: 563
GlyphClass: 2
Flags: HW
AnchorPoint: "Anchor-2" 690 714 basechar 0
AnchorPoint: "Anchor-1" 448 934 basechar 0
AnchorPoint: "Anchor-0" 282 0 basechar 0
LayerCount: 2
Fore
SplineSet
360 787 m 1
 403 835 448 889 479 934 c 1
 631 934 l 1
 630 925 l 1
 592 887 506 814 451 774 c 1
 358 774 l 1
 360 787 l 1
41 0 m 1
 168 714 l 1
 365 714 l 1
 425 137 l 1
 430 137 l 1
 439 221 453 332 462 382 c 2
 521 714 l 1
 649 714 l 1
 522 0 l 1
 327 0 l 1
 266 581 l 1
 261 581 l 1
 252 494 239 399 232 355 c 2
 169 0 l 1
 41 0 l 1
EndSplineSet
Substitution2: "'c2sc' Capitals to Small Capitals lookup 34 subtable" nacute.sc
Substitution2: "'aalt' Access All Alternates lookup 0 subtable" nacute.sc
EndChar

StartChar: nacute
Encoding: 324 324 261
Width: 563
GlyphClass: 2
Flags: HW
AnchorPoint: "Anchor-2" 640 546 basechar 0
AnchorPoint: "Anchor-1" 418 766 basechar 0
AnchorPoint: "Anchor-0" 282 0 basechar 0
LayerCount: 2
Fore
SplineSet
331 619 m 1
 374 667 419 721 451 766 c 1
 602 766 l 1
 601 757 l 1
 564 719 477 646 422 606 c 1
 329 606 l 1
 331 619 l 1
51 0 m 1
 148 546 l 1
 256 546 l 1
 266 479 l 1
 273 479 l 1
 312 529 368 556 441 556 c 0
 556 556 604 490 581 362 c 2
 517 0 l 1
 378 0 l 1
 436 325 l 2
 450 403 428 439 371 439 c 0
 297 439 257 378 238 268 c 2
 190 0 l 1
 51 0 l 1
EndSplineSet
Substitution2: "'smcp' Lowercase to Small Capitals lookup 35 subtable" nacute.sc
Substitution2: "'aalt' Access All Alternates lookup 0 subtable" nacute.sc
EndChar

StartChar: uni0145
Encoding: 325 325 262
Width: 563
GlyphClass: 2
Flags: HW
AnchorPoint: "Anchor-2" 690 714 basechar 0
AnchorPoint: "Anchor-1" 441 714 basechar 0
AnchorPoint: "Anchor-0" 222 -221 basechar 0
LayerCount: 2
Fore
SplineSet
41 0 m 1
 168 714 l 1
 365 714 l 1
 425 137 l 1
 430 137 l 1
 439 221 453 332 462 382 c 2
 521 714 l 1
 649 714 l 1
 522 0 l 1
 327 0 l 1
 266 581 l 1
 261 581 l 1
 252 494 239 399 232 355 c 2
 169 0 l 1
 41 0 l 1
151 -208 m 1
 169 -171 194 -103 206 -61 c 1
 334 -61 l 1
 332 -70 l 1
 307 -116 270 -172 230 -221 c 1
 149 -221 l 1
 151 -208 l 1
EndSplineSet
Substitution2: "'c2sc' Capitals to Small Capitals lookup 34 subtable" uni0146.sc
Substitution2: "'locl' Localized Forms in Latin lookup 13 subtable" uni0145.loclMAH
AlternateSubs2: "'aalt' Access All Alternates lookup 1 subtable" uni0145.loclMAH uni0146.sc
EndChar

StartChar: uni0146
Encoding: 326 326 263
Width: 563
GlyphClass: 2
Flags: HW
AnchorPoint: "Anchor-2" 640 546 basechar 0
AnchorPoint: "Anchor-1" 379 546 basechar 0
AnchorPoint: "Anchor-0" 243 -221 basechar 0
LayerCount: 2
Fore
SplineSet
51 0 m 1
 148 546 l 1
 256 546 l 1
 266 479 l 1
 273 479 l 1
 312 529 368 556 441 556 c 0
 556 556 604 490 581 362 c 2
 517 0 l 1
 378 0 l 1
 436 325 l 2
 450 403 428 439 371 439 c 0
 297 439 257 378 238 268 c 2
 190 0 l 1
 51 0 l 1
156 -208 m 1
 173 -171 198 -103 210 -61 c 1
 338 -61 l 1
 336 -70 l 1
 311 -116 274 -172 235 -221 c 1
 154 -221 l 1
 156 -208 l 1
EndSplineSet
Substitution2: "'smcp' Lowercase to Small Capitals lookup 35 subtable" uni0146.sc
Substitution2: "'locl' Localized Forms in Latin lookup 13 subtable" uni0146.loclMAH
AlternateSubs2: "'aalt' Access All Alternates lookup 1 subtable" uni0146.loclMAH uni0146.sc
EndChar

StartChar: Ncaron
Encoding: 327 327 264
Width: 563
GlyphClass: 2
Flags: HW
AnchorPoint: "Anchor-2" 690 714 basechar 0
AnchorPoint: "Anchor-1" 448 934 basechar 0
AnchorPoint: "Anchor-0" 282 0 basechar 0
LayerCount: 2
Fore
SplineSet
358 774 m 1
 343 815 304 883 279 921 c 1
 281 934 l 1
 365 934 l 1
 388 913 413 885 437 851 c 1
 475 887 508 911 540 934 c 1
 624 934 l 1
 622 921 l 1
 584 884 522 818 491 774 c 1
 358 774 l 1
41 0 m 1
 168 714 l 1
 365 714 l 1
 425 137 l 1
 430 137 l 1
 439 221 453 332 462 382 c 2
 521 714 l 1
 649 714 l 1
 522 0 l 1
 327 0 l 1
 266 581 l 1
 261 581 l 1
 252 494 239 399 232 355 c 2
 169 0 l 1
 41 0 l 1
EndSplineSet
Substitution2: "'c2sc' Capitals to Small Capitals lookup 34 subtable" ncaron.sc
Substitution2: "'aalt' Access All Alternates lookup 0 subtable" ncaron.sc
EndChar

StartChar: ncaron
Encoding: 328 328 265
Width: 563
GlyphClass: 2
Flags: HW
AnchorPoint: "Anchor-2" 640 546 basechar 0
AnchorPoint: "Anchor-1" 418 766 basechar 0
AnchorPoint: "Anchor-0" 282 0 basechar 0
LayerCount: 2
Fore
SplineSet
329 606 m 1
 315 647 275 715 251 753 c 1
 253 766 l 1
 336 766 l 1
 359 745 384 717 408 683 c 1
 447 719 479 743 512 766 c 1
 595 766 l 1
 593 753 l 1
 555 716 493 650 463 606 c 1
 329 606 l 1
51 0 m 1
 148 546 l 1
 256 546 l 1
 266 479 l 1
 273 479 l 1
 312 529 368 556 441 556 c 0
 556 556 604 490 581 362 c 2
 517 0 l 1
 378 0 l 1
 436 325 l 2
 450 403 428 439 371 439 c 0
 297 439 257 378 238 268 c 2
 190 0 l 1
 51 0 l 1
EndSplineSet
Substitution2: "'smcp' Lowercase to Small Capitals lookup 35 subtable" ncaron.sc
Substitution2: "'aalt' Access All Alternates lookup 0 subtable" ncaron.sc
EndChar

StartChar: napostrophe
Encoding: 329 329 266
Width: 563
GlyphClass: 2
Flags: HW
AnchorPoint: "Anchor-1" 392 546 basechar 0
AnchorPoint: "Anchor-0" 292 0 basechar 0
LayerCount: 2
Fore
SplineSet
-31 461 m 1
 6 550 40 647 60 714 c 1
 191 714 l 1
 195 703 l 1
 166 627 125 547 73 461 c 1
 -31 461 l 1
61 0 m 1
 158 546 l 1
 266 546 l 1
 275 475 l 1
 283 475 l 1
 324 531 380 556 446 556 c 0
 557 556 604 486 581 356 c 2
 517 0 l 1
 378 0 l 1
 435 320 l 2
 449 399 429 437 377 437 c 0
 306 437 266 369 246 258 c 2
 200 0 l 1
 61 0 l 1
EndSplineSet
EndChar

StartChar: Eng
Encoding: 330 330 267
Width: 563
GlyphClass: 2
Flags: HW
AnchorPoint: "Anchor-2" 690 714 basechar 0
AnchorPoint: "Anchor-1" 414 714 basechar 0
AnchorPoint: "Anchor-0" 250 -208 basechar 0
LayerCount: 2
Fore
SplineSet
41 0 m 1
 168 714 l 1
 365 714 l 1
 425 137 l 1
 430 137 l 1
 439 221 453 332 462 382 c 2
 521 714 l 1
 649 714 l 1
 522 -2 l 2
 499 -136 410 -208 281 -208 c 0
 247 -208 219 -204 198 -197 c 1
 216 -93 l 1
 236 -98 259 -103 286 -103 c 0
 351 -103 391 -70 404 0 c 1
 327 0 l 1
 266 581 l 1
 261 581 l 1
 252 494 239 399 232 355 c 2
 169 0 l 1
 41 0 l 1
EndSplineSet
Substitution2: "'c2sc' Capitals to Small Capitals lookup 34 subtable" eng.sc
AlternateSubs2: "'aalt' Access All Alternates lookup 1 subtable" Eng.alt1 Eng.alt2 Eng.alt3 eng.sc
EndChar

StartChar: eng
Encoding: 331 331 268
Width: 563
GlyphClass: 2
Flags: HW
AnchorPoint: "Anchor-2" 640 546 basechar 0
AnchorPoint: "Anchor-1" 385 546 basechar 0
AnchorPoint: "Anchor-0" 242 -240 basechar 0
LayerCount: 2
Fore
SplineSet
51 0 m 1
 148 546 l 1
 256 546 l 1
 266 479 l 1
 273 479 l 1
 312 529 368 556 441 556 c 0
 556 556 604 490 581 362 c 2
 506 -62 l 2
 488 -162 424 -240 305 -240 c 0
 277 -240 245 -236 225 -228 c 1
 244 -119 l 1
 262 -125 279 -128 294 -128 c 0
 331 -128 359 -109 370 -47 c 2
 436 325 l 2
 450 403 428 439 371 439 c 0
 297 439 257 378 238 268 c 2
 190 0 l 1
 51 0 l 1
EndSplineSet
Substitution2: "'smcp' Lowercase to Small Capitals lookup 35 subtable" eng.sc
Substitution2: "'aalt' Access All Alternates lookup 0 subtable" eng.sc
EndChar

StartChar: Omacron
Encoding: 332 332 269
Width: 563
GlyphClass: 2
Flags: HW
AnchorPoint: "Anchor-3" 346 357 basechar 0
AnchorPoint: "Anchor-2" 690 714 basechar 0
AnchorPoint: "Anchor-1" 439 883 basechar 0
AnchorPoint: "Anchor-0" 282 0 basechar 0
LayerCount: 2
Fore
SplineSet
276 787 m 1
 293 883 l 1
 584 883 l 1
 567 787 l 1
 276 787 l 1
280 -9 m 0
 104 -9 49 131 89 358 c 0
 131 593 238 726 411 726 c 0
 586 726 641 587 600 358 c 0
 560 130 455 -9 280 -9 c 0
302 113 m 0
 381 113 429 196 458 359 c 0
 486 521 469 604 389 604 c 0
 309 604 259 518 231 358 c 0
 203 198 221 113 302 113 c 0
EndSplineSet
Substitution2: "'c2sc' Capitals to Small Capitals lookup 34 subtable" omacron.sc
Substitution2: "'aalt' Access All Alternates lookup 0 subtable" omacron.sc
EndChar

StartChar: omacron
Encoding: 333 333 270
Width: 563
GlyphClass: 2
Flags: HW
AnchorPoint: "Anchor-3" 330 273 basechar 0
AnchorPoint: "Anchor-2" 640 546 basechar 0
AnchorPoint: "Anchor-1" 409 715 basechar 0
AnchorPoint: "Anchor-0" 282 0 basechar 0
LayerCount: 2
Fore
SplineSet
246 619 m 1
 263 715 l 1
 554 715 l 1
 537 619 l 1
 246 619 l 1
282 -10 m 0
 120 -10 55 108 84 273 c 0
 113 439 223 556 382 556 c 0
 532 556 609 453 576 271 c 0
 547 107 445 -10 282 -10 c 0
303 107 m 0
 374 107 416 165 435 272 c 0
 454 379 434 439 362 439 c 0
 288 439 244 376 226 273 c 0
 208 168 230 107 303 107 c 0
EndSplineSet
Substitution2: "'smcp' Lowercase to Small Capitals lookup 35 subtable" omacron.sc
Substitution2: "'aalt' Access All Alternates lookup 0 subtable" omacron.sc
EndChar

StartChar: Obreve
Encoding: 334 334 271
Width: 563
GlyphClass: 2
Flags: HW
AnchorPoint: "Anchor-3" 346 357 basechar 0
AnchorPoint: "Anchor-2" 690 714 basechar 0
AnchorPoint: "Anchor-1" 448 935 basechar 0
AnchorPoint: "Anchor-0" 282 0 basechar 0
LayerCount: 2
Fore
SplineSet
418 776 m 0
 326 776 273 833 288 935 c 1
 369 935 l 1
 364 885 392 866 435 866 c 0
 477 866 512 884 526 935 c 1
 607 935 l 1
 587 838 512 776 418 776 c 0
280 -9 m 0
 104 -9 49 131 89 358 c 0
 131 593 238 726 411 726 c 0
 586 726 641 587 600 358 c 0
 560 130 455 -9 280 -9 c 0
302 113 m 0
 381 113 429 196 458 359 c 0
 486 521 469 604 389 604 c 0
 309 604 259 518 231 358 c 0
 203 198 221 113 302 113 c 0
EndSplineSet
Substitution2: "'c2sc' Capitals to Small Capitals lookup 34 subtable" obreve.sc
Substitution2: "'aalt' Access All Alternates lookup 0 subtable" obreve.sc
EndChar

StartChar: obreve
Encoding: 335 335 272
Width: 563
GlyphClass: 2
Flags: HW
AnchorPoint: "Anchor-3" 330 273 basechar 0
AnchorPoint: "Anchor-2" 640 546 basechar 0
AnchorPoint: "Anchor-1" 418 767 basechar 0
AnchorPoint: "Anchor-0" 282 0 basechar 0
LayerCount: 2
Fore
SplineSet
388 608 m 0
 296 608 243 665 258 767 c 1
 339 767 l 1
 334 717 362 698 405 698 c 0
 447 698 482 716 496 767 c 1
 577 767 l 1
 557 670 482 608 388 608 c 0
282 -10 m 0
 120 -10 55 108 84 273 c 0
 113 439 223 556 382 556 c 0
 532 556 609 453 576 271 c 0
 547 107 445 -10 282 -10 c 0
303 107 m 0
 374 107 416 165 435 272 c 0
 454 379 434 439 362 439 c 0
 288 439 244 376 226 273 c 0
 208 168 230 107 303 107 c 0
EndSplineSet
Substitution2: "'smcp' Lowercase to Small Capitals lookup 35 subtable" obreve.sc
Substitution2: "'aalt' Access All Alternates lookup 0 subtable" obreve.sc
EndChar

StartChar: Ohungarumlaut
Encoding: 336 336 273
Width: 563
GlyphClass: 2
Flags: HW
AnchorPoint: "Anchor-3" 346 357 basechar 0
AnchorPoint: "Anchor-2" 690 714 basechar 0
AnchorPoint: "Anchor-1" 448 934 basechar 0
AnchorPoint: "Anchor-0" 282 0 basechar 0
LayerCount: 2
Fore
SplineSet
427 787 m 1
 468 840 514 901 535 934 c 1
 662 934 l 1
 661 925 l 1
 634 886 546 811 495 774 c 1
 425 774 l 1
 427 787 l 1
255 787 m 1
 296 841 340 901 362 934 c 1
 489 934 l 1
 488 925 l 1
 460 884 379 815 319 774 c 1
 253 774 l 1
 255 787 l 1
280 -9 m 0
 104 -9 49 131 89 358 c 0
 131 593 238 726 411 726 c 0
 586 726 641 587 600 358 c 0
 560 130 455 -9 280 -9 c 0
302 113 m 0
 381 113 429 196 458 359 c 0
 486 521 469 604 389 604 c 0
 309 604 259 518 231 358 c 0
 203 198 221 113 302 113 c 0
EndSplineSet
Substitution2: "'c2sc' Capitals to Small Capitals lookup 34 subtable" ohungarumlaut.sc
Substitution2: "'aalt' Access All Alternates lookup 0 subtable" ohungarumlaut.sc
EndChar

StartChar: ohungarumlaut
Encoding: 337 337 274
Width: 563
GlyphClass: 2
Flags: HW
AnchorPoint: "Anchor-3" 330 273 basechar 0
AnchorPoint: "Anchor-2" 640 546 basechar 0
AnchorPoint: "Anchor-1" 418 766 basechar 0
AnchorPoint: "Anchor-0" 282 0 basechar 0
LayerCount: 2
Fore
SplineSet
397 619 m 1
 438 672 484 733 505 766 c 1
 632 766 l 1
 631 757 l 1
 604 718 516 643 465 606 c 1
 395 606 l 1
 397 619 l 1
225 619 m 1
 266 673 310 733 332 766 c 1
 459 766 l 1
 458 757 l 1
 430 716 349 647 289 606 c 1
 223 606 l 1
 225 619 l 1
282 -10 m 0
 120 -10 55 108 84 273 c 0
 113 439 223 556 382 556 c 0
 532 556 609 453 576 271 c 0
 547 107 445 -10 282 -10 c 0
303 107 m 0
 374 107 416 165 435 272 c 0
 454 379 434 439 362 439 c 0
 288 439 244 376 226 273 c 0
 208 168 230 107 303 107 c 0
EndSplineSet
Substitution2: "'smcp' Lowercase to Small Capitals lookup 35 subtable" ohungarumlaut.sc
Substitution2: "'aalt' Access All Alternates lookup 0 subtable" ohungarumlaut.sc
EndChar

StartChar: OE
Encoding: 338 338 275
Width: 563
GlyphClass: 2
Flags: HW
AnchorPoint: "Anchor-1" 409 714 basechar 0
AnchorPoint: "Anchor-0" 282 0 basechar 0
LayerCount: 2
Fore
SplineSet
231 -10 m 0
 79 -10 49 133 89 359 c 0
 129 584 212 724 365 724 c 0
 379 724 405 724 433 714 c 1
 670 714 l 1
 648 592 l 1
 521 592 l 1
 493 433 l 1
 604 433 l 1
 582 310 l 1
 471 310 l 1
 438 122 l 1
 565 122 l 1
 543 0 l 1
 305 0 l 1
 280 -7 254 -10 231 -10 c 0
269 114 m 0
 283 114 300 120 310 125 c 1
 391 590 l 1
 385 598 370 600 358 600 c 0
 297 600 252 512 224 358 c 0
 196 200 198 114 269 114 c 0
EndSplineSet
Substitution2: "'c2sc' Capitals to Small Capitals lookup 34 subtable" oe.sc
Substitution2: "'aalt' Access All Alternates lookup 0 subtable" oe.sc
EndChar

StartChar: oe
Encoding: 339 339 276
Width: 563
GlyphClass: 2
Flags: HW
AnchorPoint: "Anchor-1" 379 546 basechar 0
AnchorPoint: "Anchor-0" 282 0 basechar 0
LayerCount: 2
Fore
SplineSet
178 -10 m 0
 66 -10 35 101 66 276 c 0
 95 443 163 555 276 555 c 0
 329 555 363 530 382 478 c 1
 418 529 456 555 507 555 c 0
 605 555 634 456 608 309 c 2
 596 239 l 1
 396 239 l 1
 377 127 411 94 460 94 c 0
 488 94 524 105 563 134 c 1
 545 27 l 1
 506 3 461 -10 420 -10 c 0
 366 -10 331 12 311 68 c 1
 273 14 231 -10 178 -10 c 0
505 329 m 1
 520 413 513 452 483 452 c 0
 454 452 428 418 411 329 c 1
 505 329 l 1
201 96 m 0
 238 96 264 151 285 270 c 0
 307 391 300 449 262 449 c 0
 225 449 202 395 180 273 c 0
 158 150 163 96 201 96 c 0
EndSplineSet
Substitution2: "'smcp' Lowercase to Small Capitals lookup 35 subtable" oe.sc
Substitution2: "'aalt' Access All Alternates lookup 0 subtable" oe.sc
EndChar

StartChar: Racute
Encoding: 340 340 277
Width: 563
GlyphClass: 2
Flags: HW
AnchorPoint: "Anchor-2" 670 714 basechar 0
AnchorPoint: "Anchor-1" 448 934 basechar 0
AnchorPoint: "Anchor-0" 282 0 basechar 0
LayerCount: 2
Fore
SplineSet
355 787 m 1
 398 835 443 889 474 934 c 1
 626 934 l 1
 625 925 l 1
 587 887 501 814 446 774 c 1
 353 774 l 1
 355 787 l 1
71 0 m 1
 198 714 l 1
 385 714 l 2
 549 714 621 638 597 503 c 0
 580 408 527 342 445 304 c 1
 550 0 l 1
 401 0 l 1
 318 271 l 1
 259 271 l 1
 210 0 l 1
 71 0 l 1
324 392 m 2
 398 392 442 426 455 495 c 0
 468 565 433 594 359 594 c 2
 315 594 l 1
 279 392 l 1
 324 392 l 2
EndSplineSet
Substitution2: "'c2sc' Capitals to Small Capitals lookup 34 subtable" racute.sc
Substitution2: "'aalt' Access All Alternates lookup 0 subtable" racute.sc
EndChar

StartChar: racute
Encoding: 341 341 278
Width: 563
GlyphClass: 2
Flags: HW
AnchorPoint: "Anchor-2" 640 546 basechar 0
AnchorPoint: "Anchor-1" 434 766 basechar 0
AnchorPoint: "Anchor-0" 282 0 basechar 0
LayerCount: 2
Fore
SplineSet
351 619 m 1
 394 667 439 721 470 766 c 1
 622 766 l 1
 621 757 l 1
 583 719 497 646 442 606 c 1
 349 606 l 1
 351 619 l 1
36 0 m 1
 53 92 l 1
 186 115 l 1
 243 431 l 1
 135 446 l 1
 153 546 l 1
 367 546 l 1
 372 453 l 1
 379 453 l 1
 421 514 472 556 553 556 c 0
 580 556 615 552 646 538 c 1
 587 407 l 1
 569 415 541 421 512 421 c 0
 424 421 369 356 352 264 c 2
 325 115 l 1
 457 92 l 1
 440 0 l 1
 36 0 l 1
EndSplineSet
Substitution2: "'smcp' Lowercase to Small Capitals lookup 35 subtable" racute.sc
Substitution2: "'aalt' Access All Alternates lookup 0 subtable" racute.sc
EndChar

StartChar: uni0156
Encoding: 342 342 279
Width: 563
GlyphClass: 2
Flags: HW
AnchorPoint: "Anchor-2" 670 714 basechar 0
AnchorPoint: "Anchor-1" 409 714 basechar 0
AnchorPoint: "Anchor-0" 243 -221 basechar 0
LayerCount: 2
Fore
SplineSet
71 0 m 1
 198 714 l 1
 385 714 l 2
 549 714 621 638 597 503 c 0
 580 408 527 342 445 304 c 1
 550 0 l 1
 401 0 l 1
 318 271 l 1
 259 271 l 1
 210 0 l 1
 71 0 l 1
324 392 m 2
 398 392 442 426 455 495 c 0
 468 565 433 594 359 594 c 2
 315 594 l 1
 279 392 l 1
 324 392 l 2
172 -208 m 1
 190 -171 215 -103 227 -61 c 1
 355 -61 l 1
 353 -70 l 1
 328 -116 291 -172 251 -221 c 1
 170 -221 l 1
 172 -208 l 1
EndSplineSet
Substitution2: "'c2sc' Capitals to Small Capitals lookup 34 subtable" uni0157.sc
Substitution2: "'aalt' Access All Alternates lookup 0 subtable" uni0157.sc
EndChar

StartChar: uni0157
Encoding: 343 343 280
Width: 563
GlyphClass: 2
Flags: HW
AnchorPoint: "Anchor-2" 640 546 basechar 0
AnchorPoint: "Anchor-1" 379 546 basechar 0
AnchorPoint: "Anchor-0" 192 -221 basechar 0
LayerCount: 2
Fore
SplineSet
36 0 m 1
 53 92 l 1
 186 115 l 1
 243 431 l 1
 135 446 l 1
 153 546 l 1
 367 546 l 1
 372 453 l 1
 379 453 l 1
 421 514 472 556 553 556 c 0
 580 556 615 552 646 538 c 1
 587 407 l 1
 569 415 541 421 512 421 c 0
 424 421 369 356 352 264 c 2
 325 115 l 1
 457 92 l 1
 440 0 l 1
 36 0 l 1
108 -208 m 1
 125 -171 150 -103 163 -61 c 1
 291 -61 l 1
 289 -70 l 1
 263 -116 226 -172 187 -221 c 1
 106 -221 l 1
 108 -208 l 1
EndSplineSet
Substitution2: "'smcp' Lowercase to Small Capitals lookup 35 subtable" uni0157.sc
Substitution2: "'aalt' Access All Alternates lookup 0 subtable" uni0157.sc
EndChar

StartChar: Rcaron
Encoding: 344 344 281
Width: 563
GlyphClass: 2
Flags: HW
AnchorPoint: "Anchor-2" 670 714 basechar 0
AnchorPoint: "Anchor-1" 448 934 basechar 0
AnchorPoint: "Anchor-0" 282 0 basechar 0
LayerCount: 2
Fore
SplineSet
353 774 m 1
 338 815 299 883 274 921 c 1
 276 934 l 1
 360 934 l 1
 383 913 408 885 432 851 c 1
 470 887 503 911 535 934 c 1
 619 934 l 1
 617 921 l 1
 579 884 517 818 486 774 c 1
 353 774 l 1
71 0 m 1
 198 714 l 1
 385 714 l 2
 549 714 621 638 597 503 c 0
 580 408 527 342 445 304 c 1
 550 0 l 1
 401 0 l 1
 318 271 l 1
 259 271 l 1
 210 0 l 1
 71 0 l 1
324 392 m 2
 398 392 442 426 455 495 c 0
 468 565 433 594 359 594 c 2
 315 594 l 1
 279 392 l 1
 324 392 l 2
EndSplineSet
Substitution2: "'c2sc' Capitals to Small Capitals lookup 34 subtable" rcaron.sc
Substitution2: "'aalt' Access All Alternates lookup 0 subtable" rcaron.sc
EndChar

